<?xml version="1.0" encoding="utf-8"?>
<!-- Generator: Adobe Illustrator 19.0.0, SVG Export Plug-In . SVG Version: 6.00 Build 0)  -->
<svg version="1.1" id="Layer_1" xmlns="http://www.w3.org/2000/svg" xmlns:xlink="http://www.w3.org/1999/xlink" x="0px" y="0px"
	 viewBox="-37.1 0 2241.8 1280" style="enable-background:new -37.1 0 2241.8 1280;" xml:space="preserve">
<style type="text/css">
	.st0{fill:none;stroke:#FFFFFF;stroke-miterlimit:10;}
	.st1{clip-path:url(#SVGID_2_);}
	.st2{fill:none;stroke:#FFFFFF;stroke-width:2;stroke-miterlimit:10;}
	.st3{fill:none;stroke:#FFFFFF;stroke-width:1.25;stroke-miterlimit:10;}
	.st4{fill:none;stroke:#FFFFFF;stroke-width:1.5;stroke-miterlimit:10;}
	.st5{fill:none;stroke:#FFFFFF;stroke-width:1.75;stroke-miterlimit:10;}
	.st6{fill:none;stroke:#FFFFFF;stroke-width:2.25;stroke-miterlimit:10;}
	.st7{fill:none;stroke:#FFFFFF;stroke-width:2.5;stroke-miterlimit:10;}
	.st8{fill:none;stroke:#FFFFFF;stroke-width:2.75;stroke-miterlimit:10;}
	.st9{fill:none;stroke:#FFFFFF;stroke-width:3;stroke-miterlimit:10;}
	.st10{fill:none;stroke:#FFFFFF;stroke-width:3.25;stroke-miterlimit:10;}
	.st11{display:none;fill:none;stroke:#FFFFFF;stroke-width:3.5;stroke-miterlimit:10;}
	.st12{fill:none;stroke:#FFFFFF;stroke-width:3.75;stroke-miterlimit:10;}
	.st13{fill:none;stroke:#FFFFFF;stroke-width:4;stroke-miterlimit:10;}
	.st14{fill:none;stroke:#FFFFFF;stroke-width:4.25;stroke-miterlimit:10;}
	.st15{fill:none;stroke:#FFFFFF;stroke-width:4.5;stroke-miterlimit:10;}
	.st16{fill:none;stroke:#FFFFFF;stroke-width:4.75;stroke-miterlimit:10;}
	.st17{fill:none;stroke:#FFFFFF;stroke-width:5;stroke-miterlimit:10;}
	.st18{fill:none;stroke:#FFFFFF;stroke-width:5.25;stroke-miterlimit:10;}
	.st19{fill:none;stroke:#FFFFFF;stroke-width:5.5;stroke-miterlimit:10;}
	.st20{fill:none;stroke:#FFFFFF;stroke-width:5.75;stroke-miterlimit:10;}
	.st21{fill:none;stroke:#FFFFFF;stroke-width:6;stroke-miterlimit:10;}
	.st22{fill:none;stroke:#FFFFFF;stroke-width:6.25;stroke-miterlimit:10;}
	.st23{fill:none;stroke:#FFFFFF;stroke-width:6.5;stroke-miterlimit:10;}
	.st24{fill:none;stroke:#FFFFFF;stroke-width:6.75;stroke-miterlimit:10;}
	.st25{fill:none;stroke:#FFFFFF;stroke-width:7;stroke-miterlimit:10;}
	.st26{fill:none;stroke:#FFFFFF;stroke-width:7.25;stroke-miterlimit:10;}
	.st27{fill:none;stroke:#FFFFFF;stroke-width:7.5;stroke-miterlimit:10;}
	.st28{fill:none;stroke:#FFFFFF;stroke-width:7.75;stroke-miterlimit:10;}
	.st29{fill:none;stroke:#FFFFFF;stroke-width:8;stroke-miterlimit:10;}
	.st30{fill:none;stroke:#FFFFFF;stroke-width:8.25;stroke-miterlimit:10;}
	.st31{fill:none;stroke:#FFFFFF;stroke-width:8.5;stroke-miterlimit:10;}
	.st32{fill:none;stroke:#FFFFFF;stroke-width:8.75;stroke-miterlimit:10;}
	.st33{fill:none;stroke:#FFFFFF;stroke-width:9;stroke-miterlimit:10;}
	.st34{fill:none;stroke:#FFFFFF;stroke-width:9.25;stroke-miterlimit:10;}
	.st35{fill:none;stroke:#FFFFFF;stroke-width:9.5;stroke-miterlimit:10;}
	.st36{fill:none;stroke:#FFFFFF;stroke-width:9.75;stroke-miterlimit:10;}
	.st37{fill:none;stroke:#FFFFFF;stroke-width:10;stroke-miterlimit:10;}
	.st38{fill:none;stroke:#FFFFFF;stroke-width:10.25;stroke-miterlimit:10;}
	.st39{fill:none;stroke:#FFFFFF;stroke-width:10.5;stroke-miterlimit:10;}
	.st40{fill:none;stroke:#FFFFFF;stroke-width:3.5;stroke-miterlimit:10;}
</style>
<g id="_x31_">
	<g id="circles">
		<circle id="XMLID_2_" class="st0" cx="1101.3" cy="1188.4" r="910.7"/>
		<circle id="XMLID_8_" class="st0" cx="1101.3" cy="1188.4" r="893.2"/>
		<circle id="XMLID_9_" class="st0" cx="1101.3" cy="1188.4" r="875.7"/>
		<circle id="XMLID_10_" class="st0" cx="1101.3" cy="1188.4" r="858.2"/>
		<circle id="XMLID_11_" class="st0" cx="1101.3" cy="1188.4" r="840.7"/>
		<circle id="XMLID_12_" class="st0" cx="1101.3" cy="1188.4" r="823.1"/>
		<circle id="XMLID_13_" class="st0" cx="1101.3" cy="1188.4" r="805.6"/>
		<circle id="XMLID_14_" class="st0" cx="1101.3" cy="1188.4" r="788.1"/>
		<circle id="XMLID_15_" class="st0" cx="1101.3" cy="1188.4" r="770.6"/>
		<circle id="XMLID_16_" class="st0" cx="1101.3" cy="1188.4" r="753.1"/>
		<circle id="XMLID_17_" class="st0" cx="1101.3" cy="1188.4" r="735.6"/>
		<circle id="XMLID_18_" class="st0" cx="1101.3" cy="1188.4" r="718.1"/>
		<circle id="XMLID_19_" class="st0" cx="1101.3" cy="1188.4" r="700.5"/>
		<circle id="XMLID_20_" class="st0" cx="1101.3" cy="1188.4" r="683"/>
		<circle id="XMLID_21_" class="st0" cx="1101.3" cy="1188.4" r="665.5"/>
		<circle id="XMLID_22_" class="st0" cx="1101.3" cy="1188.4" r="648"/>
		<circle id="XMLID_23_" class="st0" cx="1101.3" cy="1188.4" r="630.5"/>
		<circle id="XMLID_24_" class="st0" cx="1101.3" cy="1188.4" r="613"/>
		<circle id="XMLID_25_" class="st0" cx="1101.3" cy="1188.4" r="595.5"/>
		<circle id="XMLID_26_" class="st0" cx="1101.3" cy="1188.4" r="577.9"/>
		<circle id="XMLID_27_" class="st0" cx="1101.3" cy="1188.4" r="560.4"/>
		<circle id="XMLID_28_" class="st0" cx="1101.3" cy="1188.4" r="542.9"/>
		<circle id="XMLID_29_" class="st0" cx="1101.3" cy="1188.4" r="525.4"/>
		<circle id="XMLID_30_" class="st0" cx="1101.3" cy="1188.4" r="507.9"/>
		<circle id="XMLID_31_" class="st0" cx="1101.3" cy="1188.4" r="490.4"/>
		<circle id="XMLID_32_" class="st0" cx="1101.3" cy="1188.4" r="472.9"/>
		<circle id="XMLID_33_" class="st0" cx="1101.3" cy="1188.4" r="455.4"/>
		<circle id="XMLID_34_" class="st0" cx="1101.3" cy="1188.4" r="437.8"/>
		<circle id="XMLID_35_" class="st0" cx="1101.3" cy="1188.4" r="420.3"/>
		<circle id="XMLID_36_" class="st0" cx="1101.3" cy="1188.4" r="402.8"/>
		<circle id="XMLID_37_" class="st0" cx="1101.3" cy="1188.4" r="385.3"/>
		<circle id="XMLID_38_" class="st0" cx="1101.3" cy="1188.4" r="367.8"/>
		<circle id="XMLID_39_" class="st0" cx="1101.3" cy="1188.4" r="350.3"/>
		<circle id="XMLID_40_" class="st0" cx="1101.3" cy="1188.4" r="332.8"/>
		<circle id="XMLID_41_" class="st0" cx="1101.3" cy="1188.4" r="315.2"/>
		<circle id="XMLID_42_" class="st0" cx="1101.3" cy="1188.4" r="297.7"/>
		<circle id="XMLID_43_" class="st0" cx="1101.3" cy="1188.4" r="280.2"/>
		<circle id="XMLID_44_" class="st0" cx="1101.3" cy="1188.4" r="262.7"/>
		<circle id="XMLID_45_" class="st0" cx="1101.3" cy="1188.4" r="245.2"/>
		<circle id="XMLID_46_" class="st0" cx="1101.3" cy="1188.4" r="227.7"/>
		<circle id="XMLID_47_" class="st0" cx="1101.3" cy="1188.4" r="210.2"/>
		<circle id="XMLID_48_" class="st0" cx="1101.3" cy="1188.4" r="192.6"/>
		<circle id="XMLID_49_" class="st0" cx="1101.3" cy="1188.4" r="175.1"/>
		<circle id="XMLID_50_" class="st0" cx="1101.3" cy="1188.4" r="157.6"/>
		<circle id="XMLID_51_" class="st0" cx="1101.3" cy="1188.4" r="140.1"/>
		<circle id="XMLID_52_" class="st0" cx="1101.3" cy="1188.4" r="122.6"/>
		<circle id="XMLID_53_" class="st0" cx="1101.3" cy="1188.4" r="105.1"/>
		<circle id="XMLID_54_" class="st0" cx="1101.3" cy="1188.4" r="87.6"/>
		<circle id="XMLID_120_" class="st0" cx="1101.3" cy="1188.4" r="928.2"/>
		<circle id="XMLID_119_" class="st0" cx="1101.3" cy="1188.4" r="945.7"/>
		<circle id="XMLID_118_" class="st0" cx="1101.3" cy="1188.4" r="963.2"/>
		<circle id="XMLID_117_" class="st0" cx="1101.3" cy="1188.4" r="980.8"/>
		<circle id="XMLID_116_" class="st0" cx="1101.3" cy="1188.4" r="998.3"/>
		<circle id="XMLID_115_" class="st0" cx="1101.3" cy="1188.4" r="1015.8"/>
		<circle id="XMLID_114_" class="st0" cx="1101.3" cy="1188.4" r="1033.3"/>
		<circle id="XMLID_113_" class="st0" cx="1101.3" cy="1188.4" r="1050.8"/>
		<circle id="XMLID_112_" class="st0" cx="1101.3" cy="1188.4" r="1068.3"/>
		<circle id="XMLID_4_" class="st0" cx="1101.3" cy="1188.4" r="1085.8"/>
		<circle id="XMLID_121_" class="st0" cx="1101.3" cy="1188.4" r="1103.4"/>
		<circle id="XMLID_123_" class="st0" cx="1101.3" cy="1188.4" r="1120.9"/>
		<circle id="XMLID_124_" class="st0" cx="1101.3" cy="1188.4" r="1138.4"/>
		<circle id="XMLID_126_" class="st0" cx="1101.3" cy="1188.4" r="1155.9"/>
		<circle id="XMLID_127_" class="st0" cx="1101.3" cy="1188.4" r="1173.4"/>
		<circle id="XMLID_128_" class="st0" cx="1101.3" cy="1188.4" r="1190.9"/>
		<circle id="XMLID_129_" class="st0" cx="1101.3" cy="1188.4" r="1208.4"/>
		<circle id="XMLID_130_" class="st0" cx="1101.3" cy="1188.4" r="1226"/>
		<circle id="XMLID_131_" class="st0" cx="1101.3" cy="1188.4" r="1243.5"/>
		<circle id="XMLID_132_" class="st0" cx="1101.3" cy="1188.4" r="1261"/>
		<circle id="XMLID_133_" class="st0" cx="1101.3" cy="1188.4" r="1278.5"/>
		<circle id="XMLID_134_" class="st0" cx="1101.3" cy="1188.4" r="70.1"/>
		<circle id="XMLID_135_" class="st0" cx="1101.3" cy="1188.4" r="52.5"/>
		<circle id="XMLID_136_" class="st0" cx="1101.3" cy="1188.4" r="35"/>
		<circle id="XMLID_137_" class="st0" cx="1101.3" cy="1188.4" r="17.5"/>
		<circle id="XMLID_138_" class="st0" cx="1101.3" cy="1188.4" r="1296"/>
		<circle id="XMLID_139_" class="st0" cx="1101.3" cy="1188.4" r="1313.5"/>
		<circle id="XMLID_140_" class="st0" cx="1101.3" cy="1188.4" r="1331"/>
		<circle id="XMLID_142_" class="st0" cx="1101.3" cy="1188.4" r="1348.5"/>
		<circle id="XMLID_143_" class="st0" cx="1101.3" cy="1188.4" r="1366.1"/>
		<circle id="XMLID_144_" class="st0" cx="1101.3" cy="1188.4" r="1383.6"/>
		<circle id="XMLID_145_" class="st0" cx="1101.3" cy="1188.4" r="1401.1"/>
		<circle id="XMLID_146_" class="st0" cx="1101.3" cy="1188.4" r="1418.6"/>
		<circle id="XMLID_147_" class="st0" cx="1101.3" cy="1188.4" r="1436.1"/>
		<circle id="XMLID_148_" class="st0" cx="1101.3" cy="1188.4" r="1453.6"/>
		<circle id="XMLID_149_" class="st0" cx="1101.3" cy="1188.4" r="1471.1"/>
		<circle id="XMLID_150_" class="st0" cx="1101.3" cy="1188.4" r="1488.7"/>
		<circle id="XMLID_151_" class="st0" cx="1101.3" cy="1188.4" r="1506.2"/>
		<circle id="XMLID_152_" class="st0" cx="1101.3" cy="1188.4" r="1523.7"/>
		<circle id="XMLID_153_" class="st0" cx="1101.3" cy="1188.4" r="1541.2"/>
		<circle id="XMLID_154_" class="st0" cx="1101.3" cy="1188.4" r="1558.7"/>
		<circle id="XMLID_155_" class="st0" cx="1101.3" cy="1188.4" r="1576.2"/>
		<circle id="XMLID_156_" class="st0" cx="1101.3" cy="1188.4" r="1593.7"/>
		<circle id="XMLID_157_" class="st0" cx="1101.3" cy="1188.4" r="1611.2"/>
		<circle id="XMLID_158_" class="st0" cx="1101.3" cy="1188.4" r="1628.8"/>
	</g>
	<g id="XMLID_1_">
		<g>
			<g>
				<defs>
					<path id="SVGID_1_" d="M1384.7,334.6L1254,303.3l-25.8,81.1L1108,759.2h-8.7L981.6,387.8L955,303.3l-129.9,31.3l26.9,83.2
						L1024.8,952c-0.1,0-0.1,0-0.1,0l2.6,8c5.6-2.4,11.6-4.3,17.7-5.9h114.5c6.1,1.6,12.1,3.5,17.7,5.9l2.6-8l0,0L1384.7,334.6z"/>
				</defs>
				<clipPath id="SVGID_2_">
					<use xlink:href="#SVGID_1_"  style="overflow:visible;"/>
				</clipPath>
				<g id="circles_more" class="st1">
					<g id="XMLID_55_">
						<circle id="XMLID_111_" class="st2" cx="1101.3" cy="1188.4" r="1068.3"/>
						<circle id="XMLID_102_" class="st2" cx="1101.3" cy="1188.4" r="910.7"/>
						<circle id="XMLID_101_" class="st3" cx="1101.3" cy="1188.4" r="893.2"/>
						<circle id="XMLID_100_" class="st4" cx="1101.3" cy="1188.4" r="875.7"/>
						<circle id="XMLID_99_" class="st5" cx="1101.3" cy="1188.4" r="858.2"/>
						<circle id="XMLID_98_" class="st2" cx="1101.3" cy="1188.4" r="840.7"/>
						<circle id="XMLID_97_" class="st6" cx="1101.3" cy="1188.4" r="823.1"/>
						<circle id="XMLID_96_" class="st7" cx="1101.3" cy="1188.4" r="805.6"/>
						<circle id="XMLID_95_" class="st8" cx="1101.3" cy="1188.4" r="788.1"/>
						<circle id="XMLID_94_" class="st9" cx="1101.3" cy="1188.4" r="770.6"/>
						<circle id="XMLID_93_" class="st10" cx="1101.3" cy="1188.4" r="753.1"/>
						<circle id="XMLID_92_" class="st11" cx="1101.3" cy="1188.4" r="735.6"/>
						<circle id="XMLID_91_" class="st12" cx="1101.3" cy="1188.4" r="718.1"/>
						<circle id="XMLID_90_" class="st13" cx="1101.3" cy="1188.4" r="700.5"/>
						<circle id="XMLID_89_" class="st14" cx="1101.3" cy="1188.4" r="683"/>
						<circle id="XMLID_88_" class="st15" cx="1101.3" cy="1188.4" r="665.5"/>
						<circle id="XMLID_87_" class="st16" cx="1101.3" cy="1188.4" r="648"/>
						<circle id="XMLID_86_" class="st17" cx="1101.3" cy="1188.4" r="630.5"/>
						<circle id="XMLID_85_" class="st18" cx="1101.3" cy="1188.4" r="613"/>
						<circle id="XMLID_84_" class="st19" cx="1101.3" cy="1188.4" r="595.5"/>
						<circle id="XMLID_83_" class="st20" cx="1101.3" cy="1188.4" r="577.9"/>
						<circle id="XMLID_82_" class="st21" cx="1101.3" cy="1188.4" r="560.4"/>
						<circle id="XMLID_81_" class="st22" cx="1101.3" cy="1188.4" r="542.9"/>
						<circle id="XMLID_80_" class="st23" cx="1101.3" cy="1188.4" r="525.4"/>
						<circle id="XMLID_79_" class="st24" cx="1101.3" cy="1188.4" r="507.9"/>
						<circle id="XMLID_78_" class="st25" cx="1101.3" cy="1188.4" r="490.4"/>
						<circle id="XMLID_77_" class="st26" cx="1101.3" cy="1188.4" r="472.9"/>
						<circle id="XMLID_76_" class="st27" cx="1101.3" cy="1188.4" r="455.4"/>
						<circle id="XMLID_75_" class="st28" cx="1101.3" cy="1188.4" r="437.8"/>
						<circle id="XMLID_74_" class="st29" cx="1101.3" cy="1188.4" r="420.3"/>
						<circle id="XMLID_73_" class="st30" cx="1101.3" cy="1188.4" r="402.8"/>
						<circle id="XMLID_72_" class="st31" cx="1101.3" cy="1188.4" r="385.3"/>
						<circle id="XMLID_71_" class="st32" cx="1101.3" cy="1188.4" r="367.8"/>
						<circle id="XMLID_70_" class="st33" cx="1101.3" cy="1188.4" r="350.3"/>
						<circle id="XMLID_69_" class="st34" cx="1101.3" cy="1188.4" r="332.8"/>
						<circle id="XMLID_68_" class="st35" cx="1101.3" cy="1188.4" r="315.2"/>
						<circle id="XMLID_67_" class="st36" cx="1101.3" cy="1188.4" r="297.7"/>
						<circle id="XMLID_66_" class="st37" cx="1101.3" cy="1188.4" r="280.2"/>
						<circle id="XMLID_65_" class="st38" cx="1101.3" cy="1188.4" r="262.7"/>
						<circle id="XMLID_64_" class="st39" cx="1101.3" cy="1188.4" r="245.2"/>
						<circle id="XMLID_63_" class="st0" cx="1101.3" cy="1188.4" r="227.7"/>
						<circle id="XMLID_62_" class="st2" cx="1101.3" cy="1188.4" r="210.2"/>
						<circle id="XMLID_61_" class="st2" cx="1101.3" cy="1188.4" r="192.6"/>
						<circle id="XMLID_60_" class="st2" cx="1101.3" cy="1188.4" r="175.1"/>
						<circle id="XMLID_59_" class="st2" cx="1101.3" cy="1188.4" r="157.6"/>
						<circle id="XMLID_58_" class="st2" cx="1101.3" cy="1188.4" r="140.1"/>
						<circle id="XMLID_57_" class="st2" cx="1101.3" cy="1188.4" r="122.6"/>
						<circle id="XMLID_56_" class="st2" cx="1101.3" cy="1188.4" r="105.1"/>
						<circle id="XMLID_103_" class="st2" cx="1101.3" cy="1188.4" r="87.6"/>
						<circle id="XMLID_104_" class="st2" cx="1101.3" cy="1188.4" r="928.2"/>
						<circle id="XMLID_105_" class="st2" cx="1101.3" cy="1188.4" r="945.7"/>
						<circle id="XMLID_106_" class="st2" cx="1101.3" cy="1188.4" r="963.2"/>
						<circle id="XMLID_107_" class="st2" cx="1101.3" cy="1188.4" r="980.8"/>
						<circle id="XMLID_108_" class="st2" cx="1101.3" cy="1188.4" r="998.3"/>
						<circle id="XMLID_109_" class="st2" cx="1101.3" cy="1188.4" r="1015.8"/>
						<circle id="XMLID_110_" class="st2" cx="1101.3" cy="1188.4" r="1033.3"/>
						<circle id="XMLID_122_" class="st2" cx="1101.3" cy="1188.4" r="1050.8"/>
						<circle id="XMLID_125_" class="st40" cx="1101.3" cy="1188.4" r="735.6"/>
					</g>
				</g>
			</g>
		</g>
	</g>
</g>
</svg>
