<?xml version="1.0" encoding="utf-8"?>
<!-- Generator: Adobe Illustrator 16.0.0, SVG Export Plug-In . SVG Version: 6.00 Build 0)  -->
<!DOCTYPE svg PUBLIC "-//W3C//DTD SVG 1.1//EN" "http://www.w3.org/Graphics/SVG/1.1/DTD/svg11.dtd">
<svg version="1.1" id="Layer_1" xmlns="http://www.w3.org/2000/svg" xmlns:xlink="http://www.w3.org/1999/xlink" x="0px" y="0px"
	 width="20.971px" height="16px" viewBox="1.03 5 20.971 16" enable-background="new 1.03 5 20.971 16" xml:space="preserve">
<g>
	<path fill="#FFFFFF" d="M19,21H9c-1.437,0-3.146-0.88-3.978-2.046l-2.619-3.667c-0.629-0.881-1.156-1.621-1.188-1.661
		c-0.246-0.344-0.249-0.894-0.008-1.241c0.018-0.025,0.561-0.783,1.204-1.686L5.02,7.046C5.855,5.879,7.566,5,9,5h10
		c1.653,0,3,1.346,3,3v10C22,19.654,20.654,21,19,21z M3.229,12.999c0.215,0.299,0.498,0.696,0.807,1.125l2.617,3.667
		C7.104,18.424,8.223,19,9.001,19h10c0.552,0,1-0.45,1-1.001V8c0-0.551-0.448-1-1-1h-10C8.225,7,7.104,7.576,6.65,8.209
		l-2.607,3.652C3.73,12.297,3.443,12.699,3.229,12.999z"/>
</g>
<path fill="#FFFFFF" d="M19.704,6.094L7.673,6.375l-5.594,6.626l5.344,6.687h12.219l0.844-1.219l0.031-4.438l0.313-6.719
	L19.704,6.094z M16.354,16.354C16.256,16.451,16.128,16.5,16,16.5s-0.256-0.049-0.354-0.146L13,13.707l-2.646,2.646
	C10.256,16.451,10.128,16.5,10,16.5s-0.256-0.049-0.354-0.146c-0.194-0.194-0.194-0.514,0-0.707L12.293,13l-2.646-2.646
	c-0.194-0.193-0.194-0.512,0-0.707c0.194-0.193,0.513-0.193,0.707,0L13,12.293l2.646-2.646c0.193-0.193,0.513-0.193,0.707,0
	c0.193,0.195,0.193,0.514,0,0.707L13.707,13l2.646,2.646C16.548,15.842,16.548,16.161,16.354,16.354z"/>
</svg>
