<?xml version="1.0" encoding="utf-8"?>
<!-- Generator: Adobe Illustrator 16.0.0, SVG Export Plug-In . SVG Version: 6.00 Build 0)  -->
<!DOCTYPE svg PUBLIC "-//W3C//DTD SVG 1.1//EN" "http://www.w3.org/Graphics/SVG/1.1/DTD/svg11.dtd">
<svg version="1.1" id="Layer_1" xmlns="http://www.w3.org/2000/svg" xmlns:xlink="http://www.w3.org/1999/xlink" x="0px" y="0px"
	 width="680.278px" height="969.102px" viewBox="649.722 64.898 680.278 969.102"
	 enable-background="new 649.722 64.898 680.278 969.102" xml:space="preserve">
<g>
	<path fill="#C9B22F" d="M1125,816H855c-10.493,0-19,8.507-19,19v45c0,42.674,16.436,73.103,48.852,90.441
		c7.617,4.074,16.088,7.43,25.656,10.115c4.396,10.138,10.753,19.573,18.808,27.628C945.721,1024.591,967.84,1034,990,1034
		s44.279-9.409,60.685-25.815c8.055-8.055,14.411-17.49,18.808-27.628c9.568-2.686,18.039-6.041,25.656-10.115
		C1127.564,953.103,1144,922.674,1144,880v-45C1144,824.507,1135.493,816,1125,816z"/>
	<polygon fill="#C9B22F" points="1031.038,495.388 956.112,495.388 956.112,759.574 956.112,790 1031.038,790 1031.038,759.574 	"/>
	<path fill="#C9B22F" d="M1134.569,434.175c6.471-10.033,3.853-28.122-0.113-41.74c-5.897-1.037-11.336-1.562-16.262-1.562
		c-16.104,0-22.396,5.465-25.729,9.576c-8.603,10.609-10.516,29.741-9.926,45.607c4.455,0.339,8.688,0.51,12.68,0.51
		C1106.93,446.566,1127.616,444.956,1134.569,434.175z"/>
	<path fill="#C9B22F" d="M865.626,390.874c-4.93,0-10.371,0.524-16.271,1.563c-3.953,13.58-6.584,31.691-0.109,41.732
		c6.954,10.783,27.642,12.396,39.354,12.397c0.006,0,0.014,0,0.018,0c3.97,0,8.179-0.17,12.607-0.505
		c0.609-15.433-1.01-34.752-9.924-45.676C887.97,396.303,881.684,390.874,865.626,390.874z"/>
	<path fill="#C9B22F" d="M1303.552,273.192c-16.952-40.447-41.196-76.819-72.058-108.107c-30.922-31.35-66.9-55.983-106.936-73.218
		c-41.57-17.895-85.664-26.969-131.057-26.969c-2.865,0-5.773,0.037-8.679,0.112c-86.86,2.348-169.513,37.412-232.73,98.733
		c-63.431,61.527-99.679,142.105-102.079,226.897c-2.32,56.444,9.227,112.813,33.397,163.019
		c23.752,49.33,59.278,92.019,102.756,123.468C814.026,698.101,830,730.117,830,765c0,13.808,11.192,25,25,25h47.572
		c-2.657-5.842-4.15-12.321-4.15-19.146V504.021c-3.353,0.153-6.625,0.234-9.805,0.234c-0.007,0-0.014,0-0.021,0
		c-41.816-0.005-71.423-13.149-87.992-39.072c-28.043-43.865-2.153-102.876,0.891-109.461c3.563-7.704,10.337-13.447,18.52-15.704
		c16.467-4.535,31.812-6.835,45.613-6.835c37.571,0,59.098,16.821,70.539,30.933c17.718,21.854,22.516,50.446,22.882,73.581h65.726
		c0.365-23.136,5.162-51.729,22.882-73.581c11.44-14.111,32.967-30.933,70.541-30.933c13.8,0,29.146,2.301,45.61,6.835
		c8.184,2.256,14.959,8,18.521,15.706c3.045,6.584,28.934,65.604,0.886,109.471c-16.572,25.92-46.177,39.061-87.992,39.061
		c-2.119,0-4.293-0.048-6.489-0.116v266.714c0,6.825-1.493,13.306-4.15,19.146H1125c13.809,0,25-11.192,25-25
		c0-33.388,14.822-66.213,39.712-88.101c42.745-28.833,78.201-68.849,102.599-115.813C1316.967,513.623,1330,459.648,1330,405
		C1330,359.41,1321.102,315.063,1303.552,273.192z"/>
</g>
</svg>
