<?xml version="1.0" encoding="utf-8"?>
<!-- Generator: Adobe Illustrator 16.0.0, SVG Export Plug-In . SVG Version: 6.00 Build 0)  -->
<!DOCTYPE svg PUBLIC "-//W3C//DTD SVG 1.1//EN" "http://www.w3.org/Graphics/SVG/1.1/DTD/svg11.dtd">
<svg version="1.1" id="Layer_1" xmlns="http://www.w3.org/2000/svg" xmlns:xlink="http://www.w3.org/1999/xlink" x="0px" y="0px"
	 width="512px" height="512px" viewBox="0 0 512 512" enable-background="new 0 0 512 512" xml:space="preserve">
<path fill="#FFFFFF" d="M400,160c-5.313,0-10.563,0.375-15.792,1.125C354.334,120.417,307.188,96,256,96
	c-51.188,0-98.312,24.417-128.208,65.125c-5.23-0.75-10.48-1.125-15.792-1.125C50.25,160,0,210.25,0,272s50.25,112,112,112
	c13.688,0,27.084-2.5,39.709-7.333C180.666,401.917,217.5,416,256,416c38.542,0,75.333-14.083,104.291-39.333
	C372.916,381.5,386.313,384,400,384c61.75,0,112-50.25,112-112S461.75,160,400,160z"/>
</svg>
