<?xml version="1.0" encoding="utf-8"?>
<!-- Generator: Adobe Illustrator 16.0.0, SVG Export Plug-In . SVG Version: 6.00 Build 0)  -->
<!DOCTYPE svg PUBLIC "-//W3C//DTD SVG 1.1//EN" "http://www.w3.org/Graphics/SVG/1.1/DTD/svg11.dtd">
<svg version="1.1" id="Layer_1" xmlns="http://www.w3.org/2000/svg" xmlns:xlink="http://www.w3.org/1999/xlink" x="0px" y="0px"
	 width="1350.173px" height="1371.69px" viewBox="2099.1 144.63 1350.173 1371.69"
	 enable-background="new 2099.1 144.63 1350.173 1371.69" xml:space="preserve">
<path id="body_1_" fill="#37B6C8" d="M2996.708,865.012l-28.77-80.275c-1.314-3.85-2.666-7.604-4.041-11.276l-0.104-0.287
	l-0.004,0.001c-30.875-82.33-75.09-121.239-75.09-121.239c27.322-9.5-6.826-22.5-6.826-22.5c23-11.5-19.5-20.5-19.5-20.5
	c17.5-21-27-18-27-18c-68-38-121-49.5-121-49.5c-45-434-305-350-305-350c-45-12-41,21-41,21c-64-20-41,20-41,20c-76,13-15,27-15,27
	c-90,87-14,343-14,343c-56.563,245.882,77.561,339.5,77.561,339.5c47.998,130.902,26.939,255.001,22.939,228.001
	s-61.5-83.5-61.5-83.5c-78-71-156,21-156,21c-60,140-29,237,24.5,258s77.5-13.5,77.5-13.5c5,21,36.5,52.5,36.5,52.5
	c-29-5.5-23,11.5-23,11.5c7.5,11.5,41,8.5,41,8.5c-38.5,3.5-24.5,21-24.5,21c9.5,9.5,45.33,5.668,45.33,5.668
	c67.332,47.334,134.67,43.832,134.67,43.832c-15,10.25-7.75,16.75-7.75,16.75c26.5,11.75,42-19.5,42-19.5
	c-1.5,13.25,9.25,19.25,9.25,19.25c15.5,1,16-24.5,16-24.5c8.25,12,15,10.75,15,10.75c19.25-0.5,6.834-35.252,6.834-35.252
	c10.666-7.334,21.332-21.332,21.332-21.332c136,98.666,170,55.397,170,55.397c21.334,51.396,26.668-13.396,26.668-13.396
	c20,38.666,16.666-18.668,16.666-18.668c52.668-80,63-160,63-160c51,36,14-39,14-39c36,25,0-45,0-45
	c6.512-129.707-12.992-231.095-32.193-296.736c14.666,11.843,53.186,40.204,94.805,48.352c46.238,9.054,24.316-74.02,17.93-95.497
	L2996.708,865.012z"/>
<g id="guitar_1_">
	<path fill="#9B213B" d="M2314.55,759.589c0,0,75.127-135.681,257.076-70.705c0,0,55.609,12.145,112.547-19.604
		c56.939-31.747,125.914-91.938,173.799-53.324c47.887,38.615-65.17,79.804-65.17,79.804s-36.006,20.62-22.873,46.2
		c13.135,25.581,29.604,113.493,29.604,113.493s-32.814,31.677,1.846,50.087c34.66,18.411,63.604,2.234,63.604,2.234
		s42.059-23.616,52.863,22.492c10.811,46.111-54.529,93.345-172.711,83.888c-118.182-9.461-161.447,41.939-161.447,41.939
		s-146.191,165.523-256.818-69.021C2326.865,987.073,2271.566,837.11,2314.55,759.589z"/>
	<path id="pickups_1_" fill="#333333" d="M2696.119,876.436c1.797,8.303-3.48,16.484-11.775,18.281l0,0
		c-8.301,1.795-16.482-3.477-18.281-11.774l-19.723-91.14c-1.797-8.3,3.477-16.482,11.773-18.281l0,0
		c8.301-1.796,16.484,3.479,18.281,11.777L2696.119,876.436z"/>
	<path fill="#F3C38A" d="M3242.435,626.023c-4.689,31.396-29.459,41.501-40.74,44.505l-497.758,103.851
		c-9.723,58.831,24.121,97.172,24.121,97.172l503.361-100.035c49.924-9.913,69.314,11.699,69.314,11.699l148.521-80.828
		l-5.166-88.183L3242.435,626.023L3242.435,626.023z"/>
	<g id="pegs_1_">
		<path fill="#999999" d="M3270.162,607.035l-14.986,0.878c-2.848,0.167-5.021,2.61-4.854,5.456
			c0.166,2.846,2.605,5.018,5.455,4.851l2.26-0.132l0.77,13.122c0.154,2.638,2.416,4.648,5.051,4.493
			c2.637-0.154,4.646-2.417,4.49-5.052l-0.77-13.122l3.188-0.188c2.846-0.167,5.02-2.607,4.854-5.455
			C3275.451,609.041,3273.005,606.869,3270.162,607.035z"/>
		<path fill="#999999" d="M3301.583,605.194l-14.986,0.878c-2.846,0.167-5.018,2.606-4.852,5.455
			c0.168,2.846,2.609,5.018,5.455,4.852l2.256-0.132l0.77,13.122c0.152,2.638,2.418,4.646,5.055,4.493
			c2.637-0.154,4.645-2.417,4.49-5.056l-0.77-13.122l3.186-0.187c2.848-0.167,5.02-2.61,4.854-5.455
			C3306.873,607.201,3304.427,605.027,3301.583,605.194z"/>
		<path fill="#999999" d="M3332.218,603.398l-14.988,0.878c-2.846,0.167-5.018,2.607-4.852,5.456
			c0.168,2.846,2.609,5.018,5.453,4.851l2.26-0.132l0.771,13.122c0.152,2.638,2.414,4.646,5.051,4.493
			c2.637-0.154,4.646-2.417,4.49-5.055l-0.77-13.122l3.188-0.187c2.848-0.167,5.018-2.61,4.852-5.455
			C3337.505,605.405,3335.062,603.232,3332.218,603.398z"/>
		<path fill="#999999" d="M3364.093,601.531l-14.986,0.878c-2.848,0.167-5.02,2.606-4.854,5.455
			c0.168,2.846,2.611,5.018,5.455,4.851l2.258-0.132l0.771,13.122c0.154,2.638,2.416,4.648,5.051,4.494
			c2.637-0.155,4.646-2.417,4.494-5.053l-0.771-13.122l3.189-0.188c2.848-0.167,5.018-2.611,4.852-5.456
			C3369.382,603.536,3366.939,601.364,3364.093,601.531z"/>
		<path fill="#999999" d="M3395.517,599.689l-14.986,0.878c-2.848,0.167-5.021,2.607-4.855,5.456
			c0.166,2.846,2.609,5.018,5.455,4.851l2.258-0.132l0.771,13.122c0.156,2.638,2.42,4.646,5.051,4.494
			c2.641-0.155,4.648-2.417,4.494-5.056l-0.771-13.122l3.188-0.187c2.848-0.167,5.02-2.611,4.854-5.456
			C3400.802,601.696,3398.363,599.521,3395.517,599.689z"/>
		<path fill="#999999" d="M3426.15,597.894l-14.984,0.878c-2.85,0.17-5.021,2.609-4.855,5.455c0.166,2.849,2.607,5.021,5.455,4.854
			l2.26-0.133l0.77,13.122c0.156,2.638,2.418,4.646,5.053,4.494c2.637-0.154,4.646-2.42,4.49-5.056l-0.771-13.122l3.189-0.187
			c2.85-0.167,5.018-2.611,4.852-5.456C3431.437,599.9,3428.998,597.727,3426.15,597.894z"/>
		<circle fill="#999999" cx="3264.714" cy="657.508" r="8.401"/>
		<circle fill="#999999" cx="3295.666" cy="655.695" r="8.401"/>
		<circle fill="#999999" cx="3326.611" cy="653.881" r="8.401"/>
		<circle fill="#999999" cx="3359.552" cy="651.95" r="8.401"/>
		<circle fill="#999999" cx="3390.5" cy="650.137" r="8.401"/>
		<circle fill="#999999" cx="3421.449" cy="648.323" r="8.401"/>
	</g>
	<g>
		<g>
			<g>
				<g>
					<g>
						<g>
							<defs>
								<path id="SVGID_1_" d="M3242.435,626.023c-4.689,31.396-29.459,41.501-40.74,44.505l-497.758,103.851
									c-9.723,58.831,24.121,97.172,24.121,97.172l503.361-100.035c49.924-9.913,69.314,11.699,69.314,11.699l148.521-80.828
									l-5.166-88.183L3242.435,626.023L3242.435,626.023z"/>
							</defs>
							<clipPath id="SVGID_2_">
								<use xlink:href="#SVGID_1_"  overflow="visible"/>
							</clipPath>
							
								<line clip-path="url(#SVGID_2_)" fill="none" stroke="#000000" stroke-width="5" stroke-miterlimit="10" stroke-opacity="0.2" x1="3205.132" y1="664.678" x2="3230.07" y2="782.514"/>
						</g>
					</g>
				</g>
			</g>
		</g>
	</g>
	<g id="strings_1_">
		
			<line fill="none" stroke="#C78B2B" stroke-width="6" stroke-miterlimit="10" x1="2480.316" y1="834.299" x2="3209.662" y2="685.354"/>
		
			<line fill="none" stroke="#C78B2B" stroke-width="6" stroke-miterlimit="10" x1="2483.25" y1="850.154" x2="3212.593" y2="701.21"/>
		
			<line fill="none" stroke="#C78B2B" stroke-width="5" stroke-miterlimit="10" x1="2486.125" y1="865.012" x2="3215.466" y2="716.067"/>
		
			<line fill="none" stroke="#C78B2B" stroke-width="4" stroke-miterlimit="10" x1="2488.939" y1="878.871" x2="3218.285" y2="729.926"/>
		
			<line fill="none" stroke="#C78B2B" stroke-width="3" stroke-miterlimit="10" x1="2490.755" y1="892.787" x2="3220.101" y2="743.844"/>
		
			<line fill="none" stroke="#C78B2B" stroke-width="3" stroke-miterlimit="10" x1="2494.572" y1="906.587" x2="3223.916" y2="757.644"/>
	</g>
</g>
<g opacity="0.1" enable-background="new    ">
	<g>
		<g>
			<g>
				<defs>
					<path id="SVGID_3_" d="M3444.089,614.205l-20.111,1.179l-0.408-6.996l3.188-0.187c2.85-0.167,5.02-2.611,4.852-5.456
						c-0.166-2.845-2.607-5.019-5.453-4.851l-14.986,0.878c-2.848,0.167-5.02,2.606-4.852,5.452
						c0.166,2.849,2.605,5.021,5.455,4.854l2.258-0.133l0.41,6.996l-21.094,1.233l-0.41-6.996l3.186-0.187
						c2.852-0.167,5.021-2.611,4.855-5.456s-2.607-5.02-5.453-4.852l-14.988,0.879c-2.846,0.167-5.02,2.607-4.852,5.455
						c0.166,2.847,2.607,5.019,5.455,4.852l2.258-0.132l0.41,6.996l-21.877,1.279l-0.41-6.995l3.188-0.188
						c2.848-0.167,5.018-2.611,4.852-5.456c-0.166-2.846-2.607-5.018-5.455-4.851l-14.988,0.878
						c-2.846,0.167-5.018,2.606-4.852,5.455c0.168,2.846,2.611,5.018,5.455,4.851l2.258-0.132l0.41,6.996l-22.332,1.309l-0.41-6.996
						l3.188-0.187c2.85-0.167,5.02-2.61,4.854-5.455s-2.607-5.02-5.453-4.854l-14.988,0.878c-2.846,0.169-5.018,2.609-4.852,5.456
						c0.168,2.848,2.605,5.02,5.453,4.853l2.26-0.132l0.41,6.996l-21.094,1.233l-0.406-6.996l3.184-0.187
						c2.848-0.167,5.02-2.61,4.854-5.455c-0.166-2.846-2.609-5.02-5.455-4.854l-14.986,0.879c-2.846,0.166-5.018,2.607-4.852,5.454
						c0.168,2.848,2.609,5.02,5.455,4.854l2.256-0.132l0.41,6.996l-21.879,1.279l-0.41-6.995l3.188-0.188
						c2.846-0.167,5.021-2.61,4.855-5.455c-0.166-2.846-2.609-5.019-5.455-4.853l-14.988,0.879
						c-2.846,0.167-5.021,2.607-4.854,5.455c0.166,2.847,2.607,5.019,5.455,4.852l2.26-0.132l0.408,6.996l-16.012,0.938v0.001
						c-4.688,31.397-29.459,41.501-40.742,44.505l-425.021,88.68c-2.277-7.013-4.553-12.993-6.736-17.247
						c-13.133-25.58,22.873-46.2,22.873-46.2s113.057-41.188,65.17-79.806c-47.887-38.611-116.859,21.576-173.799,53.323
						c-56.939,31.746-112.547,19.604-112.547,19.604c-181.951-64.979-257.078,70.705-257.078,70.705
						c-42.98,77.521,12.313,227.481,12.313,227.481c110.625,234.549,256.816,69.023,256.816,69.023s43.27-51.404,161.449-41.943
						c118.18,9.457,183.52-37.771,172.711-83.884c-10.809-46.111-52.865-22.495-52.865-22.495s-28.939,16.176-63.602-2.233
						c-29.018-15.412-10.744-40.121-4.025-47.76l434.07-86.264c49.922-9.913,69.313,11.699,69.313,11.699l148.523-80.828
						L3444.089,614.205z"/>
				</defs>
				<clipPath id="SVGID_4_">
					<use xlink:href="#SVGID_3_"  overflow="visible"/>
				</clipPath>
				<path clip-path="url(#SVGID_4_)" d="M2565.708,681.766c0,0-124.002-37.012-191.668,48.161c0,0-22.998,25.171-35.666,56.504
					c0,0,25.482,30.071,127.074,13.369l-7.074,23.964c0,0-158.666,58.667-183.666-39.667S2472.708,641.768,2565.708,681.766z"/>
			</g>
		</g>
	</g>
	<g>
		<g>
			<g>
				<defs>
					<path id="SVGID_5_" d="M3444.089,614.205l-20.111,1.179l-0.408-6.996l3.188-0.187c2.85-0.167,5.02-2.611,4.852-5.456
						c-0.166-2.845-2.607-5.019-5.453-4.851l-14.986,0.878c-2.848,0.167-5.02,2.606-4.852,5.452
						c0.166,2.849,2.605,5.021,5.455,4.854l2.258-0.133l0.41,6.996l-21.094,1.233l-0.41-6.996l3.186-0.187
						c2.852-0.167,5.021-2.611,4.855-5.456s-2.607-5.02-5.453-4.852l-14.988,0.879c-2.846,0.167-5.02,2.607-4.852,5.455
						c0.166,2.847,2.607,5.019,5.455,4.852l2.258-0.132l0.41,6.996l-21.877,1.279l-0.41-6.995l3.188-0.188
						c2.848-0.167,5.018-2.611,4.852-5.456c-0.166-2.846-2.607-5.018-5.455-4.851l-14.988,0.878
						c-2.846,0.167-5.018,2.606-4.852,5.455c0.168,2.846,2.611,5.018,5.455,4.851l2.258-0.132l0.41,6.996l-22.332,1.309l-0.41-6.996
						l3.188-0.187c2.85-0.167,5.02-2.61,4.854-5.455s-2.607-5.02-5.453-4.854l-14.988,0.878c-2.846,0.169-5.018,2.609-4.852,5.456
						c0.168,2.848,2.605,5.02,5.453,4.853l2.26-0.132l0.41,6.996l-21.094,1.233l-0.406-6.996l3.184-0.187
						c2.848-0.167,5.02-2.61,4.854-5.455c-0.166-2.846-2.609-5.02-5.455-4.854l-14.986,0.879c-2.846,0.166-5.018,2.607-4.852,5.454
						c0.168,2.848,2.609,5.02,5.455,4.854l2.256-0.132l0.41,6.996l-21.879,1.279l-0.41-6.995l3.188-0.188
						c2.846-0.167,5.021-2.61,4.855-5.455c-0.166-2.846-2.609-5.019-5.455-4.853l-14.988,0.879
						c-2.846,0.167-5.021,2.607-4.854,5.455c0.166,2.847,2.607,5.019,5.455,4.852l2.26-0.132l0.408,6.996l-16.012,0.938v0.001
						c-4.688,31.397-29.459,41.501-40.742,44.505l-425.021,88.68c-2.277-7.013-4.553-12.993-6.736-17.247
						c-13.133-25.58,22.873-46.2,22.873-46.2s113.057-41.188,65.17-79.806c-47.887-38.611-116.859,21.576-173.799,53.323
						c-56.939,31.746-112.547,19.604-112.547,19.604c-181.951-64.979-257.078,70.705-257.078,70.705
						c-42.98,77.521,12.313,227.481,12.313,227.481c110.625,234.549,256.816,69.023,256.816,69.023s43.27-51.404,161.449-41.943
						c118.18,9.457,183.52-37.771,172.711-83.884c-10.809-46.111-52.865-22.495-52.865-22.495s-28.939,16.176-63.602-2.233
						c-29.018-15.412-10.744-40.121-4.025-47.76l434.07-86.264c49.922-9.913,69.313,11.699,69.313,11.699l148.523-80.828
						L3444.089,614.205z"/>
				</defs>
				<clipPath id="SVGID_6_">
					<use xlink:href="#SVGID_5_"  overflow="visible"/>
				</clipPath>
				<path clip-path="url(#SVGID_6_)" d="M2363.375,974.551c0,0,33,126.881,166,128.881c0,0-149.494,88.24-206.748-128.881
					C2265.375,757.432,2363.375,974.551,2363.375,974.551z"/>
			</g>
		</g>
	</g>
</g>
<path id="left_hand_1_" fill="#37B6C8" d="M2302.375,603.444c0,0-23,8.985-48,21.985c0,0-47,9.25-56.25,24.5c0,0-6.5,10.75,16.75,14
	c0,0-33,6.75-38.25,20.25c0,0-2,6.75,9.75,8.5c0,0-26.75,5-24,13.25c0,0,2.75,6.25,10.25,7.5c0,0-50.584,38.333-34.584,131
	c0,0-28,27.333-13.332,30.667c0,0,0,4.239,18.666-3.547c0,0-20.666,27.857-10,35.036c0,0-6.156,6.155,15.256,0
	c0,0,81.41,133.176,321.41,58.51c0,0,45.834,31.334,93.334,12.334c0,0,34-17,13.5-49c0,0,26-26.5-3.5-59.5
	c0,0,14.5-54.731-39-50.615c0,0-22-52.569-95-4.479c0,0-77.5,29.81-133-23.299c0,0-13.5-30.107,13.5-54.607L2302.375,603.444z"/>
<path id="right_hand_1_" fill="#37B6C8" d="M2971.375,834.299c0,0,23.666-33.2,25.332-64.533c0,0-23.334,17.479-46,3.405
	c0,0-34.666-26.405,8.668-52.405c0,0,24.334-16.666,59.666-12.666c0,0,11.834-13.609,32.334-6.89c0,0,19.25-14.972,38.5,0
	s66.834,69.931-4.5,191.577c0,0-9.5,14.205-11.25,13.8c0,0,14-1.405,14.5,7.095s-39.5,22-39.5,22s11.5,10,4.25,16s-38,5.5-38,5.5
	s-28.008,31.25-82.008,9.916l-8.666-85.333L2971.375,834.299z"/>
<g id="shadows" opacity="0.06" enable-background="new    ">
	<g>
		<g>
			<g>
				<defs>
					<path id="SVGID_7_" d="M3074.351,906.568c2.213-0.606,11.023-13.781,11.023-13.781c71.334-121.646,23.75-176.604,4.5-191.577
						s-38.5,0-38.5,0c-20.5-6.722-32.334,6.89-32.334,6.89c-35.332-4-59.666,12.666-59.666,12.666
						c-6.045,3.627-10.568,7.265-13.885,10.832c-27.533-53.918-56.789-79.665-56.789-79.665c27.326-9.5-6.826-22.5-6.826-22.5
						c23-11.5-19.5-20.5-19.5-20.5c17.5-21-27-18-27-18c-68-38-121-49.5-121-49.5c-45-434-305-350-305-350c-45-12-41,21-41,21
						c-64-20-41,20-41,20c-76,13-15,27-15,27c-90,87-14,343-14,343c-0.223,0.972-0.436,1.933-0.65,2.896
						c-7.959,3.283-25.113,10.625-43.35,20.104c0,0-47,9.25-56.25,24.5c0,0-6.5,10.75,16.75,14c0,0-33,6.75-38.25,20.25
						c0,0-2,6.75,9.75,8.5c0,0-26.75,5-24,13.25c0,0,2.75,6.25,10.25,7.5c0,0-50.584,38.333-34.584,131c0,0-28,27.333-13.332,30.667
						c0,0,0,4.239,18.666-3.547c0,0-20.666,27.857-10,35.036c0,0-6.156,6.155,15.256,0c0,0,62.76,102.65,240.498,77.173
						c30.465,114.023,13.314,210.27,9.746,186.172c-4-27-61.5-83.5-61.5-83.5c-78-71-156,21-156,21c-60,140-29,237,24.5,258
						s77.5-13.5,77.5-13.5c5,21,36.5,52.5,36.5,52.5c-29-5.5-23,11.5-23,11.5c7.5,11.5,41,8.5,41,8.5c-38.5,3.5-24.5,21-24.5,21
						c9.5,9.5,45.33,5.666,45.33,5.666c67.332,47.334,134.67,43.834,134.67,43.834c-15,10.25-7.75,16.75-7.75,16.75
						c26.5,11.75,42-19.5,42-19.5c-1.5,13.25,9.25,19.25,9.25,19.25c15.5,1,16-24.5,16-24.5c8.25,12,15,10.75,15,10.75
						c19.25-0.5,6.834-35.252,6.834-35.252c10.666-7.334,21.332-21.334,21.332-21.334c136,98.668,170,55.398,170,55.398
						c21.334,51.396,26.668-13.396,26.668-13.396c20,38.668,16.666-18.666,16.666-18.666c52.668-80,63-160,63-160c51,36,14-39,14-39
						c36,25,0-45,0-45c6.512-129.707-12.992-231.096-32.193-296.736c14.666,11.843,53.188,40.205,94.807,48.353c0,0,0,0,0.002,0
						c43.768,10.361,66.389-14.865,66.389-14.865s30.75,0.5,38-5.5s-4.25-16-4.25-16s40-13.5,39.5-22
						C3088.164,905.811,3076.128,906.433,3074.351,906.568z M2980.408,819.521l-12.469-34.788c-0.729-2.139-1.477-4.237-2.227-6.318
						c16.91,1.889,30.992-8.65,30.992-8.65C2995.738,788.039,2987.287,806.934,2980.408,819.521z"/>
				</defs>
				<clipPath id="SVGID_8_">
					<use xlink:href="#SVGID_7_"  overflow="visible"/>
				</clipPath>
				<path clip-path="url(#SVGID_8_)" d="M2400,245.559c0,0-169.367,80.506-123.063,290.851c0,0-145.107-316.351,111.938-377.847
					s253.986,100.495,253.986,100.495S2526.062,199.062,2400,245.559z"/>
			</g>
		</g>
	</g>
	<g>
		<g>
			<g>
				<defs>
					<path id="SVGID_9_" d="M3074.351,906.568c2.213-0.606,11.023-13.781,11.023-13.781c71.334-121.646,23.75-176.604,4.5-191.577
						s-38.5,0-38.5,0c-20.5-6.722-32.334,6.89-32.334,6.89c-35.332-4-59.666,12.666-59.666,12.666
						c-6.045,3.627-10.568,7.265-13.885,10.832c-27.533-53.918-56.789-79.665-56.789-79.665c27.326-9.5-6.826-22.5-6.826-22.5
						c23-11.5-19.5-20.5-19.5-20.5c17.5-21-27-18-27-18c-68-38-121-49.5-121-49.5c-45-434-305-350-305-350c-45-12-41,21-41,21
						c-64-20-41,20-41,20c-76,13-15,27-15,27c-90,87-14,343-14,343c-0.223,0.972-0.436,1.933-0.65,2.896
						c-7.959,3.283-25.113,10.625-43.35,20.104c0,0-47,9.25-56.25,24.5c0,0-6.5,10.75,16.75,14c0,0-33,6.75-38.25,20.25
						c0,0-2,6.75,9.75,8.5c0,0-26.75,5-24,13.25c0,0,2.75,6.25,10.25,7.5c0,0-50.584,38.333-34.584,131c0,0-28,27.333-13.332,30.667
						c0,0,0,4.239,18.666-3.547c0,0-20.666,27.857-10,35.036c0,0-6.156,6.155,15.256,0c0,0,62.76,102.65,240.498,77.173
						c30.465,114.023,13.314,210.27,9.746,186.172c-4-27-61.5-83.5-61.5-83.5c-78-71-156,21-156,21c-60,140-29,237,24.5,258
						s77.5-13.5,77.5-13.5c5,21,36.5,52.5,36.5,52.5c-29-5.5-23,11.5-23,11.5c7.5,11.5,41,8.5,41,8.5c-38.5,3.5-24.5,21-24.5,21
						c9.5,9.5,45.33,5.666,45.33,5.666c67.332,47.334,134.67,43.834,134.67,43.834c-15,10.25-7.75,16.75-7.75,16.75
						c26.5,11.75,42-19.5,42-19.5c-1.5,13.25,9.25,19.25,9.25,19.25c15.5,1,16-24.5,16-24.5c8.25,12,15,10.75,15,10.75
						c19.25-0.5,6.834-35.252,6.834-35.252c10.666-7.334,21.332-21.334,21.332-21.334c136,98.668,170,55.398,170,55.398
						c21.334,51.396,26.668-13.396,26.668-13.396c20,38.668,16.666-18.666,16.666-18.666c52.668-80,63-160,63-160c51,36,14-39,14-39
						c36,25,0-45,0-45c6.512-129.707-12.992-231.096-32.193-296.736c14.666,11.843,53.188,40.205,94.807,48.353c0,0,0,0,0.002,0
						c43.768,10.361,66.389-14.865,66.389-14.865s30.75,0.5,38-5.5s-4.25-16-4.25-16s40-13.5,39.5-22
						C3088.164,905.811,3076.128,906.433,3074.351,906.568z M2980.408,819.521l-12.469-34.788c-0.729-2.139-1.477-4.237-2.227-6.318
						c16.91,1.889,30.992-8.65,30.992-8.65C2995.738,788.039,2987.287,806.934,2980.408,819.521z"/>
				</defs>
				<clipPath id="SVGID_10_">
					<use xlink:href="#SVGID_9_"  overflow="visible"/>
				</clipPath>
				<path clip-path="url(#SVGID_10_)" d="M2388.25,983.932c0,0,9.402-1.398,16.344-2.648
					c-329.979-98.274-135.154-377.837-135.154-377.837c-100.807,7.765-148.979,156.383-148.979,156.383
					c-80.496,272.442,163.033,255.417,265.152,237.296L2388.25,983.932z"/>
			</g>
		</g>
	</g>
	<g>
		<g>
			<g>
				<defs>
					<path id="SVGID_11_" d="M3074.351,906.568c2.213-0.606,11.023-13.781,11.023-13.781c71.334-121.646,23.75-176.604,4.5-191.577
						s-38.5,0-38.5,0c-20.5-6.722-32.334,6.89-32.334,6.89c-35.332-4-59.666,12.666-59.666,12.666
						c-6.045,3.627-10.568,7.265-13.885,10.832c-27.533-53.918-56.789-79.665-56.789-79.665c27.326-9.5-6.826-22.5-6.826-22.5
						c23-11.5-19.5-20.5-19.5-20.5c17.5-21-27-18-27-18c-68-38-121-49.5-121-49.5c-45-434-305-350-305-350c-45-12-41,21-41,21
						c-64-20-41,20-41,20c-76,13-15,27-15,27c-90,87-14,343-14,343c-0.223,0.972-0.436,1.933-0.65,2.896
						c-7.959,3.283-25.113,10.625-43.35,20.104c0,0-47,9.25-56.25,24.5c0,0-6.5,10.75,16.75,14c0,0-33,6.75-38.25,20.25
						c0,0-2,6.75,9.75,8.5c0,0-26.75,5-24,13.25c0,0,2.75,6.25,10.25,7.5c0,0-50.584,38.333-34.584,131c0,0-28,27.333-13.332,30.667
						c0,0,0,4.239,18.666-3.547c0,0-20.666,27.857-10,35.036c0,0-6.156,6.155,15.256,0c0,0,62.76,102.65,240.498,77.173
						c30.465,114.023,13.314,210.27,9.746,186.172c-4-27-61.5-83.5-61.5-83.5c-78-71-156,21-156,21c-60,140-29,237,24.5,258
						s77.5-13.5,77.5-13.5c5,21,36.5,52.5,36.5,52.5c-29-5.5-23,11.5-23,11.5c7.5,11.5,41,8.5,41,8.5c-38.5,3.5-24.5,21-24.5,21
						c9.5,9.5,45.33,5.666,45.33,5.666c67.332,47.334,134.67,43.834,134.67,43.834c-15,10.25-7.75,16.75-7.75,16.75
						c26.5,11.75,42-19.5,42-19.5c-1.5,13.25,9.25,19.25,9.25,19.25c15.5,1,16-24.5,16-24.5c8.25,12,15,10.75,15,10.75
						c19.25-0.5,6.834-35.252,6.834-35.252c10.666-7.334,21.332-21.334,21.332-21.334c136,98.668,170,55.398,170,55.398
						c21.334,51.396,26.668-13.396,26.668-13.396c20,38.668,16.666-18.666,16.666-18.666c52.668-80,63-160,63-160c51,36,14-39,14-39
						c36,25,0-45,0-45c6.512-129.707-12.992-231.096-32.193-296.736c14.666,11.843,53.188,40.205,94.807,48.353c0,0,0,0,0.002,0
						c43.768,10.361,66.389-14.865,66.389-14.865s30.75,0.5,38-5.5s-4.25-16-4.25-16s40-13.5,39.5-22
						C3088.164,905.811,3076.128,906.433,3074.351,906.568z M2980.408,819.521l-12.469-34.788c-0.729-2.139-1.477-4.237-2.227-6.318
						c16.91,1.889,30.992-8.65,30.992-8.65C2995.738,788.039,2987.287,806.934,2980.408,819.521z"/>
				</defs>
				<clipPath id="SVGID_12_">
					<use xlink:href="#SVGID_11_"  overflow="visible"/>
				</clipPath>
				<path clip-path="url(#SVGID_12_)" d="M2287.375,1405.764c125.146-22.912,156.051-243.104,161.625-295.053
					c-33.73-6.844-69.988-31.547-103.955-89.098c-34.553,5.943-58.67,12.814-58.67,12.814
					c-404.883,125.457-48.273,509.26,93.355,476.604C2295.347,1492.012,2287.375,1405.764,2287.375,1405.764z"/>
			</g>
		</g>
	</g>
	<g>
		<g>
			<g>
				<defs>
					<path id="SVGID_13_" d="M3074.351,906.568c2.213-0.606,11.023-13.781,11.023-13.781c71.334-121.646,23.75-176.604,4.5-191.577
						s-38.5,0-38.5,0c-20.5-6.722-32.334,6.89-32.334,6.89c-35.332-4-59.666,12.666-59.666,12.666
						c-6.045,3.627-10.568,7.265-13.885,10.832c-27.533-53.918-56.789-79.665-56.789-79.665c27.326-9.5-6.826-22.5-6.826-22.5
						c23-11.5-19.5-20.5-19.5-20.5c17.5-21-27-18-27-18c-68-38-121-49.5-121-49.5c-45-434-305-350-305-350c-45-12-41,21-41,21
						c-64-20-41,20-41,20c-76,13-15,27-15,27c-90,87-14,343-14,343c-0.223,0.972-0.436,1.933-0.65,2.896
						c-7.959,3.283-25.113,10.625-43.35,20.104c0,0-47,9.25-56.25,24.5c0,0-6.5,10.75,16.75,14c0,0-33,6.75-38.25,20.25
						c0,0-2,6.75,9.75,8.5c0,0-26.75,5-24,13.25c0,0,2.75,6.25,10.25,7.5c0,0-50.584,38.333-34.584,131c0,0-28,27.333-13.332,30.667
						c0,0,0,4.239,18.666-3.547c0,0-20.666,27.857-10,35.036c0,0-6.156,6.155,15.256,0c0,0,62.76,102.65,240.498,77.173
						c30.465,114.023,13.314,210.27,9.746,186.172c-4-27-61.5-83.5-61.5-83.5c-78-71-156,21-156,21c-60,140-29,237,24.5,258
						s77.5-13.5,77.5-13.5c5,21,36.5,52.5,36.5,52.5c-29-5.5-23,11.5-23,11.5c7.5,11.5,41,8.5,41,8.5c-38.5,3.5-24.5,21-24.5,21
						c9.5,9.5,45.33,5.666,45.33,5.666c67.332,47.334,134.67,43.834,134.67,43.834c-15,10.25-7.75,16.75-7.75,16.75
						c26.5,11.75,42-19.5,42-19.5c-1.5,13.25,9.25,19.25,9.25,19.25c15.5,1,16-24.5,16-24.5c8.25,12,15,10.75,15,10.75
						c19.25-0.5,6.834-35.252,6.834-35.252c10.666-7.334,21.332-21.334,21.332-21.334c136,98.668,170,55.398,170,55.398
						c21.334,51.396,26.668-13.396,26.668-13.396c20,38.668,16.666-18.666,16.666-18.666c52.668-80,63-160,63-160c51,36,14-39,14-39
						c36,25,0-45,0-45c6.512-129.707-12.992-231.096-32.193-296.736c14.666,11.843,53.188,40.205,94.807,48.353c0,0,0,0,0.002,0
						c43.768,10.361,66.389-14.865,66.389-14.865s30.75,0.5,38-5.5s-4.25-16-4.25-16s40-13.5,39.5-22
						C3088.164,905.811,3076.128,906.433,3074.351,906.568z M2980.408,819.521l-12.469-34.788c-0.729-2.139-1.477-4.237-2.227-6.318
						c16.91,1.889,30.992-8.65,30.992-8.65C2995.738,788.039,2987.287,806.934,2980.408,819.521z"/>
				</defs>
				<clipPath id="SVGID_14_">
					<use xlink:href="#SVGID_13_"  overflow="visible"/>
				</clipPath>
				<path clip-path="url(#SVGID_14_)" d="M2616.042,1474.43c0,0,116.002-110,53.334-302c0,0,36.248,145.504-71.875,271.752
					c-108.125,126.248,0,0,0,0L2616.042,1474.43z"/>
			</g>
		</g>
	</g>
	<g>
		<g>
			<g>
				<defs>
					<path id="SVGID_15_" d="M3074.351,906.568c2.213-0.606,11.023-13.781,11.023-13.781c71.334-121.646,23.75-176.604,4.5-191.577
						s-38.5,0-38.5,0c-20.5-6.722-32.334,6.89-32.334,6.89c-35.332-4-59.666,12.666-59.666,12.666
						c-6.045,3.627-10.568,7.265-13.885,10.832c-27.533-53.918-56.789-79.665-56.789-79.665c27.326-9.5-6.826-22.5-6.826-22.5
						c23-11.5-19.5-20.5-19.5-20.5c17.5-21-27-18-27-18c-68-38-121-49.5-121-49.5c-45-434-305-350-305-350c-45-12-41,21-41,21
						c-64-20-41,20-41,20c-76,13-15,27-15,27c-90,87-14,343-14,343c-0.223,0.972-0.436,1.933-0.65,2.896
						c-7.959,3.283-25.113,10.625-43.35,20.104c0,0-47,9.25-56.25,24.5c0,0-6.5,10.75,16.75,14c0,0-33,6.75-38.25,20.25
						c0,0-2,6.75,9.75,8.5c0,0-26.75,5-24,13.25c0,0,2.75,6.25,10.25,7.5c0,0-50.584,38.333-34.584,131c0,0-28,27.333-13.332,30.667
						c0,0,0,4.239,18.666-3.547c0,0-20.666,27.857-10,35.036c0,0-6.156,6.155,15.256,0c0,0,62.76,102.65,240.498,77.173
						c30.465,114.023,13.314,210.27,9.746,186.172c-4-27-61.5-83.5-61.5-83.5c-78-71-156,21-156,21c-60,140-29,237,24.5,258
						s77.5-13.5,77.5-13.5c5,21,36.5,52.5,36.5,52.5c-29-5.5-23,11.5-23,11.5c7.5,11.5,41,8.5,41,8.5c-38.5,3.5-24.5,21-24.5,21
						c9.5,9.5,45.33,5.666,45.33,5.666c67.332,47.334,134.67,43.834,134.67,43.834c-15,10.25-7.75,16.75-7.75,16.75
						c26.5,11.75,42-19.5,42-19.5c-1.5,13.25,9.25,19.25,9.25,19.25c15.5,1,16-24.5,16-24.5c8.25,12,15,10.75,15,10.75
						c19.25-0.5,6.834-35.252,6.834-35.252c10.666-7.334,21.332-21.334,21.332-21.334c136,98.668,170,55.398,170,55.398
						c21.334,51.396,26.668-13.396,26.668-13.396c20,38.668,16.666-18.666,16.666-18.666c52.668-80,63-160,63-160c51,36,14-39,14-39
						c36,25,0-45,0-45c6.512-129.707-12.992-231.096-32.193-296.736c14.666,11.843,53.188,40.205,94.807,48.353c0,0,0,0,0.002,0
						c43.768,10.361,66.389-14.865,66.389-14.865s30.75,0.5,38-5.5s-4.25-16-4.25-16s40-13.5,39.5-22
						C3088.164,905.811,3076.128,906.433,3074.351,906.568z M2980.408,819.521l-12.469-34.788c-0.729-2.139-1.477-4.237-2.227-6.318
						c16.91,1.889,30.992-8.65,30.992-8.65C2995.738,788.039,2987.287,806.934,2980.408,819.521z"/>
				</defs>
				<clipPath id="SVGID_16_">
					<use xlink:href="#SVGID_15_"  overflow="visible"/>
				</clipPath>
				<g clip-path="url(#SVGID_16_)">
					<path d="M2916.542,925.532c0.471,1.494,0.908,3.063,1.299,4.733c4.877,20.805-5.752,41.833-29.729,57.782
						c60.895,18.086,135.898-13.498,135.898-13.498C2981.505,972.842,2945.455,951.956,2916.542,925.532z"/>
					<g>
						<path d="M2856.505,911.182c5.367-1.683,8.473-3.406,8.473-3.406s14.695-8.25,28.947-5.476
							c-16.77-19.204-30.195-39.184-40.063-55.751l-9.879,1.963C2848.417,868.508,2852.75,890.755,2856.505,911.182z"/>
						<path fill="#F3C38A" d="M3444.089,614.205l-201.654,11.817v0.001c-4.689,31.396-29.459,41.501-40.74,44.505l-497.758,103.851
							c-9.723,58.831,24.121,97.172,24.121,97.172l115.928-23.038l9.879-1.963l377.559-75.034
							c49.924-9.913,69.313,11.699,69.313,11.699l148.523-80.828L3444.089,614.205z"/>
					</g>
				</g>
			</g>
		</g>
	</g>
</g>
<g id="face">
	<path opacity="0.3" enable-background="new    " d="M2452.406,395.863c-80.549-35.799-122.246-44.948-123.982-45.32
		c-2.705-0.578-5.354,1.141-5.936,3.84c-0.578,2.699,1.139,5.357,3.838,5.938c0.381,0.082,35.688,7.863,102.471,36.19
		c-28.609,2.789-73.277,9.475-79.916,10.478c-2.73,0.412-4.611,2.96-4.199,5.689c0.375,2.479,2.508,4.254,4.939,4.254
		c0.248,0,0.498-0.019,0.752-0.057c19.924-3.008,46.438-6.708,67.244-9.113c-24.889,10.425-58.734,26.508-78.541,43.914
		c-2.074,1.823-2.279,4.982-0.455,7.058c0.986,1.125,2.367,1.698,3.758,1.698c1.172,0,2.348-0.41,3.299-1.244
		c31.877-28.013,105.596-53.774,106.336-54.031l11.967-4.15L2452.406,395.863z"/>
	<path opacity="0.3" enable-background="new    " d="M2614.929,397.214c-27.807-6-68.072-9.309-90.656-10.797
		c34.777-16.387,90.967-25.232,91.617-25.333c2.729-0.422,4.6-2.977,4.176-5.706s-2.973-4.602-5.705-4.177
		c-2.584,0.4-52.949,8.328-88.91,23.735c26.061-28.312,70.539-60.296,71.086-60.688c2.246-1.607,2.762-4.731,1.154-6.976
		c-1.607-2.246-4.732-2.762-6.977-1.155c-2.799,2.003-68.691,49.389-87.836,81.674c-0.002,0.006-0.006,0.012-0.01,0.017
		c-0.016,0.027-0.033,0.055-0.051,0.082l-4.225,7.154l8.301,0.383c0.666,0.031,67.045,3.172,105.926,11.563
		c0.355,0.077,0.709,0.112,1.061,0.112c2.303,0,4.377-1.603,4.883-3.945C2619.345,400.457,2617.628,397.796,2614.929,397.214z"/>
	<path opacity="0.3" enable-background="new    " d="M2467.935,456.918L2467.935,456.918c-1.553,0-3.229-0.254-4.982-0.756
		c-7.572-2.164-9.453-6.957-9.9-9.621c-1.514-9.028,9.152-17.585,13.811-20.845l7.475-5.232l3.117,8.574
		c1.678,4.612,5.055,16.087,0.197,23.021C2475.457,455.193,2472.005,456.918,2467.935,456.918z"/>
	<path opacity="0.3" enable-background="new    " d="M2507.419,452.435L2507.419,452.435l-0.426-0.004
		c-6.582-0.124-10.322-3.298-12.301-5.938c-5.883-7.855-2.967-20.039-2.32-22.401l1.918-7.035l6.949,2.204
		c9.668,3.065,20.262,14.669,18.844,23.843C2519.384,447.614,2515.691,452.435,2507.419,452.435z"/>
	<path id="mouth_1_" fill="#FFFFFF" d="M2416.875,475.432c0,0-94.5,0.5-82.5,71.5s117.25,73,148.875,41s59.625-36,92.625-31.5
		s75.5-17,65.5-67s-78.5-25-88-14s-33.75,21.5-70.125,8.5S2416.875,475.432,2416.875,475.432z"/>
	<g opacity="0.2" enable-background="new    ">
		<g>
			<g>
				<g>
					<defs>
						<path id="SVGID_17_" d="M2416.875,475.432c0,0-94.5,0.5-82.5,71.5s117.25,73,148.875,41s59.625-36,92.625-31.5
							s75.5-17,65.5-67s-78.5-25-88-14s-33.75,21.5-70.125,8.5S2416.875,475.432,2416.875,475.432z"/>
					</defs>
					<clipPath id="SVGID_18_">
						<use xlink:href="#SVGID_17_"  overflow="visible"/>
					</clipPath>
					<polygon clip-path="url(#SVGID_18_)" points="2635.558,474.034 2611.064,519.39 2578.958,493.692 2574.167,512.075 
						2552.085,504.972 2577.414,519.642 2582.207,503.625 2612.392,527.279 2643.572,484.179 					"/>
				</g>
			</g>
		</g>
		<g>
			<g>
				<g>
					<defs>
						<path id="SVGID_19_" d="M2416.875,475.432c0,0-94.5,0.5-82.5,71.5s117.25,73,148.875,41s59.625-36,92.625-31.5
							s75.5-17,65.5-67s-78.5-25-88-14s-33.75,21.5-70.125,8.5S2416.875,475.432,2416.875,475.432z"/>
					</defs>
					<clipPath id="SVGID_20_">
						<use xlink:href="#SVGID_19_"  overflow="visible"/>
					</clipPath>
					<polygon clip-path="url(#SVGID_20_)" points="2333.324,512.932 2380.875,558.432 2404.875,512.932 2440.375,540.432 
						2407.375,521.932 2383.375,570.932 2329.875,521.932 					"/>
				</g>
			</g>
		</g>
	</g>
</g>
<g>
	<g>
		<g>
			<g>
				<defs>
					<path id="SVGID_21_" d="M2302.375,603.444c0,0-23,8.985-48,21.985c0,0-47,9.25-56.25,24.5c0,0-6.5,10.75,16.75,14
						c0,0-33,6.75-38.25,20.25c0,0-2,6.75,9.75,8.5c0,0-26.75,5-24,13.25c0,0,2.75,6.25,10.25,7.5c0,0-50.584,38.333-34.584,131
						c0,0-28,27.333-13.332,30.667c0,0,0,4.239,18.666-3.547c0,0-20.666,27.857-10,35.036c0,0-6.156,6.155,15.256,0
						c0,0,81.41,133.176,321.41,58.51c0,0,45.834,31.334,93.334,12.334c0,0,34-17,13.5-49c0,0,26-26.5-3.5-59.5
						c0,0,14.5-54.731-39-50.615c0,0-22-52.569-95-4.479c0,0-77.5,29.81-133-23.299c0,0-13.5-30.107,13.5-54.607L2302.375,603.444z"
						/>
				</defs>
				<clipPath id="SVGID_22_">
					<use xlink:href="#SVGID_21_"  overflow="visible"/>
				</clipPath>
				
					<path clip-path="url(#SVGID_22_)" fill="none" stroke="#000000" stroke-width="6" stroke-linecap="round" stroke-miterlimit="10" stroke-opacity="0.3" d="
					M2535.566,815.475c0,0-27.334,5.45-52.666,4.784"/>
			</g>
		</g>
	</g>
	<g>
		<g>
			<g>
				<defs>
					<path id="SVGID_23_" d="M2302.375,603.444c0,0-23,8.985-48,21.985c0,0-47,9.25-56.25,24.5c0,0-6.5,10.75,16.75,14
						c0,0-33,6.75-38.25,20.25c0,0-2,6.75,9.75,8.5c0,0-26.75,5-24,13.25c0,0,2.75,6.25,10.25,7.5c0,0-50.584,38.333-34.584,131
						c0,0-28,27.333-13.332,30.667c0,0,0,4.239,18.666-3.547c0,0-20.666,27.857-10,35.036c0,0-6.156,6.155,15.256,0
						c0,0,81.41,133.176,321.41,58.51c0,0,45.834,31.334,93.334,12.334c0,0,34-17,13.5-49c0,0,26-26.5-3.5-59.5
						c0,0,14.5-54.731-39-50.615c0,0-22-52.569-95-4.479c0,0-77.5,29.81-133-23.299c0,0-13.5-30.107,13.5-54.607L2302.375,603.444z"
						/>
				</defs>
				<clipPath id="SVGID_24_">
					<use xlink:href="#SVGID_23_"  overflow="visible"/>
				</clipPath>
				
					<path clip-path="url(#SVGID_24_)" fill="none" stroke="#000000" stroke-width="6" stroke-linecap="round" stroke-miterlimit="10" stroke-opacity="0.3" d="
					M2576.375,868.432c0,0-7.52,4.238-51.594,3.119"/>
			</g>
		</g>
	</g>
	<g>
		<g>
			<g>
				<defs>
					<path id="SVGID_25_" d="M2302.375,603.444c0,0-23,8.985-48,21.985c0,0-47,9.25-56.25,24.5c0,0-6.5,10.75,16.75,14
						c0,0-33,6.75-38.25,20.25c0,0-2,6.75,9.75,8.5c0,0-26.75,5-24,13.25c0,0,2.75,6.25,10.25,7.5c0,0-50.584,38.333-34.584,131
						c0,0-28,27.333-13.332,30.667c0,0,0,4.239,18.666-3.547c0,0-20.666,27.857-10,35.036c0,0-6.156,6.155,15.256,0
						c0,0,81.41,133.176,321.41,58.51c0,0,45.834,31.334,93.334,12.334c0,0,34-17,13.5-49c0,0,26-26.5-3.5-59.5
						c0,0,14.5-54.731-39-50.615c0,0-22-52.569-95-4.479c0,0-77.5,29.81-133-23.299c0,0-13.5-30.107,13.5-54.607L2302.375,603.444z"
						/>
				</defs>
				<clipPath id="SVGID_26_">
					<use xlink:href="#SVGID_25_"  overflow="visible"/>
				</clipPath>
				
					<path clip-path="url(#SVGID_26_)" fill="none" stroke="#000000" stroke-width="6" stroke-linecap="round" stroke-miterlimit="10" stroke-opacity="0.3" d="
					M2584.375,927.432c0,0-3.668,4.333-51.668,0"/>
			</g>
		</g>
	</g>
</g>
<g>
	<g>
		<g>
			<g>
				<defs>
					<path id="SVGID_27_" d="M2971.375,834.299c0,0,23.666-33.2,25.332-64.533c0,0-23.334,17.479-46,3.405
						c0,0-34.666-26.405,8.668-52.405c0,0,24.334-16.666,59.666-12.666c0,0,11.834-13.609,32.334-6.89c0,0,19.25-14.972,38.5,0
						s66.834,69.931-4.5,191.577c0,0-9.5,14.205-11.25,13.8c0,0,14-1.405,14.5,7.095s-39.5,22-39.5,22s11.5,10,4.25,16
						s-38,5.5-38,5.5s-28.008,31.25-82.008,9.916l-8.666-85.333L2971.375,834.299z"/>
				</defs>
				<clipPath id="SVGID_28_">
					<use xlink:href="#SVGID_27_"  overflow="visible"/>
				</clipPath>
				
					<path clip-path="url(#SVGID_28_)" fill="none" stroke="#000000" stroke-width="6" stroke-linecap="round" stroke-miterlimit="10" stroke-opacity="0.3" d="
					M3009.875,703.682c0,0,39.5,5.086,29.166,95.419"/>
			</g>
		</g>
	</g>
	<g>
		<g>
			<g>
				<defs>
					<path id="SVGID_29_" d="M2971.375,834.299c0,0,23.666-33.2,25.332-64.533c0,0-23.334,17.479-46,3.405
						c0,0-34.666-26.405,8.668-52.405c0,0,24.334-16.666,59.666-12.666c0,0,11.834-13.609,32.334-6.89c0,0,19.25-14.972,38.5,0
						s66.834,69.931-4.5,191.577c0,0-9.5,14.205-11.25,13.8c0,0,14-1.405,14.5,7.095s-39.5,22-39.5,22s11.5,10,4.25,16
						s-38,5.5-38,5.5s-28.008,31.25-82.008,9.916l-8.666-85.333L2971.375,834.299z"/>
				</defs>
				<clipPath id="SVGID_30_">
					<use xlink:href="#SVGID_29_"  overflow="visible"/>
				</clipPath>
				
					<path clip-path="url(#SVGID_30_)" fill="none" stroke="#000000" stroke-width="6" stroke-linecap="round" stroke-miterlimit="10" stroke-opacity="0.3" d="
					M3050.042,698.104c0,0,38.668,14.873,32.668,92.438"/>
			</g>
		</g>
	</g>
</g>
<g>
	<g>
		<g>
			<g>
				<defs>
					<path id="SVGID_31_" d="M2996.708,865.012l-28.77-80.275c-1.314-3.85-2.666-7.604-4.041-11.276l-0.104-0.287l-0.004,0.001
						c-30.875-82.33-75.09-121.239-75.09-121.239c27.322-9.5-6.826-22.5-6.826-22.5c23-11.5-19.5-20.5-19.5-20.5
						c17.5-21-27-18-27-18c-68-38-121-49.5-121-49.5c-45-434-305-350-305-350c-45-12-41,21-41,21c-64-20-41,20-41,20
						c-76,13-15,27-15,27c-90,87-14,343-14,343c-56.563,245.882,77.561,339.5,77.561,339.5
						c47.998,130.902,26.939,255.001,22.939,228.001s-61.5-83.5-61.5-83.5c-78-71-156,21-156,21c-60,140-29,237,24.5,258
						s77.5-13.5,77.5-13.5c5,21,36.5,52.5,36.5,52.5c-29-5.5-23,11.5-23,11.5c7.5,11.5,41,8.5,41,8.5c-38.5,3.5-24.5,21-24.5,21
						c9.5,9.5,45.33,5.668,45.33,5.668c67.332,47.334,134.67,43.832,134.67,43.832c-15,10.25-7.75,16.75-7.75,16.75
						c26.5,11.75,42-19.5,42-19.5c-1.5,13.25,9.25,19.25,9.25,19.25c15.5,1,16-24.5,16-24.5c8.25,12,15,10.75,15,10.75
						c19.25-0.5,6.834-35.252,6.834-35.252c10.666-7.334,21.332-21.332,21.332-21.332c136,98.666,170,55.397,170,55.397
						c21.334,51.396,26.668-13.396,26.668-13.396c20,38.666,16.666-18.668,16.666-18.668c52.668-80,63-160,63-160c51,36,14-39,14-39
						c36,25,0-45,0-45c6.512-129.707-12.992-231.095-32.193-296.736c14.666,11.843,53.186,40.204,94.805,48.352
						c46.238,9.054,24.316-74.02,17.93-95.497L2996.708,865.012z"/>
				</defs>
				<clipPath id="SVGID_32_">
					<use xlink:href="#SVGID_31_"  overflow="visible"/>
				</clipPath>
				
					<path display="none" clip-path="url(#SVGID_32_)" fill="none" stroke="#A3A3A3" stroke-width="6" stroke-linecap="round" stroke-miterlimit="10" d="
					M2597.5,1444.182c0,0,89.541-100.75,73.541-239.416"/>
			</g>
		</g>
	</g>
	<g>
		<g>
			<g>
				<defs>
					<path id="SVGID_33_" d="M2996.708,865.012l-28.77-80.275c-1.314-3.85-2.666-7.604-4.041-11.276l-0.104-0.287l-0.004,0.001
						c-30.875-82.33-75.09-121.239-75.09-121.239c27.322-9.5-6.826-22.5-6.826-22.5c23-11.5-19.5-20.5-19.5-20.5
						c17.5-21-27-18-27-18c-68-38-121-49.5-121-49.5c-45-434-305-350-305-350c-45-12-41,21-41,21c-64-20-41,20-41,20
						c-76,13-15,27-15,27c-90,87-14,343-14,343c-56.563,245.882,77.561,339.5,77.561,339.5
						c47.998,130.902,26.939,255.001,22.939,228.001s-61.5-83.5-61.5-83.5c-78-71-156,21-156,21c-60,140-29,237,24.5,258
						s77.5-13.5,77.5-13.5c5,21,36.5,52.5,36.5,52.5c-29-5.5-23,11.5-23,11.5c7.5,11.5,41,8.5,41,8.5c-38.5,3.5-24.5,21-24.5,21
						c9.5,9.5,45.33,5.668,45.33,5.668c67.332,47.334,134.67,43.832,134.67,43.832c-15,10.25-7.75,16.75-7.75,16.75
						c26.5,11.75,42-19.5,42-19.5c-1.5,13.25,9.25,19.25,9.25,19.25c15.5,1,16-24.5,16-24.5c8.25,12,15,10.75,15,10.75
						c19.25-0.5,6.834-35.252,6.834-35.252c10.666-7.334,21.332-21.332,21.332-21.332c136,98.666,170,55.397,170,55.397
						c21.334,51.396,26.668-13.396,26.668-13.396c20,38.666,16.666-18.668,16.666-18.668c52.668-80,63-160,63-160c51,36,14-39,14-39
						c36,25,0-45,0-45c6.512-129.707-12.992-231.095-32.193-296.736c14.666,11.843,53.186,40.204,94.805,48.352
						c46.238,9.054,24.316-74.02,17.93-95.497L2996.708,865.012z"/>
				</defs>
				<clipPath id="SVGID_34_">
					<use xlink:href="#SVGID_33_"  overflow="visible"/>
				</clipPath>
				
					<path clip-path="url(#SVGID_34_)" fill="none" stroke="#000000" stroke-width="6" stroke-linecap="round" stroke-miterlimit="10" stroke-opacity="0.3" d="
					M2281.375,1354.932c0,0-56.334-92.502-70.334-136.168"/>
			</g>
		</g>
	</g>
</g>
<g id="left_nails_1_">
	<path fill="#FFF47F" d="M2168.708,1325.766l-3.332,38.666l22.666-19.332C2188.042,1345.1,2190.042,1332.432,2168.708,1325.766z"/>
	<path fill="#FFF47F" d="M2209.375,1361.766v26.666l20.666-20.666C2230.042,1367.766,2222.708,1357.098,2209.375,1361.766z"/>
	<path fill="#FFF47F" d="M2250.708,1364.432l5.334,24l11.334-27.848C2267.375,1360.584,2258.042,1355.766,2250.708,1364.432z"/>
</g>
<polygon opacity="0.3" enable-background="new    " points="2365,321.237 2448.525,359.237 2377.5,297.237 "/>
<polygon opacity="0.3" enable-background="new    " points="2550.972,279.223 2493.3,350.601 2529.048,263.36 "/>
</svg>
