<?xml version="1.0" encoding="utf-8"?>
<!-- Generator: Adobe Illustrator 16.0.0, SVG Export Plug-In . SVG Version: 6.00 Build 0)  -->
<!DOCTYPE svg PUBLIC "-//W3C//DTD SVG 1.1//EN" "http://www.w3.org/Graphics/SVG/1.1/DTD/svg11.dtd">
<svg version="1.1" id="Layer_1" xmlns="http://www.w3.org/2000/svg" xmlns:xlink="http://www.w3.org/1999/xlink" x="0px" y="0px"
	 width="1322.888px" height="1481.059px" viewBox="162.699 154.705 1322.888 1481.059"
	 enable-background="new 162.699 154.705 1322.888 1481.059" xml:space="preserve">
<g id="sitting">
	<g id="right_nails">
		<path fill="#FFF47F" d="M1053.708,1247.432c0,0,18.668-19.668,39.334-29.668c0,0,2.332,19.334-5.668,36
			C1079.374,1270.432,1053.708,1247.432,1053.708,1247.432z"/>
		<path fill="#FFF47F" d="M1124.375,1254.432c0,0,14.666-22.334,31-22.334c0,0,2.332,24.666-7,39.334
			C1139.042,1286.098,1124.375,1254.432,1124.375,1254.432z"/>
		<path fill="#FFF47F" d="M1164.375,1290.098c0,0,12-12.576,27-14.787c0,0-1.668,22.121-13.5,35.121
			C1166.042,1323.432,1164.375,1290.098,1164.375,1290.098z"/>
	</g>
	<g>
		<path fill="#37B6C8" d="M1043.375,1240.432c-18,4-36.668,24.271-36.668,24.271c-47.332-55.072-120.719-153.602-120.719-153.602
			c3.656-35.904,9.229-154.479,11.393-202.189c-40.109-6.361-207.213-26.854-312.006,52.854c-2.239,1.703-4.348,3.438-6.357,5.188
			C507.115,926.3,406.792,917.575,344.041,991.1c0,0-68,128.666-3.333,217.332c64.667,88.668,148.667,46,148.667,46
			s85.166-31.559,137.127-87.646c27.409,27.521,51.54,45.646,51.54,45.646c83.334,73.334,102.334,124.498,102.334,124.498
			c3-3,6.998-9.823,6.998-9.823c49.332,38.666,114.666,137.334,114.666,137.334c56,121.332,160,76.666,160,76.666
			c148.668-114.668,130.668-220.284,130.668-220.284C1146.04,1208.532,1061.375,1236.432,1043.375,1240.432z"/>
		<path fill="#37B6C8" d="M1260.428,589.885c-80-29.5-186-35.5-186-35.5c13-31.5-25.5-3.5-25.5-3.5c-3.5-34.5-49,3.5-49,3.5
			c-18.58-0.266-59.42,9.755-93.654,19.216V573.6c-19.146,5.292-36.219,10.404-46.178,13.448l-0.846-2.046
			c21.334-190.667-56-326.667-56-326.667c-107.332-164-289.417-80.249-289.417-80.249s-21-8.375-32.375,0s2.125,17,2.125,17
			s-19.25-3.875-29.125,8.875s20.292,16.248,20.292,16.248l-0.167,0.128c0,0-70.339-17.379-62.84,354.604
			c0,0-99.161,39.396-148.494,82.063c0,0-55.333,8.666-17.333,26.666c0,0-44,4-18.667,23.333c0,0-16.66,16.313-33.309,41.974
			l148.376,34.287l7.929,37.664l41.976-40.729l96.361-6.857l315.333,88.326l94.637-25.81V792.65c0,0,33.869-17.167,47.021-17.693
			c3.002-1.091,5.979-2.162,8.934-3.212v0.002c193.709-68.951,283.268-55.693,283.268-55.693c1.02,6.029,3.363,10.961,6.354,14.997
			l53.271-35.606c-12.189-19.418,8.043-37.057,8.043-37.057c8.203,0.425,18.264,3.496,24.564,5.708l41.959-85.756
			C1313.112,567.594,1260.428,589.885,1260.428,589.885z"/>
	</g>
	<g opacity="0.2" enable-background="new    ">
		<g>
			<g>
				<g>
					<g>
						<g>
							<g>
								<g>
									<g>
										<g>
											<defs>
												<path id="SVGID_1_" d="M1192.708,1320.817c-46.668-112.285-131.332-84.393-149.332-80.393s-36.668,24.271-36.668,24.271
													c-47.332-55.072-120.719-153.6-120.719-153.6c3.656-35.907,9.23-154.479,11.393-202.191
													c-40.104-6.361-207.213-26.854-312,52.854c-119.748,91.093,92.667,250.67,92.667,250.67
													c83.334,73.334,102.334,124.498,102.334,124.498c3-3,6.998-9.825,6.998-9.825
													c49.332,38.666,114.666,137.334,114.666,137.334c56,121.332,160,76.666,160,76.666
													C1210.708,1426.436,1192.708,1320.817,1192.708,1320.817z"/>
											</defs>
											<clipPath id="SVGID_2_">
												<use xlink:href="#SVGID_1_"  overflow="visible"/>
											</clipPath>
											<path clip-path="url(#SVGID_2_)" d="M1193.391,1342.432c0,0-53.35-106.244-139.684-67.121
												c-86.334,39.121-173.332,320.037-67.332,306.078C1092.375,1567.432,1226.254,1416.403,1193.391,1342.432z"/>
										</g>
									</g>
								</g>
							</g>
						</g>
					</g>
				</g>
			</g>
		</g>
	</g>
	<path id="right_thumb" fill="#37B6C8" d="M1269.43,745.719c23.332,10,47.332,8.333,56-8.333c8.666-16.666-9-27-9-27
		c-10.264-5.543-16.51-11.313-20.043-16.951l-53.268,35.614C1252.852,742.194,1269.43,745.719,1269.43,745.719z"/>
	<g id="guitar">
		<path fill="#9B2139" d="M349.474,814.393c0,0,82.938-131.054,260.774-55.545c0,0,54.803,15.374,113.5-12.979
			c58.697-28.362,131.074-84.414,176.619-43.065c45.545,41.354-69.73,75.854-69.73,75.854s-37.146,18.479-25.531,44.773
			c11.609,26.313,22.9,115.03,22.9,115.03s-34.604,29.704-1.084,50.11c33.523,20.404,63.361,5.951,63.361,5.951
			s43.365-21.115,51.457,25.549c8.094,46.664-59.896,89.99-177.322,73.637c-117.422-16.357-163.625,32.428-163.625,32.428
			s-155.625,156.689-252.34-83.93C348.458,1042.208,302.029,889.267,349.474,814.393z"/>
		<path id="pickups" fill="#333333" d="M723.551,953.362c1.311,8.391-4.434,16.252-12.824,17.561l0,0
			c-8.391,1.313-16.254-4.436-17.561-12.826l-14.357-92.134c-1.309-8.391,4.436-16.253,12.824-17.561l0,0
			c8.393-1.313,16.252,4.435,17.563,12.817L723.551,953.362z"/>
		<path fill="#F3C38A" d="M1283.583,735.338c-6.52,31.069-31.838,39.707-43.275,42.046L737.329,851.94
			c-13.146,58.152,18.395,98.417,18.395,98.417l508.355-70.417c50.414-6.979,68.508,15.729,68.508,15.729l153-72v-88.334
			L1283.583,735.338L1283.583,735.338z"/>
		<g id="pegs">
			<path fill="#999999" d="M1312.374,718.005h-15.014c-2.855,0-5.162,2.313-5.162,5.162s2.311,5.162,5.162,5.162h2.26v13.145
				c0,2.646,2.141,4.781,4.781,4.781s4.777-2.141,4.777-4.781v-13.145h3.191c2.85,0,5.162-2.313,5.162-5.162
				C1317.534,720.316,1315.223,718.005,1312.374,718.005z"/>
			<path fill="#999999" d="M1343.848,718.005h-15.014c-2.85,0-5.162,2.313-5.162,5.162s2.314,5.162,5.162,5.162h2.262v13.145
				c0,2.646,2.145,4.781,4.779,4.781c2.643,0,4.781-2.141,4.781-4.781v-13.145h3.188c2.855,0,5.162-2.313,5.162-5.162
				S1346.698,718.005,1343.848,718.005z"/>
			<path fill="#999999" d="M1374.536,718.005h-15.014c-2.854,0-5.16,2.313-5.16,5.162s2.311,5.162,5.16,5.162h2.262v13.145
				c0,2.646,2.141,4.781,4.781,4.781c2.639,0,4.777-2.141,4.777-4.781v-13.145h3.191c2.85,0,5.162-2.313,5.162-5.162
				S1377.387,718.005,1374.536,718.005z"/>
			<path fill="#999999" d="M1406.467,718.005h-15.014c-2.855,0-5.162,2.313-5.162,5.162s2.313,5.162,5.162,5.162h2.26v13.145
				c0,2.646,2.143,4.781,4.781,4.781c2.641,0,4.781-2.141,4.781-4.781v-13.145h3.188c2.855,0,5.162-2.313,5.162-5.162
				C1411.627,720.316,1409.317,718.005,1406.467,718.005z"/>
			<path fill="#999999" d="M1437.942,718.005h-15.016c-2.852,0-5.162,2.313-5.162,5.162s2.313,5.162,5.162,5.162h2.264v13.145
				c0,2.646,2.141,4.781,4.777,4.781c2.645,0,4.779-2.141,4.779-4.781v-13.145h3.193c2.85,0,5.16-2.313,5.16-5.162
				S1440.792,718.005,1437.942,718.005z"/>
			<path fill="#999999" d="M1468.629,718.005h-15.012c-2.855,0-5.162,2.313-5.162,5.162s2.311,5.162,5.162,5.162h2.26v13.145
				c0,2.646,2.143,4.781,4.781,4.781c2.641,0,4.779-2.141,4.779-4.781v-13.145h3.188c2.855,0,5.162-2.313,5.162-5.162
				S1471.481,718.005,1468.629,718.005z"/>
			<circle fill="#999999" cx="1303.985" cy="768.073" r="8.401"/>
			<circle fill="#999999" cx="1334.985" cy="768.073" r="8.401"/>
			<circle fill="#999999" cx="1365.985" cy="768.073" r="8.401"/>
			<circle fill="#999999" cx="1398.985" cy="768.073" r="8.401"/>
			<circle fill="#999999" cx="1429.985" cy="768.073" r="8.401"/>
			<circle fill="#999999" cx="1460.985" cy="768.073" r="8.401"/>
		</g>
		<g>
			<g>
				<g>
					<g>
						<g>
							<g>
								<g>
									<g>
										<g>
											<g>
												<g>
													<g>
														<defs>
															<path id="SVGID_3_" d="M1283.583,735.338c-6.52,31.069-31.838,39.707-43.275,42.046L737.329,851.94
																c-13.146,58.152,18.395,98.417,18.395,98.417l508.355-70.417c50.414-6.979,68.508,15.729,68.508,15.729l153-72
																v-88.334L1283.583,735.338L1283.583,735.338z"/>
														</defs>
														<clipPath id="SVGID_4_">
															<use xlink:href="#SVGID_3_"  overflow="visible"/>
														</clipPath>
														
															<line clip-path="url(#SVGID_4_)" fill="none" stroke="#000000" stroke-width="5" stroke-miterlimit="10" stroke-opacity="0.2" x1="1244.083" y1="771.744" x2="1262.083" y2="890.838"/>
													</g>
												</g>
											</g>
										</g>
									</g>
								</g>
							</g>
						</g>
					</g>
				</g>
			</g>
		</g>
		<g id="strings">
			
				<line fill="none" stroke="#C78B2B" stroke-width="6" stroke-miterlimit="10" x1="510.586" y1="898.672" x2="1247.395" y2="792.65"/>
			
				<line fill="none" stroke="#C78B2B" stroke-width="6" stroke-miterlimit="10" x1="512.586" y1="914.672" x2="1249.395" y2="808.65"/>
			
				<line fill="none" stroke="#C78B2B" stroke-width="5" stroke-miterlimit="10" x1="514.586" y1="929.672" x2="1251.395" y2="823.65"/>
			
				<line fill="none" stroke="#C78B2B" stroke-width="4" stroke-miterlimit="10" x1="516.586" y1="943.672" x2="1253.395" y2="837.65"/>
			
				<line fill="none" stroke="#C78B2B" stroke-width="3" stroke-miterlimit="10" x1="517.586" y1="957.67" x2="1254.395" y2="851.65"/>
			
				<line fill="none" stroke="#C78B2B" stroke-width="3" stroke-miterlimit="10" x1="520.586" y1="971.67" x2="1257.395" y2="865.65"/>
		</g>
	</g>
	<path fill="#37B6C8" d="M1413.217,592.289c-14.371-7.333-29.051-11.896-43.361-14.509L1328,663.323
		c3.678,1.29,6.08,2.286,6.08,2.286c25.604,8.646,35.246,53.862,9.313,61.181c-25.938,7.315-10.975,21.946-10.975,21.946
		c34.914,17.955,66.084-8.313,66.084-8.313c32.17-5.731,36.16-23.771,36.16-23.771
		C1511.307,649.146,1413.217,592.289,1413.217,592.289z"/>
	<g id="right_fingers">
		<g>
			<g>
				<g>
					<g>
						<g>
							<g>
								<g>
									<g>
										<g>
											<g>
												<g>
													<defs>
														<path id="SVGID_5_" d="M921.762,782.052c215-81.667,314-67,314-67c4.334,25.667,32.668,31.667,32.668,31.667
															c23.332,10,47.332,8.333,56-8.333c8.666-16.666-9-27-9-27c-45.668-24.667-12-54-12-54c13,0.667,30.666,8,30.666,8
															c25.668,8.667,35.334,54,9.334,61.333s-11,22-11,22c35,18,66.248-8.333,66.248-8.333
															c32.25-5.75,36.25-23.833,36.25-23.833c76.834-67.667-21.5-124.667-21.5-124.667c-73.5-37.5-155-3-155-3
															c-80-29.5-186-35.5-186-35.5c13-31.5-25.5-3.5-25.5-3.5c-3.5-34.5-49,3.5-49,3.5c-35-0.5-149,35.5-149,35.5
															L921.762,782.052z"/>
													</defs>
													<clipPath id="SVGID_6_">
														<use xlink:href="#SVGID_5_"  overflow="visible"/>
													</clipPath>
													
														<path id="finger1" clip-path="url(#SVGID_6_)" fill="none" stroke="#000000" stroke-width="6" stroke-linecap="round" stroke-miterlimit="10" stroke-opacity="0.2" d="
														M1395.083,746.088c0,0,44.834-60.419-17.832-103.752"/>
												</g>
											</g>
										</g>
									</g>
								</g>
							</g>
						</g>
					</g>
				</g>
			</g>
		</g>
		<g>
			<g>
				<g>
					<g>
						<g>
							<g>
								<g>
									<g>
										<g>
											<g>
												<g>
													<defs>
														<path id="SVGID_7_" d="M921.762,783.052c215-81.667,314-67,314-67c4.334,25.667,32.668,31.667,32.668,31.667
															c23.332,10,47.332,8.333,56-8.333c8.666-16.666-9-27-9-27c-45.668-24.667-12-54-12-54c13,0.667,30.666,8,30.666,8
															c25.668,8.667,35.334,54,9.334,61.333s-11,22-11,22c35,18,66.248-8.333,66.248-8.333
															c32.25-5.75,36.25-23.833,36.25-23.833c76.834-67.667-21.5-124.667-21.5-124.667c-73.5-37.5-155-3-155-3
															c-80-29.5-186-35.5-186-35.5c13-31.5-25.5-3.5-25.5-3.5c-3.5-34.5-49,3.5-49,3.5c-35-0.5-149,35.5-149,35.5
															L921.762,783.052z"/>
													</defs>
													<clipPath id="SVGID_8_">
														<use xlink:href="#SVGID_7_"  overflow="visible"/>
													</clipPath>
													
														<path id="finger2" clip-path="url(#SVGID_8_)" fill="none" stroke="#000000" stroke-width="6" stroke-linecap="round" stroke-miterlimit="10" stroke-opacity="0.2" d="
														M1435.083,728.838c0,0,18-63-27.5-96.5"/>
												</g>
											</g>
										</g>
									</g>
								</g>
							</g>
						</g>
					</g>
				</g>
			</g>
		</g>
	</g>
	<path id="left_hand" fill="#37B6C8" d="M329.513,1005.639c0,0,66.37,22.459,134.081,26.481c0,0,78.438,57.654,149.5-8.044
		c0,0,30.839-26.816,4.693-43.577c0,0,33.102-25.141,10.517-57.654c0,0,28.702-48.27-41.021-52.627c0,0-18.772-55.309-90.17-19.438
		c0,0-100.521-19.505-136.09-66.845l-164.898-38.106C154.476,810.032,112.894,932.479,329.513,1005.639z"/>
	<g id="left_fingers">
		<g>
			<g>
				<g>
					<g>
						<g>
							<g>
								<g>
									<g>
										<g>
											<g>
												<g>
													<defs>
														<path id="SVGID_9_" d="M480.75,218.211c0,0-30.167-3.498-20.292-16.248s29.125-8.875,29.125-8.875
															s-13.5-8.625-2.125-17s32.375,0,32.375,0s182.083-83.751,289.417,80.249c0,0,77.332,136,56,326.667l78,188.661
															l-8.668,54l-124.666,34l-315.333-88.327l-133.5,9.5c32.5,50,138.167,70.501,138.167,70.501
															c71-35.667,89.667,19.333,89.667,19.333c69.333,4.333,40.792,52.333,40.792,52.333
															c22.459,32.333-10.458,57.333-10.458,57.333c26,16.668-4.667,43.334-4.667,43.334c-70.667,65.332-148.667,8-148.667,8
															c-67.334-4-133.334-26.334-133.334-26.334c-302-102-99.333-300.333-99.333-300.333
															c-25.333-19.333,18.667-23.333,18.667-23.333c-38-18,17.333-26.666,17.333-26.666
															c49.333-42.667,148.493-82.063,148.493-82.063c-7.499-371.982,62.84-354.604,62.84-354.604"/>
													</defs>
													<clipPath id="SVGID_10_">
														<use xlink:href="#SVGID_9_"  overflow="visible"/>
													</clipPath>
													
														<path id="finger1_1_" clip-path="url(#SVGID_10_)" fill="none" stroke="#000000" stroke-width="6" stroke-linecap="round" stroke-miterlimit="10" stroke-opacity="0.2" d="
														M617.923,867.007c0,0,9.5,2.5-83,0"/>
												</g>
											</g>
										</g>
									</g>
								</g>
							</g>
						</g>
					</g>
				</g>
			</g>
		</g>
		<g>
			<g>
				<g>
					<g>
						<g>
							<g>
								<g>
									<g>
										<g>
											<g>
												<g>
													<defs>
														<path id="SVGID_11_" d="M480.75,218.211c0,0-30.167-3.498-20.292-16.248s29.125-8.875,29.125-8.875
															s-13.5-8.625-2.125-17s32.375,0,32.375,0s182.083-83.751,289.417,80.249c0,0,77.332,136,56,326.667l78,188.661
															l-8.668,54l-124.666,34l-315.333-88.327l-133.5,9.5c32.5,50,138.167,70.501,138.167,70.501
															c71-35.667,89.667,19.333,89.667,19.333c69.333,4.333,40.792,52.333,40.792,52.333
															c22.459,32.333-10.458,57.333-10.458,57.333c26,16.668-4.667,43.334-4.667,43.334c-70.667,65.332-148.667,8-148.667,8
															c-67.334-4-133.334-26.334-133.334-26.334c-302-102-99.333-300.333-99.333-300.333
															c-25.333-19.333,18.667-23.333,18.667-23.333c-38-18,17.333-26.666,17.333-26.666
															c49.333-42.667,148.493-82.063,148.493-82.063c-7.499-371.982,62.84-354.604,62.84-354.604"/>
													</defs>
													<clipPath id="SVGID_12_">
														<use xlink:href="#SVGID_11_"  overflow="visible"/>
													</clipPath>
													
														<path clip-path="url(#SVGID_12_)" fill="none" stroke="#000000" stroke-width="6" stroke-linecap="round" stroke-miterlimit="10" stroke-opacity="0.2" d="
														M665.25,921.672c0,0-29.333,4.333-98,0"/>
												</g>
											</g>
										</g>
									</g>
								</g>
							</g>
						</g>
					</g>
				</g>
			</g>
		</g>
		<g>
			<g>
				<g>
					<g>
						<g>
							<g>
								<g>
									<g>
										<g>
											<g>
												<g>
													<defs>
														<path id="SVGID_13_" d="M480.75,218.211c0,0-30.167-3.498-20.292-16.248s29.125-8.875,29.125-8.875
															s-13.5-8.625-2.125-17s32.375,0,32.375,0s182.083-83.751,289.417,80.249c0,0,77.332,136,56,326.667l78,188.661
															l-8.668,54l-124.666,34l-315.333-88.327l-133.5,9.5c32.5,50,138.167,70.501,138.167,70.501
															c71-35.667,89.667,19.333,89.667,19.333c69.333,4.333,40.792,52.333,40.792,52.333
															c22.459,32.333-10.458,57.333-10.458,57.333c26,16.668-4.667,43.334-4.667,43.334c-70.667,65.332-148.667,8-148.667,8
															c-67.334-4-133.334-26.334-133.334-26.334c-302-102-99.333-300.333-99.333-300.333
															c-25.333-19.333,18.667-23.333,18.667-23.333c-38-18,17.333-26.666,17.333-26.666
															c49.333-42.667,148.493-82.063,148.493-82.063c-7.499-371.982,62.84-354.604,62.84-354.604"/>
													</defs>
													<clipPath id="SVGID_14_">
														<use xlink:href="#SVGID_13_"  overflow="visible"/>
													</clipPath>
													
														<path clip-path="url(#SVGID_14_)" fill="none" stroke="#000000" stroke-width="6" stroke-linecap="round" stroke-miterlimit="10" stroke-opacity="0.2" d="
														M664.731,972.997c0,0-53.333,14.342-104.192,13.705"/>
												</g>
											</g>
										</g>
									</g>
								</g>
							</g>
						</g>
					</g>
				</g>
			</g>
		</g>
	</g>
	<path id="left_leg_lower" fill="#37B6C8" d="M430.708,1198.43c0,0,14,140.002-8,239.334c0,0-9.609,34.668,6.195,59.336
		c0,0,69.138,152,242.47,106.666c0,0,134.494-60-5.752-190c0,0,21.086-128.668,8.42-188.002c0,0,30-4,2.666-42
		c0,0,34.494-3.484-11.086-83.414c-45.583-79.92-121.583-91.92-232.25-37.92c0,0-35.999,19.002-71.499,56.502
		S430.708,1198.43,430.708,1198.43z"/>
	<g>
		<g>
			<g>
				<g>
					<g>
						<defs>
							<path id="SVGID_15_" d="M430.708,1198.43c0,0,14,140.002-8,239.334c0,0-9.609,34.668,6.195,59.336
								c0,0,69.138,152,242.47,106.666c0,0,134.494-60-5.752-190c0,0,21.086-128.668,8.42-188.002c0,0,30-4,2.666-42
								c0,0,34.494-3.484-11.086-83.414c-45.583-79.92-121.583-91.92-232.25-37.92c0,0-35.999,19.002-71.499,56.502
								S430.708,1198.43,430.708,1198.43z"/>
						</defs>
						<clipPath id="SVGID_16_">
							<use xlink:href="#SVGID_15_"  overflow="visible"/>
						</clipPath>
						
							<path clip-path="url(#SVGID_16_)" fill="none" stroke="#000000" stroke-width="7" stroke-linecap="round" stroke-miterlimit="10" stroke-opacity="0.3" d="
							M379.944,1104.031c0,0,64-60.334,154.667-71.334c-4.838,0.914,82.504-16.581,127,65.667c0,0,17,29.335,23.667,54.335
							c0,0,7.668,25.666-12,29.333c0,0,27.332,37,1.666,39.667"/>
					</g>
				</g>
			</g>
		</g>
	</g>
	<g id="left_leg_upper_1_">
		<path display="none" fill="#CCCCCC" d="M562.208,1029.848c0,0,53.926,3.113,66.174,19.838
			c12.248,16.729,19.648,24.992,19.648,24.992"/>
		
			<path id="left_leg_outline_2_" display="none" fill="none" stroke="#A3A3A3" stroke-width="6" stroke-linecap="round" stroke-miterlimit="10" d="
			M672.375,1225.432c34.5-7.5,3.5-43,3.5-43c22-4.5,10.5-31.5,10.5-31.5c-24-76.5-67.5-110-67.5-110c-95-35.5-190.5,24.5-190.5,24.5
			s-36.609,21.604-54.118,41.146"/>
	</g>
	<g id="left_nails">
		<path fill="#FFF47F" d="M534.375,1597.264c0,0,35.5,12.5,50.5,38.5c0,0,9.5-60-18.833-63.668
			C537.709,1568.43,534.375,1597.264,534.375,1597.264z"/>
		<path fill="#FFF47F" d="M630.042,1596.098c0,0,0.37-19.666,21.124-21.666c20.752-2,31.872,32,21.124,57.334
			C672.29,1631.766,634.118,1608.098,630.042,1596.098z"/>
		<path fill="#FFF47F" d="M696.042,1574.432c0,0,0.334-19.666,19-21.666c18.668-2,28.668,32,19,57.332
			C734.042,1610.098,699.708,1586.432,696.042,1574.432z"/>
	</g>
	<g>
		<path fill="#FFFFFF" d="M537.915,547.117l-4.207-37.935l-23.45,28.784C515.069,539.86,524.638,543.378,537.915,547.117z"/>
		<path fill="#FFFFFF" d="M761.297,539.202l-23.256-26.771l-6.406,36.56C741.418,546.276,751.325,543.048,761.297,539.202z"/>
		<path opacity="0.3" enable-background="new    " d="M639.794,571.223c-20.468,0-38.961-1.666-54.633-3.924
			c-49.281-7.1-81.146-21.038-82.479-21.627c-2.521-1.118-3.665-4.071-2.548-6.596c1.117-2.525,4.073-3.667,6.599-2.548
			c0.428,0.188,32.268,14.06,80.188,20.921c44.16,6.322,111.446,7.813,181.211-20.971c2.555-1.057,5.479,0.158,6.529,2.715
			c1.053,2.553-0.162,5.476-2.715,6.525C724.768,565.189,678.721,571.223,639.794,571.223z"/>
		
			<line fill="none" stroke="#000000" stroke-width="10" stroke-linecap="round" stroke-miterlimit="10" stroke-opacity="0.3" x1="610.708" y1="480.766" x2="600.042" y2="498.432"/>
		
			<line fill="none" stroke="#000000" stroke-width="10" stroke-linecap="round" stroke-miterlimit="10" stroke-opacity="0.3" x1="643.374" y1="480.766" x2="653.708" y2="501.432"/>
		<path fill="none" stroke="#000000" stroke-width="10" stroke-linecap="round" stroke-miterlimit="10" stroke-opacity="0.3" d="
			M465.375,433.099c0,0,63.667,20,128.667-2.667"/>
		<path fill="none" stroke="#000000" stroke-width="10" stroke-linecap="round" stroke-miterlimit="10" stroke-opacity="0.3" d="
			M657.708,433.099c0,0,69.667,31.667,135.333,5.333"/>
		<path opacity="0.3" enable-background="new    " d="M558.042,322.435v-28.333c0,0-77.334,17-89.667,53.667
			C468.375,347.768,511.375,323.102,558.042,322.435z"/>
		<path opacity="0.3" enable-background="new    " d="M695.375,323.768v-28.333c0,0,77.334,17,89.666,53.667
			C785.042,349.101,742.042,324.435,695.375,323.768z"/>
	</g>
</g>
</svg>
