<?xml version="1.0" encoding="utf-8"?>
<!-- Generator: Adobe Illustrator 16.0.0, SVG Export Plug-In . SVG Version: 6.00 Build 0)  -->
<!DOCTYPE svg PUBLIC "-//W3C//DTD SVG 1.1//EN" "http://www.w3.org/Graphics/SVG/1.1/DTD/svg11.dtd">
<svg version="1.1" id="Layer_1" xmlns="http://www.w3.org/2000/svg" xmlns:xlink="http://www.w3.org/1999/xlink" x="0px" y="0px"
	 width="1048.5px" height="856.279px" viewBox="52.5 185.999 1048.5 856.279" enable-background="new 52.5 185.999 1048.5 856.279"
	 xml:space="preserve">
<path id="desk" fill="#BA813D" d="M1177.684,1114.139c0,12.26-10.005,22.197-22.347,22.197H74.847
	c-12.342,0-22.347-9.938-22.347-22.197V696.838c0-12.26,10.005-22.197,22.347-22.197h1080.49c12.342,0,22.347,9.938,22.347,22.197
	V1114.139z"/>
<g id="laptop">
	<rect id="middle" x="160.698" y="588.072" fill="#444444" width="961.677" height="44.939"/>
	<path id="lid" fill="#333333" d="M1122.375,588.62H153.621c0,0-15.922,0.558-8.24-7.577c0,0,72.673-27.19,210.109-27.19
		s766.885,0,766.885,0V588.62z"/>
	<path id="bottom" fill="#333333" d="M863.146,631.911H411.23c0,0-0.377-0.023-0.957,0H150.885c0,0-11.706-0.693-6.058,9.435
		c0,0,53.431,33.85,154.479,33.85c42.787,0,150.437,0,260.345,0c149.656,0,303.495,0,303.495,0c134.667,0,260.346,0,260.346,0
		v-43.284H863.146z"/>
</g>
<g id="laptop_lights">
	
		<ellipse id="_x31__1_" opacity="0.2" fill="#FFFFFF" enable-background="new    " cx="205.829" cy="610.922" rx="7.361" ry="7.312"/>
	<g id="_x31_-glow">
		<g>
			<ellipse fill="#FF6A6A" cx="205.677" cy="610.922" rx="7.361" ry="7.312"/>
		</g>
	</g>
	<ellipse id="_x32_" opacity="0.2" fill="#FFFFFF" enable-background="new    " cx="244.937" cy="610.922" rx="7.361" ry="7.312"/>
	<ellipse id="_x33_" opacity="0.2" fill="#FFFFFF" enable-background="new    " cx="284.196" cy="610.922" rx="7.361" ry="7.312"/>
	<ellipse id="_x34_" opacity="0.2" fill="#FFFFFF" enable-background="new    " cx="323.456" cy="610.922" rx="7.361" ry="7.312"/>
</g>
<g id="pencil">
	<polygon fill="#F1C47D" points="295.982,260.985 310.793,200.787 350.009,249.387 	"/>
	<path fill="#E54124" d="M328.098,403.049c-3.259-14.745,6.042-29.302,20.775-32.514c14.732-3.212,29.316,6.137,32.576,20.882
		c3.258,14.745-6.043,29.303-20.775,32.515C345.941,427.144,331.357,417.794,328.098,403.049z"/>
	<polygon fill="#FF6A6A" points="295.979,261 350.062,249.208 381.438,391.181 327.355,402.973 	"/>
	<polygon opacity="0.2" enable-background="new    " points="322.982,255.165 350.024,249.269 381.398,391.236 354.358,397.132 	"/>
	<g>
		<g>
			<g>
				<defs>
					<polygon id="SVGID_1_" points="295.982,260.985 310.793,200.787 350.009,249.387 					"/>
				</defs>
				<clipPath id="SVGID_2_">
					<use xlink:href="#SVGID_1_"  overflow="visible"/>
				</clipPath>
				<polygon clip-path="url(#SVGID_2_)" fill="#1A1A1A" points="302.233,235.208 310.726,200.751 333.522,228.644 				"/>
			</g>
		</g>
	</g>
</g>
<g id="pen">
	<polygon fill="#666666" points="481.359,208.767 505.721,215.39 503.183,224.602 478.821,217.979 	"/>
	<g>
		<line fill="none" x1="447.909" y1="465.066" x2="439.659" y2="495.027"/>
		<path fill="#1A1A1A" d="M438.391,499.634c-2.56-0.696-4.072-3.327-3.371-5.868l8.248-29.962c0.7-2.542,3.351-4.045,5.911-3.348
			c2.562,0.696,4.074,3.325,3.373,5.87l-8.248,29.96C443.601,498.834,440.957,500.333,438.391,499.634z"/>
	</g>
	<polygon fill="#666666" points="459.274,487.022 425.629,477.883 433.878,447.922 467.524,457.063 	"/>
	<polygon fill="#666666" points="460.708,312.742 452.587,310.534 479.898,211.426 488.021,213.633 	"/>
	<polygon fill="#999999" points="468.653,475.732 424.566,463.756 496.267,203.344 540.354,215.319 	"/>
	<polygon opacity="0.2" enable-background="new    " points="518.506,294.737 474.422,282.763 476.326,275.849 520.41,287.824 	"/>
</g>
<g id="ball_pen">
	<path fill="none" stroke="#1693A5" stroke-width="9" stroke-miterlimit="10" d="M428.633,231.672c0,0-19.973-6.747-23.642,17.305
		c-3.667,24.051-10.806,70.868-10.806,70.868l-7.983,52.359"/>
	<path fill="#1693A5" d="M450.591,248.255c-0.986,6.464-7.061,10.911-13.571,9.932l0,0c-6.508-0.979-10.985-7.013-10-13.477
		l7.419-48.645c0.985-6.465,7.059-10.912,13.568-9.932l0,0c6.509,0.979,10.986,7.012,10,13.477L450.591,248.255z"/>
	<polygon fill="#62D0E0" points="438.859,380.104 399.225,374.144 423.458,215.17 463.091,221.13 	"/>
</g>
<path id="pen_stand" fill="#FBB829" d="M510.06,308.668h-96.372h-3.911h-96.373c0,0-15.364-2.22-15.364,9.988l49.443,235.196h62.293
	h3.911h62.293l49.443-235.196C525.424,306.448,510.06,308.668,510.06,308.668z"/>
<g id="mug">
	<g>
		<path fill="#FF6600" d="M768.171,224.623h-80.95c0,0-11.019,5.709-5.086,17.917c5.933,12.208,34.479,20.344,36.456,211.979h49.58
			V224.623z"/>
		<path fill="#FF6600" d="M798.819,224.623h80.95c0,0,11.021,5.709,5.086,17.917c-5.934,12.208-34.476,20.344-36.456,211.979h-49.58
			V224.623z"/>
		<rect x="751.969" y="224.623" fill="#FF6600" width="68.159" height="229.897"/>
	</g>
	<path fill="none" stroke="#FF6600" stroke-width="20" stroke-linecap="round" stroke-miterlimit="10" d="M852.773,287.582
		c0,0,65.687-37.735,61.244,24.114c-4.447,61.851-35.068,131.541-84.948,86.775"/>
</g>
<g id="notebook">
	<rect id="pages" x="577.034" y="467.04" fill="#DDDDDD" width="632.5" height="68.654"/>
	<rect id="bottom_cover" x="559.037" y="532.931" fill="#BA813D" width="665.018" height="16.252"/>
	<rect id="top_cover" x="559.037" y="451.932" fill="#BA813D" width="665.018" height="16.25"/>
	<g id="spirals">
		<path fill="#86561D" d="M621.645,549.071c-0.69,3.302-3.945,5.422-7.268,4.736l0,0c-3.324-0.686-5.459-3.918-4.768-7.219
			l20.158-96.349c0.691-3.301,3.945-5.42,7.267-4.734l0,0c3.325,0.686,5.461,3.916,4.769,7.218L621.645,549.071z"/>
		<path fill="#86561D" d="M699.86,549.071c-0.691,3.302-3.946,5.422-7.268,4.736l0,0c-3.325-0.686-5.459-3.918-4.769-7.219
			l20.158-96.349c0.692-3.301,3.946-5.42,7.268-4.734l0,0c3.324,0.686,5.46,3.916,4.769,7.218L699.86,549.071z"/>
		<path fill="#86561D" d="M778.075,549.071c-0.69,3.302-3.945,5.422-7.267,4.736l0,0c-3.325-0.686-5.46-3.918-4.769-7.219
			l20.158-96.349c0.691-3.301,3.945-5.42,7.267-4.734l0,0c3.325,0.686,5.461,3.916,4.769,7.218L778.075,549.071z"/>
		<path fill="#86561D" d="M856.291,549.071c-0.691,3.302-3.946,5.422-7.268,4.736l0,0c-3.324-0.686-5.459-3.918-4.769-7.219
			l20.158-96.349c0.692-3.301,3.946-5.42,7.268-4.734l0,0c3.325,0.686,5.46,3.916,4.769,7.218L856.291,549.071z"/>
		<path fill="#86561D" d="M934.506,549.071c-0.69,3.302-3.945,5.422-7.267,4.736l0,0c-3.325-0.686-5.46-3.918-4.769-7.219
			l20.158-96.349c0.691-3.301,3.945-5.42,7.268-4.734l0,0c3.324,0.686,5.459,3.916,4.768,7.218L934.506,549.071z"/>
		<path fill="#86561D" d="M1012.722,549.071c-0.69,3.302-3.946,5.422-7.268,4.736l0,0c-3.324-0.686-5.457-3.918-4.769-7.219
			l20.158-96.349c0.692-3.301,3.946-5.42,7.268-4.734l0,0c3.325,0.686,5.459,3.916,4.769,7.218L1012.722,549.071z"/>
		<path fill="#86561D" d="M1090.937,549.071c-0.69,3.302-3.945,5.422-7.267,4.736l0,0c-3.325-0.686-5.457-3.918-4.769-7.219
			l20.158-96.349c0.691-3.301,3.945-5.42,7.268-4.734l0,0c3.324,0.686,5.459,3.916,4.769,7.218L1090.937,549.071z"/>
	</g>
</g>
</svg>
