<?xml version="1.0" encoding="utf-8"?>
<!-- Generator: Adobe Illustrator 16.0.0, SVG Export Plug-In . SVG Version: 6.00 Build 0)  -->
<!DOCTYPE svg PUBLIC "-//W3C//DTD SVG 1.1//EN" "http://www.w3.org/Graphics/SVG/1.1/DTD/svg11.dtd">
<svg version="1.1" id="Layer_1" xmlns="http://www.w3.org/2000/svg" xmlns:xlink="http://www.w3.org/1999/xlink" x="0px" y="0px"
	 width="512px" height="512px" viewBox="0 0 512 512" enable-background="new 0 0 512 512" xml:space="preserve">
<path fill="#290B2A" d="M512,492c0,11.046-8.954,20-20,20H20c-11.046,0-20-8.954-20-20V20C0,8.954,8.954,0,20,0h472
	c11.046,0,20,8.954,20,20V492z"/>
<path fill="#FAFAFA" d="M375.893,278.693c-4.354-4.375-10.832-5.854-16.625-3.793c-35.416,12.5-73.707,3.979-99.916-22.25
	c-26.25-26.251-34.792-64.542-22.25-99.917c2.062-5.792,0.583-12.25-3.793-16.625c-4.332-4.354-10.791-5.834-16.625-3.792
	c-18.52,6.562-34.623,16.625-47.832,29.812c-49.916,49.896-49.916,131.104,0,181.021c49.917,49.916,131.125,49.916,181,0
	c13.209-13.209,23.291-29.313,29.813-47.833C381.727,289.506,380.27,283.025,375.893,278.693z"/>
<circle fill="#FAFAFA" cx="307.466" cy="80.731" r="14.75"/>
<circle fill="#FAFAFA" cx="440.377" cy="227.166" r="16"/>
<circle fill="#FAFAFA" cx="376.584" cy="432.863" r="14.5"/>
<circle fill="#FAFAFA" cx="104.608" cy="418.319" r="14.544"/>
</svg>
