<?xml version="1.0" encoding="utf-8"?>
<!-- Generator: Adobe Illustrator 16.0.0, SVG Export Plug-In . SVG Version: 6.00 Build 0)  -->
<!DOCTYPE svg PUBLIC "-//W3C//DTD SVG 1.1//EN" "http://www.w3.org/Graphics/SVG/1.1/DTD/svg11.dtd">
<svg version="1.1" id="Layer_1" xmlns="http://www.w3.org/2000/svg" xmlns:xlink="http://www.w3.org/1999/xlink" x="0px" y="0px"
	 width="1832.691px" height="994.042px" viewBox="196 137.986 1832.691 994.042"
	 enable-background="new 196 137.986 1832.691 994.042" xml:space="preserve">
	<defs>
		<style>
<!-- 			@media screen and (max-width: 760px) {
			  #table-2, #books {
			    display: none;
			  }
			} -->
		</style>
	</defs>
<path id="table" fill="#BA813D" d="M2028.691,1111.228c0,11.484-9.313,20.801-20.795,20.801H636.794
	c-11.483,0-20.794-9.313-20.794-20.801V714.843c0-11.479,9.311-20.795,20.794-20.795h1371.104c11.479,0,20.793,9.314,20.793,20.795
	V1111.228L2028.691,1111.228z"/>
<path id="table-2" fill="#BA813D" d="M1608.691,1111.228c0,11.484-9.313,20.801-20.795,20.801H216.794
	c-11.483,0-20.794-9.313-20.794-20.801V714.843c0-11.479,9.311-20.795,20.794-20.795h1371.104c11.479,0,20.793,9.314,20.793,20.795
	V1111.228L1608.691,1111.228z"/>
<path fill-opacity="0.1" d="M2028.691,1111.228v-19.854L1614.5,800.724L1079.094,998.5l124.422,133.529h804.381
	C2019.378,1132.029,2028.691,1122.712,2028.691,1111.228z"/>
<g id="mug">
	
		<line fill="none" stroke="#3FA9F5" stroke-width="12" stroke-linecap="round" stroke-miterlimit="10" x1="974.326" y1="194.993" x2="980.545" y2="308.71"/>
	<path fill="#1693A5" d="M947.035,392.619c-17.803,0-32.284-14.482-32.284-32.284s14.481-32.284,32.284-32.284
		c17.802,0,32.284,14.482,32.284,32.284S964.837,392.619,947.035,392.619z M947.035,338.051c-12.287,0-22.284,9.997-22.284,22.284
		s9.997,22.284,22.284,22.284s22.284-9.997,22.284-22.284S959.322,338.051,947.035,338.051z"/>
	
		<rect x="941.943" y="293.326" transform="matrix(-0.9316 0.3634 -0.3634 -0.9316 2034.9131 261.6586)" fill="#1693A5" width="101.8" height="57.849"/>
	<path fill="#1693A5" d="M955.275,366.013c10.953,26.417,40,38.603,65.942,28.479c25.95-10.121,39.078-38.748,29.263-65.606
		L955.275,366.013z"/>
</g>
<g id="book">
	<path fill="#956420" d="M886.844,983.89c2.104,11.73-5.617,22.934-17.24,25.016l-103.896,18.605
		c-11.623,2.084-22.749-5.732-24.854-17.469L715.41,868.013c-2.104-11.729,5.616-22.928,17.234-25.008l103.9-18.615
		c11.62-2.08,22.747,5.74,24.854,17.477L886.844,983.89z"/>
	<path fill="#956420" d="M1028.936,959.035c2.104,11.729-5.609,22.928-17.232,25.008l-103.904,18.615
		c-11.62,2.082-22.746-5.738-24.848-17.469L857.5,843.16c-2.102-11.73,5.617-22.928,17.238-25.008l103.896-18.613
		c11.621-2.084,22.748,5.738,24.854,17.467L1028.936,959.035z"/>
	<path fill="#EEEEEE" d="M886.885,980.177c2.027,11.311-5.496,22.109-16.801,24.135l-101.061,18.105
		c-11.313,2.025-22.112-5.498-24.144-16.801l-24.52-136.881c-2.024-11.313,5.497-22.111,16.802-24.143l101.063-18.104
		c11.31-2.025,22.106,5.496,24.139,16.801L886.885,980.177z"/>
	<path fill="#EEEEEE" d="M1028.885,954.738c2.024,11.305-5.498,22.104-16.802,24.135l-101.062,18.104
		c-11.312,2.025-22.109-5.488-24.144-16.803l-24.521-136.881c-2.026-11.305,5.494-22.109,16.802-24.135l101.061-18.105
		c11.313-2.02,22.108,5.498,24.142,16.811L1028.885,954.738z"/>
	<g id="binding">
		<path fill="none" stroke="#CCCCCC" stroke-width="4" stroke-linecap="round" stroke-miterlimit="10" d="M856.131,857.166
			c0,0-1.934-9.736,6.663-11.275c8.596-1.539,10.101,8.273,10.101,8.273"/>
		<path fill="none" stroke="#CCCCCC" stroke-width="4" stroke-linecap="round" stroke-miterlimit="10" d="M859.911,878.263
			c0,0-1.481-7.453,3.906-10.348c0.769-0.414,1.679-0.734,2.755-0.928c8.598-1.541,10.102,8.27,10.102,8.27"/>
		<path fill="none" stroke="#CCCCCC" stroke-width="4" stroke-linecap="round" stroke-miterlimit="10" d="M863.689,899.361
			c0,0-1.938-9.734,6.662-11.273c8.598-1.541,10.102,8.271,10.102,8.271"/>
		<path fill="none" stroke="#CCCCCC" stroke-width="4" stroke-linecap="round" stroke-miterlimit="10" d="M867.589,921.128
			c0,0-1.936-9.734,6.662-11.275c8.596-1.533,10.101,8.271,10.101,8.271"/>
		<path fill="none" stroke="#CCCCCC" stroke-width="4" stroke-linecap="round" stroke-miterlimit="10" d="M871.37,942.226
			c0,0-1.481-7.445,3.906-10.348c0.769-0.414,1.68-0.734,2.755-0.928c8.596-1.541,10.1,8.27,10.1,8.27"/>
		<path fill="none" stroke="#CCCCCC" stroke-width="4" stroke-linecap="round" stroke-miterlimit="10" d="M875.148,963.324
			c0,0-1.938-9.734,6.662-11.277c8.596-1.539,10.101,8.273,10.101,8.273"/>
	</g>
</g>
<g id="Octopus">
	<path fill="none" stroke="#5E2E5F" stroke-width="36" stroke-linecap="round" stroke-miterlimit="10" d="M1148.846,638.166
		c0,0-140.354-66.143-178.048,22.162c-37.688,88.307,75.378,181.879,170.25,128.594"/>
	<circle fill="#5E2E5F" cx="1347.765" cy="610.577" r="219.645"/>
	<path fill="none" stroke="#5E2E5F" stroke-width="36" stroke-linecap="round" stroke-miterlimit="10" d="M1164.441,579.681
		c0,0-437.541-188.437-389.895,243.031"/>
	<path fill="none" stroke="#5E2E5F" stroke-width="36" stroke-linecap="round" stroke-miterlimit="10" d="M1164.441,517.3
		c0,0-88.374-35.09-175.449-36.389c-87.075-1.3-107.869-41.588-100.071-63.688c7.798-22.094,41.588-41.588,41.588-41.588"/>
	<path fill="none" stroke="#5E2E5F" stroke-width="36" stroke-linecap="round" stroke-miterlimit="10" d="M1194.366,468.422
		c0,0-123.627-27.296-52.955-183.466c70.674-156.17-114.146-171.503-156.39-40.579"/>
	<path fill="none" stroke="#5E2E5F" stroke-width="36" stroke-linecap="round" stroke-miterlimit="10" d="M1525.737,517.3
		c0,0,85.774-85.826,228.733,21.42c142.959,107.242,160.041-53.929,160.041-53.929"/>
	<path fill="none" stroke="#5E2E5F" stroke-width="36" stroke-linecap="round" stroke-miterlimit="10" d="M1551.729,569.285
		c0,0,275.146-32.521,352.657,250.166"/>
	<path fill="none" stroke="#5E2E5F" stroke-width="36" stroke-linecap="round" stroke-miterlimit="10" d="M1501.044,468.422
		c0,0,61.083-134.369,207.94-92.781c146.854,41.588,166.352-98.771,166.352-98.771"/>
	<path fill="none" stroke="#5E2E5F" stroke-width="36" stroke-linecap="round" stroke-miterlimit="10" d="M1818.598,367.777"/>
	<path fill="none" stroke="#5E2E5F" stroke-width="36" stroke-linecap="round" stroke-miterlimit="10" d="M1543.932,627.769
		c0,0,181.947-38.127,189.745,118.697c7.798,156.822-166.268,76.246-166.268,76.246"/>
	<g id="eye_left">
		<ellipse fill="#EEEEEE" cx="1253.688" cy="616.384" rx="61.952" ry="65.969"/>
		<ellipse fill="#111111" cx="1250.895" cy="631.944" rx="41.952" ry="44.673"/>
	</g>
	<g id="eye_right">
		<ellipse fill="#EEEEEE" cx="1445.497" cy="616.384" rx="61.952" ry="65.969"/>
		<ellipse fill="#111111" cx="1442.706" cy="631.944" rx="41.952" ry="44.673"/>
	</g>
</g>
<path id="octopus_shadow" opacity="0.3" fill="#111111" enable-background="new    " d="M1743.669,553.119
	c35.883,26.918,68.067,40.434,96.128,40.434c11.149,0,21.65-2.137,31.469-6.412c52.342-22.799,60.813-97.292,61.146-100.447
	c1.047-9.871-6.098-18.705-15.966-19.773c-9.868-1.07-18.741,6.075-19.829,15.94c-1.744,15.795-12.294,59.395-39.805,71.311
	c-27.117,11.744-64.748-9.75-91.539-29.848c-34.539-25.91-69.021-43.289-102.487-51.654c-27.534-6.882-54.415-7.726-79.902-2.507
	c-22.136,4.533-39.391,12.925-51.222,20.291c-3.963-6.06-8.217-11.9-12.741-17.521c4.418-8.354,18.629-32.794,43.614-53.562
	c39.593-32.908,87.216-41.793,141.546-26.409c50.427,14.28,93.078,10.366,126.771-11.631
	c52.354-34.179,61.938-99.232,62.314-101.984c1.367-9.847-5.502-18.965-15.35-20.333c-9.858-1.372-18.938,5.479-20.307,15.325
	c-0.07,0.517-7.957,51.958-46.563,76.992c-24.563,15.925-57.219,18.276-97.063,6.995c-83.468-23.644-141.542,5.639-175.559,34.355
	c-22.16,18.711-36.994,39.441-45.354,53.112c-35.148-31.001-80.297-50.936-129.979-54.34
	c69.007,41.343,165.938,132.395,179.37,321.055c11.207-21.354,19.006-44.77,22.666-69.547c26.896-2.674,79.063-3.5,114.064,23.605
	c22.486,17.398,34.805,44.59,36.604,80.797c1.698,34.188-5.892,57.236-22.56,68.512c-32.414,21.916-96.309,0.572-118.175-9.494
	c-9.021-4.172-19.72-0.246-23.896,8.773c-4.182,9.02-0.248,19.721,8.771,23.895c0.97,0.447,24.048,11.047,53.563,17.48
	c15.084,3.287,29.072,4.928,41.936,4.926c22.995,0,42.377-5.246,57.893-15.711c27.86-18.797,40.787-52.498,38.416-100.17
	c-2.351-47.258-19.396-83.457-50.662-107.588c-42.383-32.709-100.092-34.092-133.633-31.432c-0.119-6.813-0.556-13.553-1.281-20.195
	c22.266-0.852,72.191,0.006,127.021,19.012c98.202,34.045,163.45,107.674,193.938,218.842c2.188,7.994,9.438,13.244,17.35,13.244
	c1.576,0,3.179-0.209,4.771-0.646c9.591-2.631,15.229-12.529,12.603-22.115c-18.521-67.529-49.616-123.484-92.437-166.314
	c-34.403-34.414-76.271-60.328-124.428-77.02c-65.119-22.576-123.463-22.023-145.758-20.723
	c-2.771-9.787-6.214-19.293-10.257-28.475c9.026-5.867,23.683-13.445,43.21-17.123
	C1638.493,496.298,1689.493,512.478,1743.669,553.119z"/>
<path fill="#DFFF5F" d="M1654.217,985.628c0,12.801-10.375,23.176-23.175,23.176h-532.414c-12.8,0-23.175-10.375-23.175-23.176
	V683.503c0-12.799,10.375-23.176,23.175-23.176h532.414c12.8,0,23.175,10.377,23.175,23.176V985.628z"/>
<g id="pencil">
	<polygon fill="#F1C47D" points="823.832,838.626 823.22,891.529 781.79,858.628 	"/>
	<polygon fill="#1A1A1A" points="823.559,861.191 823.201,891.449 799.497,872.638 	"/>
	
		<ellipse transform="matrix(-0.4296 -0.903 0.903 -0.4296 406.5316 1728.4219)" fill="#E54124" cx="749.137" cy="735.82" rx="23.452" ry="23.275"/>
	
		<rect x="752.687" y="729.822" transform="matrix(-0.903 0.4296 -0.4296 -0.903 1817.594 1174.0427)" fill="#FBB829" width="47.187" height="124.708"/>
	
		<rect x="753.831" y="734.9" transform="matrix(-0.903 0.4296 -0.4296 -0.903 1799.5222 1188.2206)" opacity="0.2" enable-background="new    " width="23.593" height="124.703"/>
	<circle fill="#420943" cx="792.287" cy="819.451" r="40.291"/>
</g>
<g id="pen">
	
		<rect x="1946.178" y="331.105" transform="matrix(-0.6173 0.7867 -0.7867 -0.6173 3422.5139 -996.8986)" fill="#666666" width="15.091" height="5.746"/>
	<g>
		<line fill="none" x1="1826.314" y1="251.584" x2="1811.615" y2="240.052"/>
		<path fill="#1A1A1A" d="M1809.354,238.279c0.979-1.248,2.787-1.466,4.033-0.487l14.701,11.531
			c1.248,0.979,1.467,2.789,0.487,4.036c-0.979,1.249-2.787,1.467-4.035,0.487l-14.7-11.53
			C1808.591,241.335,1808.372,239.529,1809.354,238.279z"/>
	</g>
	
		<rect x="1814.875" y="240.935" transform="matrix(0.6172 -0.7868 0.7868 0.6172 501.7996 1531.9542)" fill="#666666" width="20.838" height="18.682"/>
	
		<rect x="1931.093" y="280.411" transform="matrix(0.6174 -0.7867 0.7867 0.6174 494.9448 1640.2247)" fill="#666666" width="5.03" height="61.806"/>
	
		<rect x="1874.268" y="218.696" transform="matrix(0.6172 -0.7868 0.7868 0.6172 486.7288 1600.2097)" fill="#999999" width="27.306" height="162.383"/>
	
		<rect x="1900.893" y="318.635" transform="matrix(0.6172 -0.7868 0.7868 0.6172 480.4598 1629.1443)" opacity="0.2" enable-background="new    " width="27.303" height="4.312"/>
	<path fill="#666666" stroke="#1A1A1A" stroke-width="8" stroke-linecap="round" stroke-miterlimit="10" d="M1830.282,267.482"/>
	<circle fill="#420943" cx="1857.979" cy="277.507" r="40.291"/>
</g>
<path fill-opacity="0.1" d="M1050.48,328.884l-0.324,0.126l-20.367-52.213l-16.502,6.437c4.796,27.401,10.732,89.188-27.379,111.984
	c11.085,3.859,23.519,3.873,35.313-0.728C1047.173,384.369,1060.301,355.742,1050.48,328.884z"/>
<linearGradient id="SVGID_1_" gradientUnits="userSpaceOnUse" x1="-1516.7739" y1="88.7837" x2="-1480.8446" y2="146.7563" gradientTransform="matrix(1 0 0 1 2376 852.042)">
	<stop  offset="0" style="stop-color:#000000"/>
	<stop  offset="1" style="stop-color:#FFFFFF;stop-opacity:0"/>
</linearGradient>
<polygon opacity="0.1" fill="url(#SVGID_1_)" enable-background="new    " points="823.201,891.449 832.578,924.455 
	891.911,1019.833 916.5,1006.611 852.5,909.691 "/>
<g id="books">
	<g id="the_elements_of_typographic_style">
		<path fill="#333333" d="M531.953,1005.306c-3.441,8.143-12.828,11.949-20.968,8.51l-110.148-46.563
			c-8.139-3.439-11.948-12.828-8.507-20.969l71.22-168.48c3.441-8.141,12.828-11.947,20.968-8.508l110.147,46.563
			c8.139,3.439,11.947,12.826,8.507,20.971L531.953,1005.306z"/>
		
			<rect x="446.275" y="801.275" transform="matrix(0.9211 0.3894 -0.3894 0.9211 378.5595 -129.0507)" fill="none" width="122.676" height="136.008"/>
		<g enable-background="new    ">
			<path fill="#FFFFFF" d="M480.91,785.916l-2.805-1.188c-0.276-0.115-0.418-0.438-0.302-0.713c0.117-0.275,0.451-0.412,0.729-0.297
				l6.715,2.84c0.276,0.117,0.411,0.451,0.294,0.729c-0.117,0.275-0.444,0.396-0.721,0.281l-2.806-1.186l-3.458,8.178
				c-0.128,0.305-0.481,0.447-0.785,0.318c-0.305-0.127-0.447-0.482-0.319-0.785L480.91,785.916z"/>
			<path fill="#FFFFFF" d="M487.529,788.093c0.128-0.305,0.48-0.447,0.771-0.324c0.306,0.129,0.448,0.48,0.319,0.785l-1.612,3.814
				l5.582,2.359l1.612-3.813c0.128-0.305,0.48-0.447,0.786-0.318c0.29,0.121,0.434,0.477,0.306,0.779l-3.68,8.703
				c-0.129,0.305-0.483,0.449-0.773,0.326c-0.304-0.129-0.448-0.484-0.318-0.787l1.635-3.869l-5.581-2.359l-1.636,3.869
				c-0.129,0.305-0.482,0.447-0.786,0.318c-0.29-0.121-0.435-0.477-0.306-0.779L487.529,788.093z"/>
			<path fill="#FFFFFF" d="M494.379,801.167l3.621-8.566c0.129-0.305,0.482-0.447,0.771-0.324l6.012,2.541
				c0.274,0.115,0.404,0.432,0.287,0.707c-0.117,0.277-0.433,0.402-0.708,0.287l-5.458-2.309l-1.396,3.303l4.835,2.045
				c0.276,0.117,0.398,0.445,0.288,0.707c-0.117,0.277-0.432,0.404-0.708,0.287l-4.836-2.045l-1.431,3.385l5.525,2.338
				c0.276,0.115,0.403,0.432,0.287,0.707c-0.117,0.277-0.432,0.404-0.708,0.287l-6.079-2.568
				C494.395,801.826,494.25,801.47,494.379,801.167z"/>
		</g>
		<g enable-background="new    ">
			<path fill="#FFFFFF" d="M466.749,812.287l3.622-8.566c0.128-0.305,0.482-0.447,0.771-0.326l6.011,2.541
				c0.275,0.117,0.403,0.434,0.286,0.707c-0.116,0.277-0.431,0.404-0.707,0.287l-5.457-2.307l-1.396,3.303l4.836,2.045
				c0.276,0.115,0.397,0.443,0.286,0.707c-0.116,0.275-0.431,0.404-0.707,0.287l-4.836-2.045l-1.431,3.385l5.525,2.336
				c0.277,0.117,0.404,0.434,0.288,0.709c-0.117,0.275-0.432,0.404-0.708,0.287l-6.079-2.568
				C466.764,812.943,466.62,812.589,466.749,812.287z"/>
			<path fill="#FFFFFF" d="M479.656,807.564c0.128-0.305,0.481-0.447,0.771-0.324c0.305,0.129,0.447,0.48,0.319,0.785l-3.458,8.18
				l5.015,2.121c0.276,0.115,0.398,0.443,0.282,0.721c-0.117,0.275-0.432,0.404-0.708,0.287l-5.567-2.354
				c-0.291-0.121-0.435-0.477-0.306-0.779L479.656,807.564z"/>
			<path fill="#FFFFFF" d="M484.558,819.816l3.622-8.566c0.128-0.305,0.482-0.449,0.772-0.326l6.01,2.541
				c0.276,0.117,0.404,0.434,0.287,0.707c-0.117,0.277-0.431,0.404-0.708,0.287l-5.457-2.307l-1.396,3.303l4.836,2.043
				c0.275,0.117,0.397,0.445,0.287,0.709c-0.116,0.275-0.432,0.404-0.707,0.287l-4.837-2.045l-1.431,3.385l5.526,2.336
				c0.276,0.117,0.403,0.432,0.288,0.709c-0.117,0.275-0.433,0.404-0.708,0.287l-6.079-2.57
				C484.573,820.472,484.43,820.119,484.558,819.816z"/>
			<path fill="#FFFFFF" d="M497.46,815.107c0.122-0.291,0.478-0.436,0.767-0.313l0.125,0.053c0.235,0.1,0.349,0.295,0.389,0.506
				l1.258,6.656l5.65-3.734c0.187-0.135,0.412-0.168,0.634-0.074l0.125,0.053c0.29,0.123,0.433,0.479,0.311,0.766l-3.674,8.691
				c-0.129,0.303-0.481,0.447-0.772,0.324c-0.304-0.127-0.441-0.496-0.318-0.785l3.049-7.213l-5.016,3.238
				c-0.201,0.127-0.379,0.164-0.573,0.082s-0.305-0.242-0.353-0.475l-1.166-5.834l-3.05,7.211c-0.128,0.305-0.462,0.439-0.767,0.313
				c-0.29-0.123-0.426-0.457-0.297-0.762L497.46,815.107z"/>
			<path fill="#FFFFFF" d="M505.808,828.798l3.621-8.566c0.129-0.305,0.483-0.447,0.773-0.324l6.01,2.541
				c0.276,0.115,0.404,0.43,0.287,0.707c-0.117,0.275-0.432,0.402-0.708,0.287l-5.457-2.309l-1.396,3.303l4.836,2.045
				c0.275,0.115,0.397,0.443,0.287,0.707c-0.117,0.275-0.433,0.404-0.709,0.287l-4.835-2.045l-1.431,3.385l5.526,2.338
				c0.276,0.115,0.403,0.432,0.286,0.707c-0.115,0.275-0.431,0.404-0.707,0.287l-6.078-2.57
				C505.823,829.457,505.679,829.101,505.808,828.798z"/>
			<path fill="#FFFFFF" d="M518.709,824.089c0.123-0.289,0.477-0.434,0.768-0.311l0.151,0.063c0.249,0.105,0.349,0.295,0.418,0.553
				l2.707,9.971l3.083-7.295c0.123-0.291,0.463-0.439,0.768-0.313c0.289,0.123,0.42,0.473,0.297,0.762l-3.691,8.73
				c-0.123,0.291-0.423,0.424-0.713,0.301l-0.057-0.021c-0.233-0.1-0.342-0.309-0.426-0.572l-2.754-10.201l-3.166,7.488
				c-0.122,0.289-0.463,0.438-0.767,0.311c-0.29-0.123-0.419-0.471-0.297-0.76L518.709,824.089z"/>
			<path fill="#FFFFFF" d="M531.964,830.296l-2.805-1.186c-0.275-0.117-0.417-0.439-0.3-0.715c0.115-0.275,0.451-0.412,0.727-0.297
				l6.715,2.84c0.276,0.117,0.412,0.451,0.295,0.729c-0.117,0.275-0.444,0.398-0.722,0.281l-2.805-1.186l-3.457,8.178
				c-0.129,0.305-0.482,0.447-0.787,0.318c-0.304-0.127-0.448-0.48-0.319-0.787L531.964,830.296z"/>
			<path fill="#FFFFFF" d="M534.637,840.269c-0.089-0.137-0.107-0.322-0.031-0.504c0.129-0.303,0.463-0.438,0.753-0.314
				c0.138,0.059,0.238,0.166,0.278,0.264c0.585,1.158,1.34,1.918,2.568,2.439c1.299,0.549,2.447,0.221,2.851-0.734l0.013-0.025
				c0.38-0.898,0.111-1.613-1.738-2.9c-2.02-1.426-2.738-2.574-2.066-4.164l0.013-0.027c0.643-1.52,2.456-2.07,4.293-1.295
				c1.271,0.537,2.063,1.246,2.678,2.256c0.076,0.129,0.136,0.334,0.048,0.541c-0.123,0.289-0.457,0.426-0.747,0.305
				c-0.125-0.055-0.209-0.121-0.276-0.232c-0.564-0.938-1.247-1.52-2.146-1.9c-1.257-0.529-2.351-0.178-2.719,0.691l-0.013,0.029
				c-0.385,0.908-0.104,1.633,1.832,2.986c1.957,1.381,2.617,2.588,1.992,4.066l-0.011,0.027c-0.701,1.658-2.538,2.152-4.458,1.342
				C536.34,842.519,535.354,841.582,534.637,840.269z"/>
			<path fill="#FFFFFF" d="M549.084,842.078l0.012-0.029c1.127-2.666,4.117-4.152,7.061-2.908c2.942,1.242,3.943,4.387,2.815,7.055
				l-0.012,0.025c-1.127,2.666-4.117,4.154-7.062,2.91C548.957,847.886,547.957,844.744,549.084,842.078z M557.814,845.767
				l0.013-0.027c0.929-2.195,0.085-4.67-2.125-5.604c-2.211-0.936-4.533,0.168-5.462,2.365l-0.012,0.027
				c-0.929,2.195-0.086,4.67,2.125,5.604C554.565,849.068,556.887,847.964,557.814,845.767z"/>
			<path fill="#FFFFFF" d="M563.078,842.914c0.129-0.305,0.482-0.449,0.771-0.326l5.982,2.529c0.275,0.117,0.404,0.432,0.287,0.707
				c-0.117,0.277-0.438,0.42-0.714,0.303l-5.431-2.297l-1.46,3.455l4.809,2.033c0.275,0.115,0.403,0.43,0.288,0.705
				c-0.117,0.277-0.433,0.404-0.708,0.287l-4.809-2.031l-1.577,3.729c-0.129,0.305-0.481,0.449-0.787,0.32
				c-0.289-0.123-0.433-0.479-0.305-0.781L563.078,842.914z"/>
		</g>
		<g enable-background="new    ">
			<path fill="#FFFFFF" d="M464.012,825.039l-2.349-0.992c-0.441-0.188-0.636-0.693-0.455-1.121s0.679-0.641,1.121-0.455
				l6.425,2.717c0.429,0.182,0.622,0.688,0.441,1.115c-0.182,0.428-0.679,0.641-1.107,0.459l-2.361-0.998l-3.097,7.322
				c-0.199,0.471-0.743,0.68-1.213,0.48c-0.47-0.197-0.699-0.734-0.501-1.205L464.012,825.039z"/>
			<path fill="#FFFFFF" d="M471.477,833.306l-1.396-5.979c-0.04-0.213-0.042-0.441,0.058-0.676c0.193-0.455,0.719-0.658,1.201-0.453
				c0.373,0.156,0.534,0.471,0.613,0.861l1.053,5.021l4.382-2.74c0.336-0.215,0.673-0.318,1.032-0.166
				c0.497,0.209,0.671,0.725,0.479,1.18c-0.1,0.234-0.297,0.395-0.492,0.51l-5.212,3.121l-1.279,3.025
				c-0.198,0.469-0.729,0.686-1.213,0.48c-0.469-0.199-0.686-0.73-0.486-1.199L471.477,833.306z"/>
			<path fill="#FFFFFF" d="M480.509,831.167c0.205-0.484,0.735-0.699,1.218-0.496l2.957,1.25c2.267,0.959,3.133,2.84,2.309,4.787
				l-0.012,0.027c-0.916,2.17-3.137,2.564-5.265,1.666l-1.921-0.813l-0.987,2.336c-0.197,0.469-0.729,0.686-1.198,0.486
				c-0.483-0.205-0.698-0.736-0.5-1.205L480.509,831.167z M482.42,836.89c1.285,0.543,2.389,0.164,2.816-0.844l0.012-0.027
				c0.479-1.133-0.085-2.07-1.355-2.607l-1.977-0.836l-1.472,3.48L482.42,836.89z"/>
			<path fill="#FFFFFF" d="M487.616,838.892l0.012-0.027c1.15-2.723,4.214-4.111,7.185-2.857c2.972,1.256,4.092,4.385,2.94,7.107
				l-0.011,0.025c-1.151,2.723-4.215,4.113-7.186,2.857C487.586,844.744,486.465,841.615,487.616,838.892z M495.947,842.416
				l0.012-0.027c0.794-1.879,0.086-4.018-1.834-4.83c-1.921-0.813-3.909,0.154-4.704,2.033l-0.011,0.027
				c-0.795,1.879-0.081,4.004,1.839,4.816C493.17,845.248,495.152,844.294,495.947,842.416z"/>
			<path fill="#FFFFFF" d="M499.359,843.859l0.012-0.029c1.145-2.707,4.188-4.125,7.103-2.893c1.45,0.613,2.271,1.367,2.888,2.377
				c0.112,0.193,0.193,0.506,0.054,0.838c-0.192,0.453-0.73,0.686-1.2,0.484c-0.221-0.092-0.346-0.26-0.441-0.414
				c-0.431-0.719-0.979-1.309-2.028-1.754c-1.782-0.752-3.796,0.236-4.579,2.088l-0.011,0.027c-0.841,1.988-0.148,4.008,1.827,4.844
				c0.912,0.385,1.863,0.445,2.646,0.254l0.765-1.809l-1.906-0.807c-0.415-0.176-0.625-0.639-0.45-1.055
				c0.175-0.414,0.661-0.6,1.075-0.424l2.693,1.139c0.483,0.203,0.699,0.734,0.494,1.219l-1.092,2.584
				c-0.204,0.482-0.544,0.748-1.05,0.826c-1.063,0.201-2.434,0.209-3.884-0.404C499.247,849.671,498.168,846.675,499.359,843.859z"
				/>
			<path fill="#FFFFFF" d="M512.314,844.613c0.205-0.484,0.734-0.699,1.219-0.496l3.454,1.461c1.216,0.514,2.017,1.275,2.382,2.146
				c0.289,0.74,0.275,1.582-0.08,2.426l-0.012,0.027c-0.654,1.547-1.95,2.105-3.417,1.959l0.863,3.115
				c0.078,0.279,0.113,0.504,0.003,0.768c-0.199,0.471-0.734,0.619-1.148,0.443c-0.387-0.164-0.561-0.449-0.643-0.793l-1.08-3.992
				l-2.143-0.904l-1.099,2.6c-0.198,0.469-0.729,0.684-1.199,0.486c-0.483-0.205-0.699-0.736-0.5-1.205L512.314,844.613z
				 M514.836,850.32c1.216,0.514,2.258,0.205,2.673-0.775l0.013-0.027c0.438-1.037-0.069-1.918-1.326-2.449l-2.474-1.047
				l-1.372,3.248L514.836,850.32z"/>
			<path fill="#FFFFFF" d="M518.492,856.31l6.979-6.494c0.374-0.348,0.831-0.463,1.314-0.26l0.083,0.035
				c0.483,0.205,0.704,0.607,0.717,1.117l0.204,9.531c0.017,0.152-0.009,0.291-0.057,0.4c-0.191,0.455-0.688,0.67-1.146,0.477
				c-0.401-0.168-0.578-0.521-0.578-0.945l-0.021-2.143l-4.697-1.984l-1.604,1.521c-0.284,0.285-0.656,0.357-1.016,0.205
				c-0.441-0.188-0.642-0.68-0.455-1.121C518.271,856.527,518.364,856.419,518.492,856.31z M525.977,856.25l-0.047-4.627
				l-3.353,3.189L525.977,856.25z"/>
			<path fill="#FFFFFF" d="M532.982,853.349c0.205-0.482,0.735-0.697,1.22-0.494l2.957,1.25c2.266,0.957,3.131,2.84,2.308,4.787
				l-0.012,0.027c-0.917,2.168-3.137,2.564-5.264,1.666l-1.922-0.813l-0.986,2.336c-0.198,0.469-0.729,0.686-1.199,0.486
				c-0.483-0.205-0.699-0.736-0.5-1.205L532.982,853.349z M534.895,859.076c1.285,0.543,2.391,0.164,2.816-0.846l0.011-0.025
				c0.479-1.135-0.085-2.072-1.355-2.609l-1.977-0.836l-1.472,3.48L534.895,859.076z"/>
			<path fill="#FFFFFF" d="M542.248,857.169c0.199-0.471,0.729-0.686,1.213-0.482c0.47,0.199,0.686,0.73,0.486,1.199l-1.373,3.246
				l4.613,1.951l1.373-3.246c0.199-0.471,0.729-0.686,1.199-0.486c0.483,0.205,0.699,0.734,0.5,1.205l-3.434,8.123
				c-0.199,0.469-0.729,0.688-1.213,0.48c-0.469-0.197-0.686-0.729-0.487-1.199l1.396-3.301l-4.613-1.951l-1.396,3.303
				c-0.197,0.469-0.729,0.686-1.199,0.486c-0.483-0.205-0.698-0.736-0.5-1.205L542.248,857.169z"/>
			<path fill="#FFFFFF" d="M552.845,861.65c0.199-0.473,0.729-0.688,1.212-0.48c0.471,0.197,0.687,0.729,0.487,1.199l-3.435,8.123
				c-0.198,0.469-0.729,0.686-1.198,0.484c-0.484-0.203-0.699-0.734-0.5-1.203L552.845,861.65z"/>
			<path fill="#FFFFFF" d="M554.971,867.369l0.013-0.029c1.161-2.748,4.173-4.129,7.103-2.891c1.491,0.629,2.286,1.486,2.854,2.492
				c0.122,0.215,0.175,0.514,0.046,0.816c-0.198,0.469-0.725,0.672-1.193,0.473c-0.234-0.1-0.366-0.252-0.441-0.383
				c-0.435-0.818-1.014-1.453-1.938-1.846c-1.837-0.775-3.833,0.17-4.634,2.063l-0.012,0.027c-0.801,1.893-0.108,3.994,1.742,4.775
				c1.022,0.434,1.854,0.395,2.811,0.098c0.171-0.059,0.386-0.064,0.593,0.023c0.428,0.18,0.649,0.695,0.468,1.125
				c-0.109,0.264-0.322,0.418-0.533,0.49c-1.25,0.416-2.496,0.477-4.058-0.186C554.969,873.228,553.797,870.144,554.971,867.369z"/>
		</g>
		<g enable-background="new    ">
			<path fill="#FFFFFF" d="M450.243,850.291c-0.135-0.221-0.174-0.516-0.058-0.791c0.188-0.441,0.692-0.635,1.135-0.447
				c0.233,0.1,0.357,0.23,0.433,0.361c0.533,0.975,1.238,1.695,2.288,2.139c1.051,0.445,1.924,0.229,2.229-0.49l0.012-0.027
				c0.292-0.691,0.063-1.229-1.56-2.4c-1.848-1.367-2.752-2.467-1.999-4.248l0.013-0.027c0.7-1.658,2.566-2.223,4.486-1.408
				c1.216,0.514,2.063,1.246,2.688,2.193c0.146,0.191,0.228,0.502,0.087,0.834c-0.187,0.441-0.692,0.637-1.134,0.449
				c-0.166-0.07-0.287-0.17-0.391-0.313c-0.542-0.799-1.154-1.352-1.915-1.672c-0.995-0.42-1.791-0.154-2.06,0.48l-0.012,0.027
				c-0.315,0.746-0.014,1.266,1.665,2.496c1.835,1.359,2.575,2.535,1.896,4.141l-0.012,0.025c-0.765,1.813-2.645,2.287-4.674,1.43
				C452.05,852.488,450.982,851.544,450.243,850.291z"/>
			<path fill="#FFFFFF" d="M464.471,848.031l-2.349-0.992c-0.442-0.189-0.636-0.691-0.455-1.121
				c0.181-0.428,0.678-0.641,1.121-0.455l6.424,2.717c0.429,0.182,0.623,0.688,0.441,1.115s-0.679,0.641-1.107,0.459l-2.362-0.998
				l-3.096,7.322c-0.198,0.471-0.743,0.68-1.212,0.48c-0.47-0.197-0.699-0.734-0.5-1.205L464.471,848.031z"/>
			<path fill="#FFFFFF" d="M471.936,856.298l-1.396-5.979c-0.041-0.213-0.042-0.441,0.058-0.676
				c0.193-0.455,0.718-0.656,1.202-0.453c0.373,0.156,0.534,0.471,0.613,0.861l1.053,5.021l4.382-2.74
				c0.336-0.217,0.673-0.318,1.032-0.168c0.497,0.211,0.671,0.725,0.479,1.182c-0.1,0.234-0.298,0.395-0.493,0.508l-5.211,3.123
				l-1.279,3.023c-0.199,0.471-0.729,0.688-1.213,0.482c-0.469-0.199-0.686-0.73-0.487-1.199L471.936,856.298z"/>
			<path fill="#FFFFFF" d="M481.003,854.076c0.199-0.471,0.729-0.686,1.212-0.48c0.471,0.199,0.687,0.73,0.487,1.199l-3.107,7.35
				l4.38,1.854c0.429,0.18,0.627,0.672,0.446,1.1c-0.181,0.43-0.673,0.629-1.101,0.447l-5.224-2.209
				c-0.482-0.203-0.697-0.734-0.493-1.217L481.003,854.076z"/>
			<path fill="#FFFFFF" d="M486.155,865.732l3.364-7.957c0.204-0.484,0.734-0.699,1.219-0.496l5.624,2.379
				c0.414,0.174,0.612,0.666,0.438,1.08c-0.181,0.428-0.667,0.613-1.081,0.438l-4.781-2.02l-1.063,2.514l4.158,1.758
				c0.415,0.178,0.613,0.668,0.433,1.098c-0.175,0.414-0.66,0.6-1.075,0.424l-4.157-1.758l-1.099,2.598l4.851,2.049
				c0.415,0.176,0.613,0.668,0.438,1.082c-0.181,0.428-0.667,0.613-1.082,0.439l-5.691-2.406
				C486.166,866.746,485.951,866.214,486.155,865.732z"/>
		</g>
	</g>
	<g id="design_of_everyday_things">
		<path fill="#FBB829" d="M484.951,1040.083c0,8.838-7.164,16-16,16H320.96c-8.836,0-16-7.162-16-16V829.095c0-8.836,7.164-16,16-16
			h147.991c8.836,0,16,7.164,16,16V1040.083z"/>
		<rect x="319.959" y="940.642" fill="none" width="149.993" height="99.883"/>
		<g enable-background="new    ">
			<path d="M325.922,942.914h-4.262c-0.42,0-0.777-0.336-0.777-0.756s0.357-0.777,0.777-0.777h10.204
				c0.42,0,0.777,0.357,0.777,0.777s-0.357,0.756-0.777,0.756h-4.262v12.43c0,0.461-0.378,0.84-0.84,0.84
				c-0.462,0-0.84-0.379-0.84-0.84V942.914z"/>
			<path d="M335.646,942.115c0-0.461,0.378-0.84,0.819-0.84c0.462,0,0.84,0.379,0.84,0.84v5.795h8.482v-5.795
				c0-0.461,0.378-0.84,0.84-0.84c0.441,0,0.819,0.379,0.819,0.84v13.229c0,0.461-0.378,0.84-0.819,0.84
				c-0.462,0-0.84-0.379-0.84-0.84v-5.879h-8.482v5.879c0,0.461-0.378,0.84-0.84,0.84c-0.441,0-0.819-0.379-0.819-0.84V942.115z"/>
			<path d="M351.605,955.238V942.22c0-0.463,0.378-0.84,0.819-0.84h9.133c0.42,0,0.756,0.336,0.756,0.756s-0.336,0.756-0.756,0.756
				h-8.293v5.018h7.349c0.42,0,0.756,0.357,0.756,0.756c0,0.42-0.336,0.756-0.756,0.756h-7.349v5.145h8.398
				c0.42,0,0.756,0.338,0.756,0.758s-0.336,0.756-0.756,0.756h-9.238C351.983,956.078,351.605,955.701,351.605,955.238z"/>
		</g>
		<g enable-background="new    ">
			<path d="M322.038,967.22c0-0.463,0.378-0.84,0.819-0.84h4.283c4.619,0,7.811,3.17,7.811,7.307v0.041
				c0,4.137-3.191,7.35-7.811,7.35h-4.283c-0.441,0-0.819-0.377-0.819-0.84V967.22z M327.14,979.544c3.716,0,6.089-2.52,6.089-5.773
				v-0.043c0-3.254-2.373-5.814-6.089-5.814h-3.443v11.631H327.14L327.14,979.544z"/>
			<path d="M338.459,980.238V967.22c0-0.463,0.378-0.84,0.819-0.84h9.133c0.42,0,0.756,0.336,0.756,0.756s-0.336,0.756-0.756,0.756
				h-8.293v5.018h7.349c0.42,0,0.756,0.357,0.756,0.756c0,0.42-0.336,0.756-0.756,0.756h-7.349v5.145h8.398
				c0.42,0,0.756,0.338,0.756,0.758s-0.336,0.756-0.756,0.756h-9.238C338.837,981.078,338.459,980.701,338.459,980.238z"/>
			<path d="M352.004,979.314c-0.189-0.125-0.315-0.357-0.315-0.631c0-0.461,0.357-0.818,0.798-0.818c0.21,0,0.399,0.084,0.504,0.189
				c1.386,1.176,2.771,1.742,4.64,1.742c1.974,0,3.275-1.049,3.275-2.498v-0.043c0-1.363-0.735-2.141-3.821-2.791
				c-3.38-0.734-4.934-1.828-4.934-4.242v-0.041c0-2.311,2.037-4.012,4.829-4.012c1.932,0,3.338,0.484,4.682,1.449
				c0.168,0.127,0.357,0.355,0.357,0.672c0,0.441-0.357,0.799-0.798,0.799c-0.189,0-0.336-0.043-0.483-0.146
				c-1.239-0.904-2.437-1.281-3.8-1.281c-1.911,0-3.128,1.049-3.128,2.373v0.041c0,1.387,0.756,2.162,3.989,2.855
				c3.275,0.715,4.787,1.91,4.787,4.156v0.043c0,2.52-2.1,4.156-5.018,4.156C355.427,981.289,353.642,980.617,352.004,979.314z"/>
			<path d="M366.117,967.115c0-0.461,0.378-0.84,0.819-0.84c0.462,0,0.84,0.379,0.84,0.84v13.229c0,0.461-0.378,0.84-0.84,0.84
				c-0.441,0-0.819-0.379-0.819-0.84V967.115z"/>
			<path d="M371.429,973.771v-0.043c0-4.029,2.96-7.6,7.37-7.6c2.226,0,3.674,0.588,5.018,1.574
				c0.189,0.146,0.336,0.379,0.336,0.672c0,0.463-0.378,0.84-0.819,0.84c-0.189,0-0.357-0.084-0.525-0.209
				c-1.05-0.799-2.226-1.344-4.073-1.344c-3.254,0-5.585,2.75-5.585,6.023v0.043c0,3.508,2.247,6.109,5.816,6.109
				c1.68,0,3.233-0.65,4.241-1.471v-3.652h-3.947c-0.398,0-0.735-0.336-0.735-0.734c0-0.42,0.336-0.756,0.735-0.756h4.724
				c0.441,0,0.819,0.377,0.819,0.84v4.473c0,0.398-0.189,0.756-0.567,1.008c-1.344,0.986-3.149,1.785-5.333,1.785
				C374.285,981.33,371.429,977.97,371.429,973.771z"/>
			<path d="M388.544,967.136c0-0.441,0.378-0.818,0.819-0.818h0.23c0.378,0,0.609,0.188,0.84,0.482l8.923,11.379v-11.086
				c0-0.439,0.356-0.818,0.818-0.818c0.441,0,0.798,0.379,0.798,0.818v13.271c0,0.439-0.314,0.775-0.756,0.775h-0.084
				c-0.356,0-0.608-0.209-0.86-0.504l-9.112-11.652v11.381c0,0.439-0.357,0.818-0.819,0.818c-0.441,0-0.798-0.379-0.798-0.818
				V967.136L388.544,967.136z"/>
			<path d="M410.783,973.771v-0.043c0-4.051,3.044-7.6,7.517-7.6c4.474,0,7.476,3.506,7.476,7.559v0.041
				c0,4.053-3.045,7.602-7.518,7.602S410.783,977.824,410.783,973.771z M424.052,973.771v-0.043c0-3.338-2.436-6.066-5.795-6.066
				c-3.358,0-5.753,2.688-5.753,6.025v0.041c0,3.34,2.437,6.068,5.795,6.068C421.658,979.796,424.052,977.109,424.052,973.771z"/>
			<path d="M429.284,967.22c0-0.463,0.378-0.84,0.819-0.84h9.091c0.42,0,0.756,0.336,0.756,0.756s-0.336,0.777-0.756,0.777h-8.251
				v5.248h7.307c0.42,0,0.756,0.336,0.756,0.756s-0.336,0.756-0.756,0.756h-7.307v5.67c0,0.461-0.379,0.84-0.84,0.84
				c-0.441,0-0.819-0.379-0.819-0.84V967.22z"/>
		</g>
		<g enable-background="new    ">
			<path d="M321.849,1004.777v-12.096c0-0.734,0.567-1.301,1.302-1.301h8.545c0.63,0,1.155,0.525,1.155,1.154
				c0,0.65-0.525,1.154-1.155,1.154h-7.265v3.82h6.32c0.63,0,1.155,0.525,1.155,1.176c0,0.631-0.525,1.135-1.155,1.135h-6.32v3.947
				h7.37c0.63,0,1.155,0.523,1.155,1.154c0,0.65-0.525,1.154-1.155,1.154h-8.65C322.416,1006.078,321.849,1005.511,321.849,1004.777
				z"/>
			<path d="M340.181,1005.238l-5.144-12.094c-0.084-0.189-0.147-0.379-0.147-0.609c0-0.691,0.567-1.26,1.302-1.26
				c0.672,0,1.113,0.379,1.323,0.924l4.241,10.604l4.304-10.688c0.168-0.439,0.63-0.84,1.239-0.84c0.714,0,1.281,0.547,1.281,1.238
				c0,0.189-0.063,0.4-0.126,0.547l-5.165,12.178c-0.273,0.65-0.756,1.051-1.491,1.051h-0.147
				C340.937,1006.289,340.454,1005.888,340.181,1005.238z"/>
			<path d="M351.312,1004.777v-12.096c0-0.734,0.567-1.301,1.302-1.301h8.545c0.63,0,1.155,0.525,1.155,1.154
				c0,0.65-0.525,1.154-1.155,1.154h-7.265v3.82h6.32c0.63,0,1.155,0.525,1.155,1.176c0,0.631-0.525,1.135-1.155,1.135h-6.32v3.947
				h7.37c0.63,0,1.155,0.523,1.155,1.154c0,0.65-0.525,1.154-1.155,1.154h-8.65C351.878,1006.078,351.312,1005.511,351.312,1004.777
				z"/>
			<path d="M365.381,992.681c0-0.734,0.567-1.301,1.302-1.301h5.249c1.848,0,3.296,0.545,4.241,1.469
				c0.777,0.799,1.218,1.891,1.218,3.172v0.041c0,2.352-1.365,3.779-3.338,4.389l2.813,3.549c0.252,0.314,0.42,0.588,0.42,0.986
				c0,0.715-0.609,1.197-1.239,1.197c-0.588,0-0.966-0.273-1.26-0.672l-3.569-4.557h-3.254v3.947c0,0.713-0.567,1.279-1.281,1.279
				c-0.735,0-1.302-0.566-1.302-1.279V992.681z M371.743,998.666c1.848,0,3.023-0.965,3.023-2.455v-0.043
				c0-1.574-1.134-2.436-3.044-2.436h-3.758v4.934H371.743L371.743,998.666z"/>
			<path d="M384.323,1000.367l-5.06-6.949c-0.168-0.252-0.294-0.547-0.294-0.902c0-0.691,0.567-1.238,1.302-1.238
				c0.567,0,0.945,0.314,1.26,0.775l4.094,5.9l4.157-5.922c0.315-0.461,0.693-0.775,1.239-0.775c0.756,0,1.26,0.566,1.26,1.26
				c0,0.355-0.168,0.672-0.357,0.924l-5.018,6.865v4.6c0,0.713-0.567,1.279-1.302,1.279c-0.714,0-1.281-0.566-1.281-1.279V1000.367z
				"/>
			<path d="M394.802,992.681c0-0.734,0.567-1.301,1.302-1.301h4.179c4.619,0,7.811,3.17,7.811,7.307v0.041
				c0,4.137-3.19,7.35-7.811,7.35h-4.179c-0.734,0-1.302-0.566-1.302-1.301V992.681z M400.282,1003.726
				c3.086,0,5.102-2.078,5.102-4.955v-0.043c0-2.875-2.016-4.996-5.102-4.996h-2.897v9.994H400.282z"/>
			<path d="M409.649,1004.398l5.459-12.178c0.294-0.65,0.818-1.051,1.554-1.051h0.126c0.735,0,1.239,0.4,1.533,1.051l5.459,12.178
				c0.104,0.189,0.146,0.379,0.146,0.547c0,0.691-0.524,1.238-1.218,1.238c-0.609,0-1.029-0.357-1.26-0.902l-1.197-2.752h-7.139
				l-1.239,2.836c-0.21,0.523-0.651,0.818-1.197,0.818c-0.672,0-1.196-0.525-1.196-1.197
				C409.48,1004.796,409.544,1004.609,409.649,1004.398z M419.266,1000.242l-2.583-5.943l-2.583,5.943H419.266z"/>
			<path d="M429.053,1000.367l-5.06-6.949c-0.168-0.252-0.294-0.547-0.294-0.902c0-0.691,0.566-1.238,1.302-1.238
				c0.567,0,0.945,0.314,1.26,0.775l4.095,5.9l4.156-5.922c0.315-0.461,0.693-0.775,1.239-0.775c0.756,0,1.26,0.566,1.26,1.26
				c0,0.355-0.168,0.672-0.356,0.924l-5.019,6.865v4.6c0,0.713-0.566,1.279-1.302,1.279c-0.714,0-1.281-0.566-1.281-1.279V1000.367
				L429.053,1000.367z"/>
		</g>
		<g enable-background="new    ">
			<path d="M325.46,1018.775h-3.569c-0.672,0-1.197-0.547-1.197-1.197s0.525-1.197,1.197-1.197h9.763
				c0.651,0,1.176,0.547,1.176,1.197s-0.525,1.197-1.176,1.197h-3.59v11.127c0,0.715-0.588,1.281-1.302,1.281
				c-0.714,0-1.302-0.566-1.302-1.281V1018.775z"/>
			<path d="M335.457,1017.556c0-0.715,0.567-1.281,1.302-1.281c0.714,0,1.281,0.566,1.281,1.281v4.934h7.013v-4.934
				c0-0.715,0.567-1.281,1.281-1.281c0.735,0,1.302,0.566,1.302,1.281v12.346c0,0.715-0.567,1.281-1.302,1.281
				c-0.714,0-1.281-0.566-1.281-1.281v-5.018h-7.013v5.018c0,0.715-0.567,1.281-1.281,1.281c-0.735,0-1.302-0.566-1.302-1.281
				V1017.556z"/>
			<path d="M351.563,1017.556c0-0.715,0.567-1.281,1.302-1.281c0.714,0,1.281,0.566,1.281,1.281v12.346
				c0,0.715-0.567,1.281-1.281,1.281c-0.735,0-1.302-0.566-1.302-1.281V1017.556z"/>
			<path d="M358.073,1017.597c0-0.713,0.567-1.301,1.302-1.301h0.273c0.63,0,0.987,0.314,1.344,0.756l7.349,9.512v-9.029
				c0-0.691,0.567-1.26,1.26-1.26c0.714,0,1.281,0.566,1.281,1.26v12.346c0,0.715-0.546,1.281-1.26,1.281h-0.105
				c-0.609,0-0.987-0.314-1.344-0.777l-7.559-9.783v9.322c0,0.693-0.567,1.26-1.26,1.26c-0.714,0-1.281-0.566-1.281-1.26V1017.597z"
				/>
			<path d="M374.012,1023.771v-0.043c0-4.113,3.149-7.6,7.58-7.6c2.205,0,3.674,0.525,5.018,1.49
				c0.252,0.188,0.525,0.547,0.525,1.051c0,0.691-0.567,1.279-1.281,1.279c-0.336,0-0.588-0.146-0.798-0.293
				c-0.945-0.693-1.974-1.154-3.569-1.154c-2.708,0-4.766,2.371-4.766,5.186v0.041c0,3.023,1.995,5.25,4.997,5.25
				c1.386,0,2.646-0.441,3.548-1.113v-2.75h-2.897c-0.63,0-1.155-0.482-1.155-1.113c0-0.629,0.525-1.133,1.155-1.133h4.094
				c0.735,0,1.302,0.566,1.302,1.301v3.928c0,0.734-0.294,1.26-0.903,1.637c-1.26,0.842-3.023,1.598-5.228,1.598
				C377.036,1031.33,374.012,1028.054,374.012,1023.771z"/>
			<path d="M390.749,1029.439c-0.294-0.209-0.504-0.566-0.504-0.986c0-0.672,0.546-1.195,1.218-1.195
				c0.357,0,0.588,0.104,0.756,0.23c1.218,0.965,2.521,1.512,4.115,1.512s2.604-0.756,2.604-1.848v-0.043
				c0-1.049-0.588-1.615-3.316-2.246c-3.128-0.756-4.892-1.68-4.892-4.389v-0.041c0-2.52,2.1-4.264,5.018-4.264
				c1.848,0,3.338,0.482,4.661,1.365c0.294,0.168,0.566,0.523,0.566,1.027c0,0.672-0.546,1.197-1.218,1.197
				c-0.252,0-0.462-0.063-0.672-0.189c-1.134-0.732-2.226-1.111-3.38-1.111c-1.512,0-2.394,0.775-2.394,1.742v0.043
				c0,1.133,0.672,1.637,3.506,2.309c3.106,0.756,4.702,1.869,4.702,4.305v0.043c0,2.75-2.162,4.389-5.248,4.389
				C394.276,1031.289,392.387,1030.658,390.749,1029.439z"/>
		</g>
	</g>
	<g id="sass_for_web_designers">
		<path fill="#ED79A0" d="M556.57,1042.332c1.207,8.754-4.912,16.826-13.665,18.033l-113.923,15.703
			c-8.754,1.207-16.828-4.91-18.035-13.664l-24.43-177.221c-1.207-8.754,4.911-16.826,13.664-18.033l113.925-15.701
			c8.754-1.207,16.826,4.908,18.033,13.662L556.57,1042.332z"/>
		
			<rect x="407.044" y="878.676" transform="matrix(0.9906 -0.1366 0.1366 0.9906 -122.5718 71.6171)" fill="none" width="106.993" height="100.467"/>
		<g enable-background="new    ">
			<path fill="#FFFFFF" d="M404.009,899.943c-0.319-0.168-0.577-0.492-0.634-0.908c-0.092-0.666,0.377-1.26,1.043-1.352
				c0.354-0.049,0.597,0.021,0.78,0.125c1.338,0.789,2.702,1.152,4.282,0.936s2.477-1.104,2.326-2.186l-0.006-0.043
				c-0.144-1.039-0.804-1.521-3.593-1.771c-3.202-0.322-5.076-0.996-5.445-3.68l-0.006-0.039c-0.345-2.496,1.498-4.51,4.39-4.908
				c1.829-0.252,3.372,0.021,4.804,0.715c0.313,0.125,0.633,0.441,0.702,0.941c0.092,0.664-0.378,1.26-1.043,1.352
				c-0.25,0.035-0.468,0.002-0.691-0.096c-1.224-0.572-2.355-0.799-3.501-0.641c-1.497,0.207-2.265,1.098-2.133,2.055l0.006,0.041
				c0.154,1.123,0.889,1.529,3.789,1.809c3.181,0.324,4.914,1.207,5.246,3.621l0.006,0.041c0.376,2.725-1.542,4.643-4.601,5.064
				C407.756,901.292,405.797,900.925,404.009,899.943z"/>
			<path fill="#FFFFFF" d="M416.692,898.152l3.743-12.809c0.202-0.686,0.668-1.152,1.396-1.252l0.125-0.018
				c0.729-0.102,1.282,0.227,1.662,0.83l7.07,11.316c0.131,0.174,0.197,0.354,0.221,0.521c0.095,0.686-0.352,1.299-1.037,1.395
				c-0.604,0.082-1.068-0.213-1.371-0.723l-1.563-2.564l-7.07,0.977l-0.84,2.979c-0.138,0.549-0.533,0.9-1.074,0.975
				c-0.665,0.092-1.257-0.355-1.35-1.021C416.58,898.57,416.617,898.375,416.692,898.152z M425.65,892.72l-3.369-5.533l-1.747,6.238
				L425.65,892.72z"/>
			<path fill="#FFFFFF" d="M433.07,895.935c-0.32-0.168-0.577-0.492-0.635-0.908c-0.093-0.666,0.377-1.26,1.043-1.352
				c0.354-0.049,0.597,0.023,0.78,0.125c1.338,0.789,2.701,1.154,4.282,0.936s2.477-1.104,2.327-2.186l-0.006-0.043
				c-0.145-1.039-0.804-1.52-3.595-1.771c-3.201-0.32-5.074-0.996-5.444-3.68l-0.006-0.039c-0.345-2.496,1.497-4.51,4.389-4.908
				c1.83-0.254,3.373,0.021,4.804,0.715c0.314,0.125,0.635,0.441,0.702,0.941c0.092,0.666-0.377,1.262-1.043,1.354
				c-0.249,0.033-0.466,0-0.69-0.098c-1.224-0.572-2.356-0.799-3.5-0.641c-1.498,0.207-2.266,1.098-2.134,2.055l0.006,0.041
				c0.154,1.123,0.89,1.531,3.788,1.809c3.183,0.324,4.914,1.209,5.247,3.621l0.006,0.043c0.375,2.725-1.543,4.641-4.6,5.063
				C436.816,897.285,434.858,896.917,433.07,895.935z"/>
			<path fill="#FFFFFF" d="M446.176,894.128c-0.318-0.168-0.576-0.494-0.634-0.91c-0.092-0.664,0.377-1.26,1.043-1.352
				c0.354-0.049,0.597,0.023,0.78,0.127c1.338,0.789,2.702,1.152,4.283,0.936c1.58-0.219,2.476-1.105,2.325-2.186l-0.006-0.043
				c-0.144-1.039-0.803-1.521-3.593-1.771c-3.202-0.322-5.075-0.996-5.445-3.68l-0.006-0.041c-0.344-2.496,1.497-4.51,4.389-4.908
				c1.83-0.252,3.373,0.023,4.805,0.715c0.313,0.127,0.633,0.443,0.702,0.943c0.092,0.664-0.378,1.26-1.044,1.352
				c-0.248,0.035-0.466,0-0.69-0.096c-1.224-0.572-2.356-0.799-3.5-0.641c-1.498,0.207-2.266,1.096-2.134,2.053l0.006,0.041
				c0.155,1.125,0.89,1.531,3.789,1.809c3.182,0.326,4.914,1.209,5.247,3.623l0.006,0.041c0.376,2.725-1.543,4.643-4.601,5.064
				C449.923,895.476,447.965,895.111,446.176,894.128z"/>
		</g>
		<g enable-background="new    ">
			<path fill="#FFFFFF" d="M405.73,911.894c-0.049-0.35,0.197-0.674,0.53-0.719l6.865-0.947c0.318-0.043,0.606,0.176,0.65,0.492
				c0.043,0.316-0.173,0.621-0.49,0.666l-6.231,0.857l0.547,3.965l5.519-0.762c0.317-0.043,0.605,0.176,0.649,0.492
				c0.043,0.316-0.176,0.605-0.492,0.648l-5.519,0.762l0.59,4.281c0.05,0.348-0.197,0.672-0.547,0.721
				c-0.333,0.047-0.657-0.199-0.706-0.549L405.73,911.894z"/>
			<path fill="#FFFFFF" d="M416.08,915.507l-0.004-0.031c-0.422-3.061,1.508-6.057,4.886-6.521c3.377-0.467,6.009,1.869,6.431,4.928
				l0.006,0.033c0.422,3.061-1.508,6.057-4.886,6.521C419.135,920.904,416.502,918.568,416.08,915.507z M426.101,914.126
				l-0.004-0.033c-0.348-2.52-2.472-4.328-5.008-3.979c-2.537,0.35-4.064,2.629-3.718,5.148l0.005,0.031
				c0.348,2.521,2.471,4.33,5.008,3.98S426.449,916.646,426.101,914.126z"/>
			<path fill="#FFFFFF" d="M429.361,908.634c-0.049-0.348,0.197-0.672,0.53-0.719l4.154-0.572c1.364-0.188,2.515,0.072,3.31,0.674
				c0.612,0.465,1.036,1.197,1.157,2.07l0.004,0.033c0.253,1.822-0.839,3.057-2.521,3.627l3.248,3.17
				c0.146,0.125,0.245,0.258,0.27,0.432c0.046,0.334-0.23,0.662-0.549,0.707c-0.254,0.033-0.464-0.082-0.633-0.252l-3.684-3.629
				l-3.188,0.439l0.52,3.758c0.048,0.35-0.198,0.674-0.548,0.721c-0.334,0.047-0.657-0.199-0.706-0.549L429.361,908.634z
				 M434.716,913.019c1.665-0.229,2.736-1.25,2.539-2.678l-0.004-0.031c-0.188-1.363-1.349-2.043-3.141-1.797l-3.425,0.473
				l0.62,4.504L434.716,913.019z"/>
		</g>
		<g enable-background="new    ">
			<path fill="#FFFFFF" d="M407.962,932.994c-0.045-0.09-0.091-0.182-0.104-0.277c-0.046-0.332,0.214-0.674,0.563-0.723
				c0.317-0.043,0.588,0.16,0.723,0.434l4.275,8.395l1.682-9.248c0.057-0.297,0.219-0.529,0.552-0.576l0.08-0.01
				c0.315-0.045,0.551,0.133,0.686,0.404l4.121,8.447l1.855-9.271c0.057-0.297,0.233-0.531,0.535-0.574
				c0.333-0.045,0.676,0.215,0.721,0.531c0.013,0.096-0.021,0.213-0.038,0.313l-2.191,10.352c-0.067,0.334-0.259,0.586-0.576,0.631
				l-0.095,0.012c-0.317,0.045-0.57-0.146-0.725-0.449l-4.063-8.133l-1.693,8.926c-0.066,0.332-0.259,0.586-0.575,0.631
				l-0.096,0.014c-0.316,0.043-0.566-0.133-0.725-0.451L407.962,932.994z"/>
			<path fill="#FFFFFF" d="M427.405,940.119l-1.355-9.83c-0.049-0.348,0.197-0.672,0.531-0.719l6.896-0.951
				c0.317-0.043,0.606,0.176,0.65,0.492c0.043,0.316-0.176,0.605-0.492,0.648l-6.264,0.865l0.521,3.789l5.551-0.766
				c0.316-0.045,0.607,0.189,0.648,0.49c0.044,0.316-0.175,0.605-0.492,0.65l-5.55,0.764l0.536,3.887l6.343-0.875
				c0.316-0.045,0.605,0.176,0.649,0.492c0.043,0.316-0.176,0.605-0.492,0.648l-6.977,0.963
				C427.778,940.714,427.453,940.468,427.405,940.119z"/>
			<path fill="#FFFFFF" d="M436.669,928.826c-0.049-0.35,0.197-0.674,0.531-0.721l4.104-0.564c1.271-0.176,2.318,0.051,3.037,0.582
				c0.526,0.412,0.86,0.963,0.959,1.678l0.004,0.031c0.199,1.443-0.586,2.311-1.404,2.813c1.369,0.215,2.537,0.828,2.748,2.352
				l0.005,0.031c0.262,1.902-1.186,3.25-3.61,3.584l-4.313,0.596c-0.334,0.045-0.658-0.201-0.706-0.551L436.669,928.826z
				 M441.782,932.513c1.506-0.207,2.459-1.031,2.278-2.332l-0.004-0.031c-0.15-1.096-1.121-1.689-2.707-1.471l-3.378,0.467
				l0.527,3.82L441.782,932.513z M442.919,937.478c1.683-0.23,2.625-1.119,2.454-2.357l-0.005-0.029
				c-0.166-1.207-1.276-1.764-3.211-1.498l-3.504,0.484l0.54,3.916L442.919,937.478z"/>
		</g>
		<g enable-background="new    ">
			<path fill="#FFFFFF" d="M411.467,953.498c-0.048-0.35,0.198-0.674,0.531-0.719l3.234-0.447c3.487-0.48,6.229,1.582,6.659,4.703
				l0.005,0.033c0.431,3.123-1.646,5.883-5.135,6.363l-3.233,0.445c-0.333,0.047-0.658-0.199-0.706-0.549L411.467,953.498z
				 M416.604,962.273c2.808-0.387,4.337-2.535,3.997-4.994l-0.005-0.031c-0.338-2.457-2.396-4.145-5.204-3.758l-2.6,0.357
				l1.211,8.783L416.604,962.273z"/>
			<path fill="#FFFFFF" d="M425.217,961.619l-1.354-9.83c-0.05-0.35,0.196-0.674,0.53-0.719l6.896-0.951
				c0.316-0.045,0.605,0.174,0.65,0.49c0.043,0.316-0.177,0.607-0.492,0.65l-6.265,0.863l0.522,3.789l5.55-0.766
				c0.317-0.045,0.608,0.189,0.649,0.492c0.044,0.316-0.176,0.605-0.492,0.648l-5.55,0.766l0.536,3.887l6.343-0.875
				c0.315-0.045,0.604,0.176,0.648,0.49c0.044,0.318-0.175,0.605-0.491,0.65l-6.978,0.961
				C425.59,962.212,425.265,961.968,425.217,961.619z"/>
			<path fill="#FFFFFF" d="M435.344,959.511c-0.156-0.076-0.274-0.236-0.304-0.443c-0.048-0.348,0.185-0.654,0.518-0.701
				c0.158-0.021,0.312,0.021,0.4,0.09c1.169,0.746,2.274,1.029,3.687,0.834c1.489-0.205,2.363-1.135,2.213-2.229l-0.004-0.031
				c-0.144-1.031-0.778-1.541-3.178-1.711c-2.629-0.203-3.916-0.865-4.168-2.689l-0.004-0.031c-0.241-1.744,1.12-3.238,3.229-3.529
				c1.458-0.201,2.57,0.018,3.687,0.605c0.139,0.076,0.307,0.23,0.339,0.469c0.046,0.334-0.187,0.641-0.52,0.688
				c-0.144,0.02-0.258,0.002-0.38-0.063c-1.029-0.553-1.974-0.713-3.004-0.57c-1.442,0.197-2.252,1.119-2.114,2.119l0.004,0.029
				c0.145,1.047,0.796,1.557,3.31,1.74c2.549,0.199,3.814,0.945,4.049,2.641l0.005,0.033c0.263,1.902-1.152,3.357-3.356,3.662
				C438.134,960.646,436.716,960.324,435.344,959.511z"/>
			<path fill="#FFFFFF" d="M444.725,948.832c-0.048-0.35,0.197-0.674,0.53-0.721c0.349-0.047,0.674,0.197,0.722,0.547l1.379,9.99
				c0.048,0.348-0.198,0.672-0.548,0.721c-0.333,0.045-0.656-0.199-0.706-0.549L444.725,948.832z"/>
			<path fill="#FFFFFF" d="M449.428,953.304l-0.005-0.033c-0.42-3.043,1.444-6.047,4.774-6.506c1.681-0.232,2.836,0.063,3.953,0.666
				c0.157,0.092,0.293,0.25,0.323,0.473c0.048,0.35-0.197,0.674-0.53,0.719c-0.144,0.02-0.278-0.025-0.418-0.104
				c-0.877-0.492-1.821-0.783-3.218-0.59c-2.457,0.338-3.932,2.658-3.59,5.131l0.004,0.031c0.365,2.648,2.334,4.381,5.029,4.01
				c1.269-0.176,2.374-0.828,3.049-1.551l-0.38-2.76l-2.98,0.412c-0.302,0.041-0.591-0.18-0.632-0.48
				c-0.044-0.316,0.175-0.604,0.478-0.646l3.565-0.49c0.335-0.047,0.658,0.199,0.707,0.549l0.466,3.377
				c0.041,0.301-0.063,0.59-0.322,0.818c-0.912,0.887-2.193,1.678-3.842,1.904C452.371,958.714,449.864,956.474,449.428,953.304z"/>
			<path fill="#FFFFFF" d="M461.654,946.511c-0.047-0.332,0.199-0.658,0.533-0.703l0.174-0.025c0.285-0.039,0.479,0.082,0.685,0.277
				l7.924,7.666l-1.153-8.371c-0.047-0.334,0.185-0.656,0.532-0.703c0.333-0.047,0.643,0.201,0.688,0.533l1.382,10.021
				c0.046,0.334-0.157,0.621-0.49,0.666l-0.063,0.008c-0.271,0.039-0.482-0.096-0.703-0.291l-8.095-7.85l1.186,8.594
				c0.046,0.332-0.186,0.654-0.534,0.703c-0.333,0.045-0.642-0.203-0.688-0.535L461.654,946.511z"/>
			<path fill="#FFFFFF" d="M475.539,954.679l-1.355-9.83c-0.049-0.35,0.197-0.674,0.531-0.719l6.896-0.951
				c0.316-0.045,0.605,0.174,0.649,0.49c0.043,0.316-0.176,0.607-0.491,0.65l-6.265,0.863l0.522,3.789l5.55-0.766
				c0.316-0.045,0.607,0.189,0.648,0.492c0.044,0.316-0.175,0.605-0.491,0.648l-5.551,0.766l0.536,3.885l6.343-0.875
				c0.316-0.043,0.605,0.176,0.649,0.492c0.044,0.318-0.175,0.605-0.492,0.648l-6.977,0.963
				C475.912,955.275,475.587,955.029,475.539,954.679z"/>
			<path fill="#FFFFFF" d="M484.803,943.384c-0.049-0.348,0.197-0.674,0.531-0.719l4.153-0.572c1.364-0.189,2.515,0.072,3.309,0.674
				c0.613,0.465,1.038,1.197,1.158,2.07l0.004,0.031c0.252,1.824-0.839,3.057-2.521,3.627l3.247,3.172
				c0.146,0.125,0.245,0.256,0.271,0.432c0.046,0.332-0.231,0.662-0.549,0.705c-0.254,0.035-0.465-0.082-0.633-0.25l-3.684-3.629
				l-3.188,0.439l0.519,3.758c0.048,0.348-0.198,0.672-0.547,0.721c-0.334,0.045-0.658-0.199-0.706-0.549L484.803,943.384z
				 M490.157,947.767c1.665-0.229,2.735-1.25,2.539-2.676l-0.004-0.031c-0.188-1.363-1.35-2.045-3.142-1.797l-3.425,0.473
				l0.621,4.502L490.157,947.767z"/>
			<path fill="#FFFFFF" d="M497.125,950.992c-0.155-0.074-0.273-0.236-0.304-0.443c-0.048-0.348,0.185-0.654,0.518-0.701
				c0.159-0.02,0.312,0.023,0.4,0.092c1.169,0.744,2.273,1.027,3.686,0.834c1.49-0.205,2.364-1.137,2.213-2.23l-0.004-0.031
				c-0.143-1.029-0.778-1.541-3.177-1.711c-2.629-0.203-3.916-0.865-4.168-2.688l-0.004-0.031c-0.241-1.744,1.12-3.24,3.229-3.531
				c1.459-0.201,2.571,0.018,3.688,0.605c0.14,0.078,0.307,0.23,0.339,0.471c0.046,0.332-0.187,0.639-0.519,0.686
				c-0.144,0.02-0.26,0.002-0.381-0.061c-1.029-0.553-1.974-0.713-3.004-0.572c-1.441,0.199-2.253,1.119-2.115,2.119l0.006,0.031
				c0.144,1.047,0.795,1.555,3.309,1.74c2.549,0.197,3.815,0.943,4.049,2.641l0.005,0.033c0.263,1.9-1.152,3.355-3.356,3.662
				C499.915,952.126,498.497,951.804,497.125,950.992z"/>
		</g>
	</g>
	<g id="dont_make_me_think">
		<path fill="#EFEFEF" d="M577.764,1071.822c-2.906,8.346-12.027,12.754-20.373,9.846L456.447,1046.5
			c-8.347-2.906-12.754-12.027-9.847-20.373l48.829-140.16c2.907-8.346,12.028-12.754,20.373-9.846l100.943,35.166
			c8.345,2.906,12.753,12.029,9.846,20.373L577.764,1071.822z"/>
		
			<rect x="494.991" y="908.128" transform="matrix(0.9443 0.329 -0.329 0.9443 337.1237 -130.0498)" fill="none" width="115.66" height="45.899"/>
		<g enable-background="new    ">
			<path d="M547.657,906.707c0.159-0.457,0.663-0.701,1.1-0.549l4.238,1.477c4.571,1.592,6.637,5.83,5.211,9.924l-0.015,0.041
				c-1.427,4.096-5.692,6.172-10.265,4.58l-4.237-1.477c-0.438-0.152-0.681-0.658-0.521-1.113L547.657,906.707z M548.456,920.662
				c3.678,1.281,6.896-0.395,8.018-3.615l0.016-0.041c1.122-3.221-0.345-6.574-4.021-7.854l-3.407-1.189l-4.011,11.512
				L548.456,920.662z"/>
			<path d="M561,918.625l0.015-0.041c1.397-4.01,5.634-6.473,10.06-4.93c4.425,1.541,6.188,6.047,4.791,10.057l-0.014,0.041
				c-1.397,4.012-5.635,6.473-10.061,4.93C561.365,927.14,559.604,922.634,561,918.625z M574.132,923.199l0.015-0.041
				c1.15-3.305-0.317-6.844-3.644-8.002c-3.324-1.158-6.619,0.676-7.77,3.979l-0.015,0.043c-1.15,3.303,0.318,6.844,3.644,8.002
				S572.98,926.503,574.132,923.199z"/>
			<path d="M581.59,918.435c0.152-0.438,0.656-0.68,1.094-0.527l0.229,0.08c0.374,0.131,0.537,0.395,0.665,0.768l4.906,14.338
				l3.821-10.973c0.152-0.436,0.637-0.688,1.094-0.527c0.437,0.152,0.658,0.65,0.508,1.086l-4.575,13.133
				c-0.152,0.436-0.58,0.66-1.017,0.508l-0.084-0.027c-0.353-0.123-0.528-0.42-0.678-0.797l-5-14.672l-3.924,11.26
				c-0.152,0.438-0.635,0.688-1.092,0.529c-0.438-0.152-0.659-0.65-0.507-1.086L581.59,918.435z"/>
			<path d="M596.161,927.029c0.983-0.076,1.517-0.473,1.757-1.297c-0.4-0.256-0.658-0.719-0.47-1.26l0.116-0.334
				c0.188-0.539,0.755-0.832,1.295-0.643c0.604,0.209,0.852,0.834,0.619,1.498l-0.138,0.395c-0.44,1.268-0.972,1.922-1.616,2.234
				c-0.596,0.303-1.349,0.391-1.681,0.275c-0.271-0.096-0.378-0.318-0.292-0.566C595.818,927.144,595.973,927.035,596.161,927.029z"
				/>
			<path d="M606.667,928.035l-4.218-1.471c-0.415-0.145-0.652-0.6-0.508-1.016s0.621-0.645,1.035-0.502l10.1,3.52
				c0.415,0.145,0.646,0.621,0.501,1.037c-0.146,0.414-0.614,0.623-1.03,0.479l-4.218-1.469l-4.286,12.301
				c-0.159,0.457-0.664,0.701-1.121,0.541c-0.457-0.158-0.701-0.664-0.542-1.121L606.667,928.035z"/>
		</g>
		<g enable-background="new    ">
			<path d="M507.073,918.945c0.151-0.438,0.655-0.68,1.093-0.527l0.188,0.064c0.354,0.123,0.537,0.396,0.617,0.705l2.474,9.621
				l7.916-6.002c0.26-0.213,0.588-0.283,0.92-0.168l0.188,0.064c0.438,0.15,0.681,0.656,0.528,1.092l-4.555,13.07
				c-0.158,0.457-0.663,0.699-1.1,0.547c-0.458-0.158-0.693-0.684-0.542-1.119l3.779-10.846l-7.036,5.213
				c-0.281,0.205-0.54,0.277-0.831,0.178c-0.291-0.102-0.468-0.326-0.562-0.662l-2.26-8.43l-3.777,10.846
				c-0.16,0.459-0.637,0.688-1.094,0.529c-0.437-0.152-0.666-0.629-0.508-1.086L507.073,918.945z"/>
			<path d="M519.782,937.632l10.396-10.848c0.367-0.385,0.773-0.547,1.292-0.365l0.083,0.029c0.498,0.174,0.737,0.559,0.766,1.08
				l1.412,14.938c0.012,0.168,0.002,0.328-0.041,0.451c-0.152,0.438-0.629,0.668-1.065,0.516c-0.396-0.137-0.571-0.502-0.601-0.885
				l-0.352-3.873l-7.979-2.779l-2.696,2.857c-0.271,0.303-0.611,0.416-0.986,0.285c-0.416-0.145-0.631-0.594-0.487-1.008
				C519.57,937.908,519.641,937.769,519.782,937.632z M531.551,936.955l-0.754-8.604l-5.937,6.273L531.551,936.955z"/>
			<path d="M541.4,930.88c0.158-0.457,0.662-0.701,1.101-0.549c0.456,0.158,0.7,0.664,0.541,1.121l-2.772,7.959l11.252-5.611
				c0.244-0.1,0.476-0.16,0.744-0.066c0.438,0.152,0.652,0.672,0.509,1.086c-0.08,0.229-0.249,0.379-0.474,0.488l-6.934,3.316
				l3.152,8.74c0.079,0.236,0.104,0.432,0.018,0.682c-0.152,0.436-0.663,0.701-1.12,0.541c-0.312-0.107-0.461-0.348-0.535-0.605
				l-3.069-8.643l-4.231,2.045l-1.101,3.158c-0.159,0.457-0.663,0.701-1.12,0.541c-0.438-0.152-0.681-0.656-0.521-1.113
				L541.4,930.88z"/>
			<path d="M551.709,949.037l4.488-12.883c0.158-0.457,0.663-0.701,1.101-0.551l9.038,3.15c0.415,0.145,0.632,0.592,0.487,1.008
				c-0.146,0.416-0.593,0.633-1.009,0.488l-8.209-2.859l-1.729,4.965l7.272,2.533c0.414,0.146,0.625,0.615,0.486,1.01
				c-0.145,0.416-0.593,0.633-1.009,0.486l-7.272-2.533l-1.772,5.092l8.312,2.895c0.416,0.146,0.633,0.594,0.487,1.01
				c-0.145,0.416-0.593,0.633-1.008,0.486l-9.142-3.184C551.793,949.998,551.55,949.492,551.709,949.037z"/>
			<path d="M576.377,943.089c0.152-0.436,0.656-0.678,1.093-0.525l0.188,0.064c0.354,0.123,0.538,0.396,0.617,0.703l2.473,9.621
				l7.916-6c0.26-0.213,0.588-0.285,0.921-0.17l0.188,0.064c0.436,0.152,0.68,0.654,0.526,1.094l-4.553,13.066
				c-0.16,0.457-0.664,0.701-1.1,0.549c-0.458-0.158-0.694-0.684-0.542-1.119l3.777-10.846l-7.036,5.213
				c-0.279,0.205-0.539,0.279-0.83,0.18c-0.291-0.102-0.469-0.328-0.562-0.662l-2.259-8.432l-3.779,10.848
				c-0.159,0.457-0.635,0.688-1.092,0.527c-0.438-0.152-0.667-0.629-0.507-1.086L576.377,943.089z"/>
			<path d="M589.893,962.339l4.488-12.883c0.159-0.457,0.663-0.701,1.1-0.549l9.039,3.146c0.416,0.146,0.632,0.596,0.486,1.01
				c-0.145,0.416-0.593,0.633-1.008,0.486l-8.207-2.857l-1.73,4.965l7.271,2.535c0.416,0.145,0.625,0.611,0.488,1.008
				c-0.146,0.416-0.594,0.633-1.01,0.486l-7.271-2.533l-1.773,5.092l8.312,2.895c0.416,0.146,0.632,0.594,0.487,1.01
				c-0.146,0.416-0.594,0.633-1.008,0.486l-9.144-3.184C589.977,963.3,589.732,962.794,589.893,962.339z"/>
		</g>
		<g enable-background="new    ">
			<path fill="#DD4444" d="M528.141,957.222l-3.531-1.229c-0.665-0.232-0.997-0.953-0.772-1.6c0.226-0.645,0.933-1.002,1.599-0.77
				l9.66,3.365c0.646,0.225,0.976,0.945,0.751,1.59s-0.932,1.004-1.575,0.779l-3.554-1.238l-3.836,11.012
				c-0.246,0.707-1.023,1.066-1.729,0.82c-0.707-0.246-1.094-1.012-0.848-1.717L528.141,957.222z"/>
			<path fill="#DD4444" d="M538.449,959.462c0.246-0.707,1.002-1.072,1.729-0.82c0.707,0.246,1.072,1.006,0.826,1.711l-1.701,4.885
				l6.94,2.418l1.701-4.883c0.245-0.707,1.003-1.074,1.709-0.828c0.728,0.254,1.093,1.01,0.847,1.717l-4.257,12.217
				c-0.246,0.707-1.002,1.072-1.729,0.82c-0.707-0.246-1.072-1.004-0.826-1.709l1.73-4.969l-6.94-2.418l-1.729,4.969
				c-0.246,0.705-1.002,1.07-1.709,0.824c-0.729-0.254-1.093-1.01-0.848-1.717L538.449,959.462z"/>
			<path fill="#DD4444" d="M554.383,965.013c0.246-0.707,1.003-1.07,1.729-0.818c0.707,0.246,1.071,1.004,0.825,1.711l-4.257,12.217
				c-0.245,0.705-1.002,1.072-1.709,0.826c-0.727-0.254-1.093-1.012-0.847-1.717L554.383,965.013z"/>
			<path fill="#DD4444" d="M560.809,967.298c0.246-0.705,1.01-1.092,1.736-0.838l0.271,0.094c0.623,0.217,0.867,0.65,1.068,1.211
				l3.993,11.945l3.113-8.934c0.239-0.688,0.995-1.053,1.681-0.814c0.707,0.246,1.072,1.004,0.833,1.689l-4.257,12.217
				c-0.246,0.707-0.982,1.08-1.688,0.834l-0.104-0.037c-0.603-0.209-0.868-0.652-1.062-1.232l-4.107-12.287l-3.214,9.227
				c-0.238,0.684-0.995,1.051-1.682,0.811c-0.706-0.244-1.07-1.002-0.833-1.688L560.809,967.298z"/>
			<path fill="#DD4444" d="M577.234,972.976c0.246-0.707,1.003-1.072,1.729-0.818c0.706,0.246,1.071,1.002,0.825,1.709l-2.143,6.148
				l9.314-4.533c0.399-0.211,0.77-0.271,1.227-0.111c0.707,0.246,0.989,0.975,0.771,1.6c-0.138,0.395-0.405,0.625-0.79,0.795
				l-6.049,2.787l2.783,7.795c0.112,0.344,0.172,0.643,0.034,1.037c-0.246,0.707-0.996,1.053-1.724,0.799
				c-0.499-0.174-0.724-0.533-0.87-0.979l-2.598-7.592l-3.165,1.459l-1.05,3.014c-0.246,0.705-1.002,1.072-1.708,0.826
				c-0.729-0.254-1.093-1.012-0.847-1.717L577.234,972.976z"/>
			<path fill="#DD4444" d="M589.688,988.988c0.853,0.297,1.259,1.137,0.977,1.947l-0.072,0.207c-0.281,0.813-1.123,1.219-1.975,0.92
				c-0.831-0.287-1.258-1.137-0.977-1.945l0.072-0.209C587.995,989.097,588.855,988.699,589.688,988.988z M591.955,977.732
				c0.132-0.514,0.561-0.807,1.038-0.641l1.496,0.521c0.478,0.166,0.651,0.67,0.437,1.152l-3.681,8.225
				c-0.201,0.443-0.613,0.625-1.029,0.48s-0.604-0.537-0.487-1.01L591.955,977.732z"/>
		</g>
	</g>
</g>
</svg>
