<?xml version="1.0" encoding="utf-8"?>
<!-- Generator: Adobe Illustrator 16.0.0, SVG Export Plug-In . SVG Version: 6.00 Build 0)  -->
<!DOCTYPE svg PUBLIC "-//W3C//DTD SVG 1.1//EN" "http://www.w3.org/Graphics/SVG/1.1/DTD/svg11.dtd">
<svg version="1.1" id="Layer_1" xmlns="http://www.w3.org/2000/svg" xmlns:xlink="http://www.w3.org/1999/xlink" x="0px" y="0px"
	 width="1832.691px" height="994.053px" viewBox="196 137.975 1832.691 994.053"
	 enable-background="new 196 137.975 1832.691 994.053" xml:space="preserve">
	 <defs>
	 	<style>
<!-- 	 		@media (max-width: 760px) {
	 		  #table-2, #books, #shadow-2 {
	 		    display: none;
	 		  }
	 		  #shadow {
	 		   display: inline;
	 		  }
	 		} -->
	 	</style>
	 </defs>
<path id="table" fill="#BA813D" d="M2028.691,1111.229c0,11.482-9.313,20.799-20.795,20.799H636.794
	c-11.483,0-20.794-9.314-20.794-20.799V714.842c0-11.479,9.311-20.795,20.794-20.795h1371.104c11.479,0,20.793,9.314,20.793,20.795
	V1111.229L2028.691,1111.229z"/>
<path id="table-2" fill="#BA813D" d="M1608.691,1111.229c0,11.482-9.313,20.799-20.795,20.799H216.794
	c-11.483,0-20.794-9.314-20.794-20.799V714.842c0-11.479,9.311-20.795,20.794-20.795h1371.104c11.479,0,20.793,9.314,20.793,20.795
	V1111.229L1608.691,1111.229z"/>
<g id="mug">
	
		<line fill="none" stroke="#3FA9F5" stroke-width="12" stroke-linecap="round" stroke-miterlimit="10" x1="974.326" y1="194.993" x2="980.545" y2="308.71"/>
	<path fill="#1693A5" d="M947.035,392.619c-17.803,0-32.284-14.482-32.284-32.284s14.481-32.284,32.284-32.284
		c17.802,0,32.284,14.482,32.284,32.284S964.837,392.619,947.035,392.619z M947.035,338.051c-12.287,0-22.284,9.997-22.284,22.284
		s9.997,22.284,22.284,22.284s22.284-9.997,22.284-22.284S959.322,338.051,947.035,338.051z"/>
	
		<rect x="941.938" y="293.326" transform="matrix(-0.9316 0.3634 -0.3634 -0.9316 2034.9122 261.6659)" fill="#1693A5" width="101.807" height="57.852"/>
	<path fill="#1693A5" d="M955.275,366.013c10.953,26.417,40,38.601,65.944,28.479c25.95-10.121,39.078-38.748,29.261-65.606
		L955.275,366.013z"/>
</g>
<g id="book">
	<path fill="#956420" d="M886.844,983.889c2.104,11.73-5.617,22.934-17.24,25.016l-103.897,18.605
		c-11.623,2.084-22.749-5.732-24.854-17.469L715.41,868.012c-2.104-11.729,5.616-22.928,17.234-25.008l103.902-18.615
		c11.62-2.08,22.747,5.74,24.854,17.477L886.844,983.889z"/>
	<path fill="#956420" d="M1028.936,959.036c2.104,11.729-5.611,22.928-17.234,25.008l-103.904,18.615
		c-11.62,2.082-22.746-5.738-24.848-17.469L857.5,843.161c-2.102-11.73,5.617-22.928,17.238-25.008l103.898-18.613
		c11.621-2.084,22.748,5.738,24.854,17.467L1028.936,959.036z"/>
	<path fill="#EEEEEE" d="M886.885,980.176c2.027,11.311-5.496,22.109-16.801,24.137l-101.061,18.104
		c-11.311,2.025-22.112-5.498-24.142-16.801l-24.521-136.881c-2.024-11.311,5.498-22.111,16.802-24.141l101.063-18.104
		c11.308-2.025,22.106,5.496,24.137,16.801L886.885,980.176z"/>
	<path fill="#EEEEEE" d="M1028.885,954.739c2.024,11.305-5.498,22.104-16.802,24.135l-101.062,18.104
		c-11.31,2.025-22.109-5.492-24.142-16.803l-24.52-136.881c-2.027-11.305,5.495-22.109,16.801-24.135l101.061-18.105
		c11.311-2.02,22.108,5.498,24.14,16.807L1028.885,954.739z"/>
	<g id="binding">
		<path fill="none" stroke="#CCCCCC" stroke-width="4" stroke-linecap="round" stroke-miterlimit="10" d="M856.131,857.167
			c0,0-1.934-9.736,6.663-11.275c8.596-1.539,10.101,8.273,10.101,8.273"/>
		<path fill="none" stroke="#CCCCCC" stroke-width="4" stroke-linecap="round" stroke-miterlimit="10" d="M859.911,878.262
			c0,0-1.481-7.453,3.906-10.348c0.769-0.414,1.679-0.734,2.755-0.928c8.598-1.541,10.102,8.271,10.102,8.271"/>
		<path fill="none" stroke="#CCCCCC" stroke-width="4" stroke-linecap="round" stroke-miterlimit="10" d="M863.689,899.362
			c0,0-1.938-9.734,6.662-11.273c8.598-1.541,10.102,8.271,10.102,8.271"/>
		<path fill="none" stroke="#CCCCCC" stroke-width="4" stroke-linecap="round" stroke-miterlimit="10" d="M867.589,921.127
			c0,0-1.936-9.734,6.662-11.275c8.596-1.533,10.101,8.271,10.101,8.271"/>
		<path fill="none" stroke="#CCCCCC" stroke-width="4" stroke-linecap="round" stroke-miterlimit="10" d="M871.37,942.225
			c0,0-1.481-7.445,3.906-10.348c0.769-0.414,1.68-0.734,2.755-0.928c8.596-1.541,10.1,8.271,10.1,8.271"/>
		<path fill="none" stroke="#CCCCCC" stroke-width="4" stroke-linecap="round" stroke-miterlimit="10" d="M875.148,963.325
			c0,0-1.938-9.734,6.662-11.277c8.596-1.539,10.101,8.273,10.101,8.273"/>
	</g>
</g>
<g id="Octopus">
	<path fill="none" stroke="#5E2E5F" stroke-width="36" stroke-linecap="round" stroke-miterlimit="10" d="M1148.846,638.167
		c0,0-140.354-66.143-178.048,22.162c-37.688,88.307,75.378,181.879,170.25,128.594"/>
	<circle fill="#5E2E5F" cx="1347.765" cy="610.576" r="219.645"/>
	<path fill="none" stroke="#5E2E5F" stroke-width="36" stroke-linecap="round" stroke-miterlimit="10" d="M1164.441,579.68
		c0,0-437.541-188.438-389.893,243.031"/>
	<path fill="none" stroke="#5E2E5F" stroke-width="36" stroke-linecap="round" stroke-miterlimit="10" d="M1164.441,517.299
		c0,0-88.374-35.089-175.449-36.388c-87.075-1.3-107.869-41.588-100.071-63.688c7.798-22.094,41.588-41.588,41.588-41.588"/>
	<path fill="none" stroke="#5E2E5F" stroke-width="36" stroke-linecap="round" stroke-miterlimit="10" d="M1194.366,468.422
		c0,0-123.627-27.296-52.955-183.466c70.674-156.17-114.146-171.503-156.39-40.579"/>
	<path fill="none" stroke="#5E2E5F" stroke-width="36" stroke-linecap="round" stroke-miterlimit="10" d="M1525.737,517.299
		c0,0,85.774-85.825,228.733,21.42c142.959,107.242,160.041-53.928,160.041-53.928"/>
	<path fill="none" stroke="#5E2E5F" stroke-width="36" stroke-linecap="round" stroke-miterlimit="10" d="M1551.729,569.286
		c0,0,275.146-32.521,352.657,250.166"/>
	<path fill="none" stroke="#5E2E5F" stroke-width="36" stroke-linecap="round" stroke-miterlimit="10" d="M1501.044,468.422
		c0,0,61.083-134.369,207.94-92.781c146.854,41.588,166.352-98.771,166.352-98.771"/>
	<path fill="none" stroke="#5E2E5F" stroke-width="36" stroke-linecap="round" stroke-miterlimit="10" d="M1818.598,367.777"/>
	<path fill="none" stroke="#5E2E5F" stroke-width="36" stroke-linecap="round" stroke-miterlimit="10" d="M1543.932,627.768
		c0,0,181.947-38.127,189.745,118.697c7.798,156.822-166.268,76.246-166.268,76.246"/>
	<g id="eye_left">
		<ellipse fill="#EEEEEE" cx="1253.688" cy="616.383" rx="61.952" ry="65.969"/>
		<ellipse fill="#111111" cx="1250.895" cy="631.945" rx="41.952" ry="44.673"/>
	</g>
	<g id="eye_right">
		<ellipse fill="#EEEEEE" cx="1445.497" cy="616.383" rx="61.952" ry="65.969"/>
		<ellipse fill="#111111" cx="1442.706" cy="631.945" rx="41.952" ry="44.673"/>
	</g>
</g>
<path fill="#DFFF5F" d="M1654.217,985.627c0,12.801-10.375,23.176-23.175,23.176h-532.414c-12.8,0-23.175-10.375-23.175-23.176
	V683.502c0-12.799,10.375-23.176,23.175-23.176h532.414c12.8,0,23.175,10.377,23.175,23.176V985.627z"/>
<g id="pencil">
	<polygon fill="#F1C47D" points="823.832,838.625 823.22,891.53 781.79,858.627 	"/>
	<polygon fill="#1A1A1A" points="823.48,861.192 823.124,891.35 799.497,872.6 	"/>
	
		<ellipse transform="matrix(0.4296 0.903 -0.903 0.4296 1091.8252 -256.7407)" fill="#E54124" cx="749.138" cy="735.873" rx="23.455" ry="23.275"/>
	
		<rect x="752.687" y="729.82" transform="matrix(-0.903 0.4296 -0.4296 -0.903 1817.6082 1174.0037)" fill="#FBB829" width="47.188" height="124.712"/>
	
		<rect x="753.802" y="734.977" transform="matrix(-0.903 0.4296 -0.4296 -0.903 1799.4944 1188.4017)" opacity="0.2" enable-background="new    " width="23.594" height="124.708"/>
	<circle fill="#420943" cx="792.287" cy="819.452" r="40.291"/>
</g>
<g id="pen">
	
		<rect x="1946.18" y="331.106" transform="matrix(-0.6173 0.7867 -0.7867 -0.6173 3422.5166 -996.899)" fill="#666666" width="15.091" height="5.746"/>
	<g>
		<line fill="none" x1="1826.314" y1="251.584" x2="1811.615" y2="240.052"/>
		<path fill="#1A1A1A" d="M1809.354,238.279c0.979-1.248,2.787-1.466,4.033-0.487l14.701,11.531
			c1.248,0.979,1.467,2.789,0.487,4.036c-0.979,1.249-2.787,1.467-4.035,0.487l-14.7-11.53
			C1808.591,241.335,1808.372,239.529,1809.354,238.279z"/>
	</g>
	
		<rect x="1814.875" y="240.935" transform="matrix(0.6172 -0.7868 0.7868 0.6172 501.7996 1531.9542)" fill="#666666" width="20.838" height="18.682"/>
	
		<rect x="1931.094" y="280.413" transform="matrix(0.6174 -0.7867 0.7867 0.6174 494.9452 1640.2255)" fill="#666666" width="5.03" height="61.801"/>
	
		<rect x="1874.268" y="218.695" transform="matrix(0.6172 -0.7868 0.7868 0.6172 486.7285 1600.2098)" fill="#999999" width="27.306" height="162.385"/>
	
		<rect x="1900.893" y="318.636" transform="matrix(0.6172 -0.7868 0.7868 0.6172 480.459 1629.1447)" opacity="0.2" enable-background="new    " width="27.303" height="4.312"/>
	<path fill="#666666" stroke="#1A1A1A" stroke-width="8" stroke-linecap="round" stroke-miterlimit="10" d="M1830.282,267.482"/>
	<circle fill="#420943" cx="1857.979" cy="277.507" r="40.291"/>
</g>
<g id="books">
	<g id="the_elements_of_typographic_style">
		<path fill="#333333" d="M531.953,1005.295c-3.441,8.143-12.828,11.949-20.968,8.508l-110.148-46.561
			c-8.139-3.441-11.948-12.828-8.507-20.969l71.22-168.48c3.441-8.141,12.828-11.949,20.968-8.508l110.147,46.561
			c8.139,3.441,11.947,12.828,8.507,20.973L531.953,1005.295z"/>
		
			<rect x="446.276" y="801.263" transform="matrix(0.9211 0.3894 -0.3894 0.9211 378.5434 -129.05)" fill="none" width="122.674" height="136.008"/>
		<g enable-background="new    ">
			<path fill="#FFFFFF" d="M480.91,785.905l-2.805-1.188c-0.276-0.117-0.418-0.438-0.302-0.713c0.117-0.275,0.451-0.412,0.729-0.297
				l6.715,2.84c0.276,0.117,0.411,0.451,0.294,0.729c-0.117,0.275-0.444,0.396-0.721,0.281l-2.806-1.186l-3.458,8.178
				c-0.128,0.305-0.481,0.447-0.785,0.318c-0.305-0.127-0.447-0.482-0.319-0.785L480.91,785.905z"/>
			<path fill="#FFFFFF" d="M487.529,788.083c0.128-0.303,0.48-0.447,0.771-0.324c0.306,0.129,0.448,0.482,0.319,0.787l-1.612,3.813
				l5.582,2.359l1.612-3.813c0.128-0.305,0.48-0.447,0.786-0.318c0.29,0.123,0.434,0.477,0.306,0.781l-3.68,8.703
				c-0.129,0.303-0.483,0.447-0.773,0.324c-0.304-0.127-0.448-0.482-0.318-0.785l1.635-3.869l-5.581-2.359l-1.636,3.867
				c-0.129,0.305-0.482,0.449-0.786,0.32c-0.29-0.123-0.435-0.479-0.306-0.781L487.529,788.083z"/>
			<path fill="#FFFFFF" d="M494.379,801.157l3.621-8.564c0.129-0.305,0.482-0.449,0.771-0.326l6.012,2.541
				c0.274,0.117,0.404,0.432,0.287,0.707c-0.117,0.277-0.433,0.404-0.708,0.287l-5.458-2.307l-1.396,3.303l4.835,2.043
				c0.276,0.117,0.398,0.445,0.288,0.709c-0.117,0.275-0.432,0.402-0.708,0.285l-4.836-2.043l-1.431,3.385l5.525,2.336
				c0.276,0.117,0.403,0.434,0.287,0.707c-0.117,0.277-0.432,0.404-0.708,0.287l-6.079-2.568
				C494.395,801.815,494.25,801.459,494.379,801.157z"/>
		</g>
		<g enable-background="new    ">
			<path fill="#FFFFFF" d="M466.749,812.276l3.622-8.566c0.128-0.305,0.482-0.449,0.771-0.326l6.011,2.541
				c0.275,0.117,0.403,0.434,0.286,0.707c-0.116,0.277-0.431,0.404-0.707,0.287l-5.457-2.307l-1.396,3.303l4.836,2.045
				c0.276,0.115,0.397,0.443,0.286,0.707c-0.116,0.275-0.431,0.404-0.707,0.287l-4.836-2.045l-1.431,3.385l5.525,2.336
				c0.277,0.117,0.404,0.434,0.288,0.709c-0.117,0.275-0.432,0.404-0.708,0.287l-6.079-2.57
				C466.764,812.932,466.62,812.579,466.749,812.276z"/>
			<path fill="#FFFFFF" d="M479.656,807.553c0.128-0.305,0.481-0.447,0.771-0.324c0.305,0.129,0.447,0.48,0.319,0.785l-3.458,8.18
				l5.015,2.121c0.276,0.115,0.398,0.443,0.282,0.721c-0.117,0.275-0.432,0.404-0.708,0.287l-5.567-2.354
				c-0.291-0.123-0.435-0.477-0.306-0.779L479.656,807.553z"/>
			<path fill="#FFFFFF" d="M484.558,819.803l3.622-8.564c0.128-0.305,0.482-0.449,0.772-0.326l6.01,2.541
				c0.276,0.117,0.404,0.432,0.287,0.707c-0.117,0.277-0.431,0.404-0.708,0.287l-5.457-2.307l-1.396,3.303l4.836,2.043
				c0.275,0.117,0.397,0.445,0.287,0.709c-0.116,0.275-0.432,0.402-0.707,0.287l-4.837-2.045l-1.431,3.385l5.526,2.336
				c0.276,0.117,0.403,0.432,0.288,0.709c-0.117,0.275-0.433,0.404-0.708,0.287l-6.079-2.57
				C484.573,820.461,484.43,820.108,484.558,819.803z"/>
			<path fill="#FFFFFF" d="M497.46,815.094c0.122-0.289,0.478-0.434,0.767-0.311l0.125,0.053c0.235,0.1,0.349,0.295,0.389,0.506
				l1.258,6.656l5.65-3.734c0.187-0.135,0.412-0.168,0.634-0.074l0.125,0.053c0.29,0.123,0.433,0.477,0.311,0.766l-3.674,8.691
				c-0.129,0.303-0.481,0.447-0.772,0.324c-0.304-0.127-0.441-0.496-0.318-0.785l3.049-7.213l-5.016,3.236
				c-0.201,0.127-0.379,0.166-0.573,0.084s-0.305-0.242-0.353-0.475l-1.166-5.834l-3.05,7.211c-0.128,0.305-0.462,0.439-0.767,0.313
				c-0.29-0.123-0.426-0.457-0.297-0.762L497.46,815.094z"/>
			<path fill="#FFFFFF" d="M505.808,828.788l3.621-8.566c0.129-0.303,0.483-0.447,0.773-0.324l6.01,2.541
				c0.276,0.115,0.404,0.432,0.287,0.707c-0.117,0.277-0.432,0.404-0.708,0.287l-5.457-2.307l-1.396,3.301l4.836,2.045
				c0.275,0.117,0.397,0.445,0.287,0.707c-0.117,0.277-0.433,0.404-0.709,0.287l-4.835-2.043l-1.431,3.385l5.526,2.336
				c0.276,0.117,0.403,0.432,0.286,0.707c-0.115,0.277-0.431,0.404-0.707,0.287l-6.078-2.568
				C505.823,829.446,505.679,829.09,505.808,828.788z"/>
			<path fill="#FFFFFF" d="M518.709,824.079c0.123-0.289,0.477-0.434,0.768-0.311l0.151,0.064c0.249,0.104,0.349,0.293,0.418,0.551
				l2.707,9.971l3.083-7.295c0.123-0.289,0.463-0.438,0.768-0.311c0.289,0.123,0.42,0.471,0.297,0.76l-3.691,8.732
				c-0.123,0.289-0.423,0.424-0.713,0.301l-0.057-0.023c-0.233-0.1-0.342-0.309-0.426-0.57l-2.754-10.203l-3.166,7.488
				c-0.122,0.291-0.463,0.439-0.767,0.313c-0.29-0.123-0.419-0.473-0.297-0.762L518.709,824.079z"/>
			<path fill="#FFFFFF" d="M531.964,830.286l-2.805-1.186c-0.275-0.117-0.417-0.438-0.3-0.715c0.115-0.275,0.451-0.412,0.727-0.295
				l6.715,2.838c0.276,0.117,0.412,0.453,0.295,0.729s-0.444,0.398-0.722,0.283l-2.805-1.188l-3.457,8.178
				c-0.129,0.305-0.482,0.449-0.787,0.32c-0.304-0.129-0.448-0.482-0.319-0.787L531.964,830.286z"/>
			<path fill="#FFFFFF" d="M534.637,840.258c-0.089-0.137-0.107-0.322-0.031-0.504c0.129-0.303,0.463-0.438,0.753-0.314
				c0.138,0.059,0.238,0.166,0.278,0.264c0.585,1.158,1.34,1.918,2.568,2.438c1.299,0.551,2.447,0.223,2.851-0.732l0.013-0.025
				c0.38-0.898,0.111-1.613-1.738-2.9c-2.02-1.426-2.738-2.574-2.066-4.164l0.013-0.027c0.643-1.52,2.456-2.072,4.293-1.295
				c1.271,0.537,2.063,1.246,2.678,2.256c0.076,0.129,0.136,0.334,0.048,0.541c-0.123,0.289-0.457,0.426-0.747,0.303
				c-0.125-0.053-0.209-0.119-0.276-0.23c-0.564-0.938-1.247-1.521-2.146-1.9c-1.257-0.531-2.351-0.178-2.719,0.691l-0.013,0.027
				c-0.385,0.91-0.104,1.635,1.832,2.988c1.957,1.381,2.617,2.588,1.992,4.066l-0.011,0.027c-0.701,1.658-2.538,2.152-4.458,1.342
				C536.34,842.508,535.354,841.571,534.637,840.258z"/>
			<path fill="#FFFFFF" d="M549.084,842.067l0.012-0.029c1.127-2.666,4.117-4.152,7.061-2.908c2.942,1.242,3.943,4.385,2.815,7.053
				l-0.012,0.027c-1.127,2.666-4.117,4.154-7.062,2.91C548.957,847.875,547.957,844.733,549.084,842.067z M557.814,845.756
				l0.013-0.027c0.929-2.195,0.085-4.67-2.125-5.604c-2.211-0.936-4.533,0.168-5.462,2.365l-0.012,0.025
				c-0.929,2.197-0.086,4.672,2.125,5.605C554.565,849.055,556.887,847.954,557.814,845.756z"/>
			<path fill="#FFFFFF" d="M563.078,842.903c0.129-0.305,0.482-0.449,0.771-0.326l5.982,2.529c0.275,0.115,0.404,0.432,0.287,0.707
				c-0.117,0.277-0.438,0.42-0.714,0.303l-5.431-2.297l-1.46,3.455l4.809,2.031c0.275,0.117,0.403,0.432,0.288,0.707
				c-0.117,0.277-0.433,0.404-0.708,0.287l-4.809-2.033l-1.577,3.73c-0.129,0.305-0.481,0.449-0.787,0.318
				c-0.289-0.121-0.433-0.477-0.305-0.779L563.078,842.903z"/>
		</g>
		<g enable-background="new    ">
			<path fill="#FFFFFF" d="M464.012,825.028l-2.349-0.992c-0.441-0.189-0.636-0.693-0.455-1.121s0.679-0.641,1.121-0.455
				l6.425,2.717c0.429,0.182,0.622,0.688,0.441,1.115c-0.182,0.428-0.679,0.641-1.107,0.459l-2.361-0.998l-3.097,7.322
				c-0.199,0.471-0.743,0.68-1.213,0.48c-0.47-0.197-0.699-0.734-0.501-1.205L464.012,825.028z"/>
			<path fill="#FFFFFF" d="M471.477,833.295l-1.396-5.979c-0.04-0.213-0.042-0.441,0.058-0.678c0.193-0.455,0.719-0.656,1.201-0.451
				c0.373,0.156,0.534,0.471,0.613,0.861l1.053,5.021l4.382-2.74c0.336-0.215,0.673-0.318,1.032-0.166
				c0.497,0.209,0.671,0.725,0.479,1.18c-0.1,0.234-0.297,0.395-0.492,0.508l-5.212,3.121l-1.28,3.027
				c-0.198,0.469-0.729,0.686-1.213,0.48c-0.469-0.199-0.686-0.73-0.486-1.199L471.477,833.295z"/>
			<path fill="#FFFFFF" d="M480.509,831.157c0.205-0.484,0.735-0.699,1.218-0.496l2.957,1.25c2.267,0.959,3.133,2.84,2.309,4.787
				l-0.012,0.025c-0.916,2.17-3.137,2.566-5.265,1.668l-1.921-0.813l-0.987,2.336c-0.197,0.469-0.729,0.686-1.198,0.486
				c-0.483-0.205-0.698-0.736-0.5-1.205L480.509,831.157z M482.42,836.879c1.285,0.543,2.389,0.164,2.816-0.844l0.012-0.027
				c0.479-1.133-0.085-2.07-1.355-2.607l-1.977-0.836l-1.472,3.48L482.42,836.879z"/>
			<path fill="#FFFFFF" d="M487.616,838.881l0.012-0.027c1.15-2.723,4.214-4.111,7.185-2.857c2.972,1.256,4.092,4.385,2.94,7.107
				l-0.011,0.025c-1.151,2.723-4.215,4.113-7.186,2.857C487.586,844.733,486.465,841.604,487.616,838.881z M495.947,842.405
				l0.012-0.027c0.794-1.879,0.086-4.018-1.834-4.83c-1.921-0.813-3.909,0.154-4.704,2.033l-0.011,0.027
				c-0.795,1.879-0.081,4.004,1.839,4.816C493.17,845.237,495.152,844.284,495.947,842.405z"/>
			<path fill="#FFFFFF" d="M499.359,843.846l0.012-0.027c1.145-2.707,4.188-4.125,7.103-2.893c1.45,0.613,2.271,1.367,2.888,2.377
				c0.112,0.193,0.193,0.506,0.054,0.836c-0.192,0.455-0.73,0.688-1.2,0.486c-0.221-0.092-0.346-0.26-0.441-0.414
				c-0.431-0.719-0.979-1.309-2.028-1.754c-1.782-0.752-3.796,0.236-4.579,2.088l-0.011,0.027c-0.841,1.988-0.148,4.008,1.827,4.844
				c0.912,0.385,1.863,0.445,2.646,0.254l0.765-1.809l-1.906-0.807c-0.415-0.176-0.625-0.639-0.45-1.055
				c0.175-0.414,0.661-0.6,1.075-0.424l2.693,1.139c0.483,0.203,0.699,0.734,0.494,1.219l-1.092,2.584
				c-0.204,0.482-0.544,0.748-1.05,0.826c-1.063,0.201-2.434,0.209-3.884-0.404C499.247,849.663,498.168,846.667,499.359,843.846z"
				/>
			<path fill="#FFFFFF" d="M512.314,844.6c0.205-0.482,0.734-0.697,1.219-0.494l3.454,1.461c1.216,0.514,2.017,1.275,2.382,2.146
				c0.289,0.74,0.275,1.582-0.08,2.426l-0.012,0.027c-0.654,1.547-1.95,2.105-3.417,1.959l0.863,3.115
				c0.078,0.279,0.113,0.504,0.003,0.768c-0.199,0.471-0.734,0.619-1.148,0.443c-0.387-0.164-0.561-0.449-0.643-0.793l-1.08-3.992
				l-2.143-0.904l-1.099,2.6c-0.198,0.469-0.729,0.684-1.199,0.484c-0.483-0.205-0.699-0.734-0.5-1.205L512.314,844.6z
				 M514.836,850.307c1.216,0.516,2.258,0.207,2.673-0.773l0.013-0.027c0.438-1.037-0.069-1.918-1.326-2.449l-2.474-1.047
				l-1.372,3.248L514.836,850.307z"/>
			<path fill="#FFFFFF" d="M518.492,856.299l6.979-6.494c0.374-0.348,0.831-0.463,1.314-0.26l0.083,0.035
				c0.483,0.205,0.704,0.607,0.717,1.117l0.204,9.531c0.017,0.152-0.009,0.289-0.057,0.4c-0.191,0.455-0.688,0.67-1.146,0.477
				c-0.401-0.168-0.578-0.521-0.578-0.945l-0.021-2.143l-4.697-1.984l-1.604,1.52c-0.284,0.287-0.656,0.359-1.016,0.207
				c-0.441-0.188-0.642-0.68-0.455-1.121C518.271,856.514,518.364,856.409,518.492,856.299z M525.977,856.239l-0.047-4.627
				l-3.353,3.189L525.977,856.239z"/>
			<path fill="#FFFFFF" d="M532.982,853.338c0.205-0.482,0.735-0.699,1.22-0.494l2.957,1.25c2.266,0.957,3.131,2.838,2.308,4.787
				l-0.012,0.027c-0.917,2.168-3.137,2.564-5.264,1.666l-1.922-0.813l-0.986,2.334c-0.198,0.471-0.729,0.688-1.199,0.488
				c-0.483-0.205-0.699-0.736-0.5-1.205L532.982,853.338z M534.895,859.065c1.285,0.543,2.391,0.164,2.816-0.846l0.011-0.025
				c0.479-1.135-0.085-2.072-1.355-2.609l-1.977-0.836l-1.472,3.48L534.895,859.065z"/>
			<path fill="#FFFFFF" d="M542.248,857.159c0.199-0.471,0.729-0.686,1.213-0.48c0.47,0.199,0.686,0.729,0.486,1.199l-1.373,3.246
				l4.613,1.951l1.373-3.246c0.199-0.471,0.729-0.688,1.199-0.486c0.483,0.203,0.699,0.734,0.5,1.205l-3.434,8.123
				c-0.199,0.469-0.729,0.686-1.213,0.48c-0.469-0.199-0.686-0.73-0.487-1.199l1.396-3.303l-4.613-1.951L540.513,866
				c-0.198,0.469-0.729,0.684-1.198,0.486c-0.484-0.205-0.699-0.736-0.5-1.205L542.248,857.159z"/>
			<path fill="#FFFFFF" d="M552.845,861.637c0.199-0.471,0.729-0.686,1.212-0.479c0.471,0.197,0.687,0.729,0.487,1.199l-3.435,8.123
				c-0.198,0.469-0.729,0.686-1.198,0.484c-0.484-0.203-0.699-0.734-0.5-1.203L552.845,861.637z"/>
			<path fill="#FFFFFF" d="M554.971,867.358l0.013-0.029c1.161-2.748,4.173-4.129,7.103-2.893c1.491,0.631,2.286,1.488,2.854,2.494
				c0.122,0.213,0.175,0.514,0.046,0.816c-0.198,0.469-0.725,0.672-1.193,0.473c-0.234-0.1-0.366-0.252-0.441-0.383
				c-0.435-0.818-1.014-1.453-1.938-1.846c-1.837-0.775-3.833,0.17-4.634,2.063l-0.012,0.027c-0.801,1.893-0.108,3.994,1.742,4.775
				c1.022,0.434,1.854,0.395,2.811,0.098c0.171-0.061,0.386-0.064,0.593,0.021c0.428,0.182,0.649,0.697,0.468,1.127
				c-0.109,0.264-0.322,0.416-0.533,0.49c-1.25,0.416-2.496,0.477-4.058-0.186C554.969,873.217,553.797,870.133,554.971,867.358z"/>
		</g>
		<g enable-background="new    ">
			<path fill="#FFFFFF" d="M450.243,850.28c-0.135-0.223-0.174-0.516-0.058-0.791c0.188-0.441,0.692-0.635,1.135-0.447
				c0.233,0.1,0.357,0.23,0.433,0.361c0.533,0.975,1.238,1.693,2.288,2.139c1.051,0.445,1.924,0.227,2.229-0.49l0.012-0.027
				c0.292-0.691,0.063-1.229-1.56-2.4c-1.848-1.367-2.752-2.467-1.999-4.248l0.013-0.029c0.7-1.656,2.566-2.221,4.486-1.406
				c1.216,0.514,2.063,1.244,2.688,2.193c0.146,0.191,0.228,0.502,0.087,0.834c-0.187,0.441-0.692,0.635-1.134,0.449
				c-0.166-0.07-0.287-0.17-0.391-0.313c-0.542-0.799-1.154-1.352-1.915-1.672c-0.995-0.42-1.791-0.154-2.06,0.48l-0.012,0.025
				c-0.315,0.746-0.014,1.268,1.665,2.496c1.835,1.361,2.575,2.537,1.896,4.143l-0.012,0.025c-0.765,1.813-2.645,2.287-4.674,1.43
				C452.05,852.475,450.982,851.536,450.243,850.28z"/>
			<path fill="#FFFFFF" d="M464.471,848.018l-2.349-0.99c-0.442-0.189-0.636-0.691-0.455-1.121s0.678-0.643,1.121-0.455l6.424,2.717
				c0.429,0.182,0.623,0.688,0.441,1.115s-0.679,0.641-1.107,0.459l-2.362-0.998l-3.096,7.322c-0.198,0.471-0.743,0.68-1.212,0.48
				c-0.47-0.199-0.699-0.736-0.5-1.205L464.471,848.018z"/>
			<path fill="#FFFFFF" d="M471.936,856.29l-1.396-5.98c-0.041-0.213-0.042-0.439,0.058-0.676c0.193-0.455,0.718-0.656,1.202-0.453
				c0.373,0.158,0.534,0.471,0.613,0.861l1.053,5.021l4.382-2.74c0.336-0.215,0.673-0.318,1.032-0.166
				c0.497,0.211,0.671,0.725,0.479,1.18c-0.1,0.234-0.298,0.396-0.493,0.508l-5.211,3.123l-1.279,3.025
				c-0.199,0.469-0.729,0.686-1.213,0.48c-0.469-0.199-0.686-0.73-0.487-1.199L471.936,856.29z"/>
			<path fill="#FFFFFF" d="M481.003,854.065c0.199-0.471,0.729-0.686,1.212-0.48c0.471,0.199,0.687,0.73,0.487,1.199l-3.107,7.35
				l4.38,1.854c0.429,0.18,0.627,0.672,0.446,1.1c-0.181,0.43-0.673,0.629-1.101,0.447l-5.224-2.209
				c-0.482-0.203-0.697-0.734-0.493-1.217L481.003,854.065z"/>
			<path fill="#FFFFFF" d="M486.155,865.721l3.364-7.959c0.204-0.482,0.734-0.697,1.219-0.494l5.624,2.379
				c0.414,0.174,0.612,0.666,0.438,1.078c-0.181,0.43-0.667,0.615-1.081,0.439l-4.781-2.02l-1.063,2.514l4.158,1.758
				c0.415,0.176,0.613,0.668,0.433,1.096c-0.175,0.414-0.66,0.602-1.075,0.426l-4.157-1.758l-1.099,2.598l4.851,2.049
				c0.415,0.176,0.613,0.668,0.438,1.082c-0.181,0.428-0.667,0.613-1.082,0.438l-5.691-2.404
				C486.166,866.735,485.951,866.206,486.155,865.721z"/>
		</g>
	</g>
	<g id="design_of_everyday_things">
		<path fill="#FBB829" d="M484.951,1040.075c0,8.838-7.164,16-16,16H320.96c-8.836,0-16-7.162-16-16v-210.99c0-8.836,7.164-16,16-16
			h147.991c8.836,0,16,7.164,16,16V1040.075z"/>
		<rect x="319.959" y="940.631" fill="none" width="149.993" height="99.881"/>
		<g enable-background="new    ">
			<path d="M325.922,942.903h-4.262c-0.42,0-0.777-0.336-0.777-0.756s0.357-0.777,0.777-0.777h10.204
				c0.42,0,0.777,0.357,0.777,0.777s-0.357,0.756-0.777,0.756h-4.262v12.43c0,0.461-0.378,0.84-0.84,0.84
				c-0.462,0-0.84-0.379-0.84-0.84V942.903z"/>
			<path d="M335.646,942.104c0-0.461,0.378-0.84,0.819-0.84c0.462,0,0.84,0.379,0.84,0.84v5.795h8.482v-5.795
				c0-0.461,0.378-0.84,0.84-0.84c0.441,0,0.819,0.379,0.819,0.84v13.229c0,0.461-0.378,0.84-0.819,0.84
				c-0.462,0-0.84-0.379-0.84-0.84v-5.879h-8.482v5.879c0,0.461-0.378,0.84-0.84,0.84c-0.441,0-0.819-0.379-0.819-0.84V942.104z"/>
			<path d="M351.605,955.227v-13.018c0-0.463,0.378-0.84,0.819-0.84h9.133c0.42,0,0.756,0.336,0.756,0.756s-0.336,0.756-0.756,0.756
				h-8.293v5.018h7.349c0.42,0,0.756,0.357,0.756,0.756c0,0.42-0.336,0.756-0.756,0.756h-7.349v5.145h8.398
				c0.42,0,0.756,0.336,0.756,0.756s-0.336,0.758-0.756,0.758h-9.238C351.983,956.067,351.605,955.69,351.605,955.227z"/>
		</g>
		<g enable-background="new    ">
			<path d="M322.038,967.209c0-0.463,0.378-0.84,0.819-0.84h4.283c4.619,0,7.811,3.17,7.811,7.307v0.041
				c0,4.137-3.191,7.35-7.811,7.35h-4.283c-0.441,0-0.819-0.377-0.819-0.84V967.209z M327.14,979.534
				c3.716,0,6.089-2.52,6.089-5.773v-0.041c0-3.256-2.373-5.814-6.089-5.814h-3.443v11.631h3.443V979.534z"/>
			<path d="M338.459,980.227v-13.018c0-0.463,0.378-0.84,0.819-0.84h9.133c0.42,0,0.756,0.336,0.756,0.756s-0.336,0.756-0.756,0.756
				h-8.293v5.018h7.349c0.42,0,0.756,0.357,0.756,0.756c0,0.42-0.336,0.756-0.756,0.756h-7.349v5.145h8.398
				c0.42,0,0.756,0.336,0.756,0.756s-0.336,0.758-0.756,0.758h-9.238C338.837,981.067,338.459,980.69,338.459,980.227z"/>
			<path d="M352.004,979.303c-0.189-0.127-0.315-0.357-0.315-0.631c0-0.461,0.357-0.818,0.798-0.818c0.21,0,0.399,0.084,0.504,0.189
				c1.386,1.176,2.771,1.742,4.64,1.742c1.974,0,3.275-1.049,3.275-2.498v-0.043c0-1.363-0.735-2.141-3.821-2.791
				c-3.38-0.736-4.934-1.828-4.934-4.242v-0.041c0-2.311,2.037-4.012,4.829-4.012c1.932,0,3.338,0.482,4.682,1.449
				c0.168,0.127,0.357,0.355,0.357,0.672c0,0.439-0.357,0.799-0.798,0.799c-0.189,0-0.336-0.043-0.483-0.148
				c-1.239-0.902-2.437-1.279-3.8-1.279c-1.911,0-3.128,1.049-3.128,2.373v0.041c0,1.387,0.756,2.162,3.989,2.855
				c3.275,0.713,4.787,1.91,4.787,4.156v0.043c0,2.52-2.1,4.156-5.018,4.156C355.427,981.278,353.642,980.606,352.004,979.303z"/>
			<path d="M366.117,967.104c0-0.461,0.378-0.84,0.819-0.84c0.462,0,0.84,0.379,0.84,0.84v13.229c0,0.461-0.378,0.84-0.84,0.84
				c-0.441,0-0.819-0.379-0.819-0.84V967.104z"/>
			<path d="M371.429,973.76v-0.043c0-4.029,2.96-7.6,7.37-7.6c2.226,0,3.674,0.588,5.018,1.574c0.189,0.146,0.336,0.379,0.336,0.672
				c0,0.463-0.378,0.84-0.819,0.84c-0.189,0-0.357-0.084-0.525-0.209c-1.05-0.799-2.226-1.344-4.073-1.344
				c-3.254,0-5.585,2.75-5.585,6.023v0.043c0,3.506,2.247,6.109,5.816,6.109c1.68,0,3.233-0.65,4.241-1.471v-3.652h-3.947
				c-0.398,0-0.735-0.336-0.735-0.734c0-0.42,0.336-0.756,0.735-0.756h4.724c0.441,0,0.819,0.377,0.819,0.84v4.473
				c0,0.398-0.189,0.756-0.567,1.008c-1.344,0.986-3.149,1.785-5.333,1.785C374.285,981.319,371.429,977.959,371.429,973.76z"/>
			<path d="M388.544,967.125c0-0.441,0.378-0.818,0.819-0.818h0.23c0.378,0,0.609,0.188,0.84,0.482l8.923,11.379v-11.086
				c0-0.439,0.356-0.818,0.818-0.818c0.441,0,0.798,0.379,0.798,0.818v13.271c0,0.439-0.314,0.775-0.756,0.775h-0.084
				c-0.356,0-0.608-0.209-0.86-0.504l-9.112-11.652v11.381c0,0.439-0.357,0.818-0.819,0.818c-0.441,0-0.798-0.379-0.798-0.818
				V967.125L388.544,967.125z"/>
			<path d="M410.783,973.76v-0.043c0-4.051,3.044-7.6,7.517-7.6c4.474,0,7.476,3.506,7.476,7.559v0.041
				c0,4.053-3.045,7.602-7.518,7.602S410.783,977.813,410.783,973.76z M424.052,973.76v-0.043c0-3.338-2.436-6.066-5.795-6.066
				c-3.358,0-5.753,2.688-5.753,6.025v0.041c0,3.34,2.437,6.068,5.795,6.068C421.658,979.786,424.052,977.098,424.052,973.76z"/>
			<path d="M429.284,967.209c0-0.463,0.378-0.84,0.819-0.84h9.091c0.42,0,0.756,0.336,0.756,0.756s-0.336,0.777-0.756,0.777h-8.251
				v5.248h7.307c0.42,0,0.756,0.336,0.756,0.756s-0.336,0.756-0.756,0.756h-7.307v5.67c0,0.461-0.379,0.84-0.84,0.84
				c-0.441,0-0.819-0.379-0.819-0.84V967.209z"/>
		</g>
		<g enable-background="new    ">
			<path d="M321.849,1004.764V992.67c0-0.734,0.567-1.301,1.302-1.301h8.545c0.63,0,1.155,0.525,1.155,1.154
				c0,0.65-0.525,1.154-1.155,1.154h-7.265v3.82h6.32c0.63,0,1.155,0.525,1.155,1.176c0,0.631-0.525,1.135-1.155,1.135h-6.32v3.947
				h7.37c0.63,0,1.155,0.523,1.155,1.154c0,0.65-0.525,1.154-1.155,1.154h-8.65C322.416,1006.067,321.849,1005.5,321.849,1004.764z"
				/>
			<path d="M340.181,1005.227l-5.144-12.094c-0.084-0.189-0.147-0.379-0.147-0.609c0-0.691,0.567-1.26,1.302-1.26
				c0.672,0,1.113,0.379,1.323,0.924l4.241,10.604l4.304-10.688c0.168-0.439,0.63-0.84,1.239-0.84c0.714,0,1.281,0.547,1.281,1.238
				c0,0.189-0.063,0.4-0.126,0.547l-5.165,12.178c-0.273,0.65-0.756,1.051-1.491,1.051h-0.147
				C340.937,1006.278,340.454,1005.877,340.181,1005.227z"/>
			<path d="M351.312,1004.764V992.67c0-0.734,0.567-1.301,1.302-1.301h8.545c0.63,0,1.155,0.525,1.155,1.154
				c0,0.65-0.525,1.154-1.155,1.154h-7.265v3.82h6.32c0.63,0,1.155,0.525,1.155,1.176c0,0.631-0.525,1.135-1.155,1.135h-6.32v3.947
				h7.37c0.63,0,1.155,0.523,1.155,1.154c0,0.65-0.525,1.154-1.155,1.154h-8.65C351.878,1006.067,351.312,1005.5,351.312,1004.764z"
				/>
			<path d="M365.381,992.67c0-0.734,0.567-1.301,1.302-1.301h5.249c1.848,0,3.296,0.545,4.241,1.469
				c0.777,0.799,1.218,1.891,1.218,3.172v0.041c0,2.352-1.365,3.779-3.338,4.389l2.813,3.549c0.252,0.314,0.42,0.588,0.42,0.986
				c0,0.715-0.609,1.197-1.239,1.197c-0.588,0-0.966-0.273-1.26-0.672l-3.569-4.557h-3.254v3.945c0,0.715-0.567,1.281-1.281,1.281
				c-0.735,0-1.302-0.566-1.302-1.281V992.67z M371.743,998.655c1.848,0,3.023-0.965,3.023-2.455v-0.043
				c0-1.574-1.134-2.436-3.044-2.436h-3.758v4.934H371.743L371.743,998.655z"/>
			<path d="M384.323,1000.356l-5.06-6.949c-0.168-0.252-0.294-0.547-0.294-0.902c0-0.691,0.567-1.24,1.302-1.24
				c0.567,0,0.945,0.316,1.26,0.777l4.094,5.9l4.157-5.922c0.315-0.461,0.693-0.775,1.239-0.775c0.756,0,1.26,0.566,1.26,1.26
				c0,0.355-0.168,0.672-0.357,0.924l-5.018,6.865v4.6c0,0.713-0.567,1.279-1.302,1.279c-0.714,0-1.281-0.566-1.281-1.279V1000.356z
				"/>
			<path d="M394.802,992.67c0-0.734,0.567-1.301,1.302-1.301h4.179c4.619,0,7.811,3.17,7.811,7.307v0.041
				c0,4.137-3.19,7.35-7.811,7.35h-4.179c-0.734,0-1.302-0.566-1.302-1.303V992.67z M400.282,1003.715
				c3.086,0,5.102-2.078,5.102-4.955v-0.043c0-2.875-2.016-4.996-5.102-4.996h-2.897v9.994H400.282z"/>
			<path d="M409.649,1004.387l5.459-12.178c0.294-0.65,0.818-1.051,1.554-1.051h0.126c0.735,0,1.239,0.398,1.533,1.051l5.459,12.178
				c0.104,0.189,0.146,0.377,0.146,0.545c0,0.693-0.524,1.24-1.218,1.24c-0.609,0-1.029-0.357-1.26-0.902l-1.197-2.752h-7.139
				l-1.239,2.836c-0.21,0.523-0.651,0.818-1.197,0.818c-0.672,0-1.196-0.525-1.196-1.197
				C409.48,1004.786,409.544,1004.596,409.649,1004.387z M419.266,1000.231l-2.583-5.943l-2.583,5.943H419.266z"/>
			<path d="M429.053,1000.356l-5.06-6.949c-0.168-0.252-0.294-0.547-0.294-0.902c0-0.691,0.566-1.24,1.302-1.24
				c0.567,0,0.945,0.316,1.26,0.777l4.095,5.9l4.156-5.922c0.315-0.461,0.693-0.775,1.239-0.775c0.756,0,1.26,0.566,1.26,1.26
				c0,0.355-0.168,0.672-0.356,0.924l-5.019,6.865v4.6c0,0.713-0.566,1.279-1.302,1.279c-0.714,0-1.281-0.566-1.281-1.279V1000.356
				L429.053,1000.356z"/>
		</g>
		<g enable-background="new    ">
			<path d="M325.46,1018.762h-3.569c-0.672,0-1.197-0.545-1.197-1.195s0.525-1.197,1.197-1.197h9.763
				c0.651,0,1.176,0.547,1.176,1.197s-0.525,1.195-1.176,1.195h-3.59v11.129c0,0.715-0.588,1.281-1.302,1.281
				c-0.714,0-1.302-0.566-1.302-1.281V1018.762z"/>
			<path d="M335.457,1017.545c0-0.715,0.567-1.281,1.302-1.281c0.714,0,1.281,0.566,1.281,1.281v4.934h7.013v-4.934
				c0-0.715,0.567-1.281,1.281-1.281c0.735,0,1.302,0.566,1.302,1.281v12.346c0,0.715-0.567,1.281-1.302,1.281
				c-0.714,0-1.281-0.566-1.281-1.281v-5.018h-7.013v5.018c0,0.715-0.567,1.281-1.281,1.281c-0.735,0-1.302-0.566-1.302-1.281
				V1017.545z"/>
			<path d="M351.563,1017.545c0-0.715,0.567-1.281,1.302-1.281c0.714,0,1.281,0.566,1.281,1.281v12.346
				c0,0.715-0.567,1.281-1.281,1.281c-0.735,0-1.302-0.566-1.302-1.281V1017.545z"/>
			<path d="M358.073,1017.586c0-0.713,0.567-1.301,1.302-1.301h0.273c0.63,0,0.987,0.313,1.344,0.756l7.349,9.512v-9.029
				c0-0.691,0.567-1.26,1.26-1.26c0.714,0,1.281,0.566,1.281,1.26v12.346c0,0.715-0.546,1.281-1.26,1.281h-0.105
				c-0.609,0-0.987-0.314-1.344-0.777l-7.559-9.783v9.322c0,0.693-0.567,1.26-1.26,1.26c-0.714,0-1.281-0.566-1.281-1.26V1017.586z"
				/>
			<path d="M374.012,1023.76v-0.043c0-4.113,3.149-7.6,7.58-7.6c2.205,0,3.674,0.523,5.018,1.49
				c0.252,0.188,0.525,0.547,0.525,1.051c0,0.691-0.567,1.279-1.281,1.279c-0.336,0-0.588-0.146-0.798-0.293
				c-0.945-0.693-1.974-1.154-3.569-1.154c-2.708,0-4.766,2.371-4.766,5.186v0.041c0,3.023,1.995,5.25,4.997,5.25
				c1.386,0,2.646-0.441,3.548-1.113v-2.75h-2.897c-0.63,0-1.155-0.482-1.155-1.113c0-0.629,0.525-1.133,1.155-1.133h4.094
				c0.735,0,1.302,0.566,1.302,1.301v3.928c0,0.734-0.294,1.26-0.903,1.637c-1.26,0.842-3.023,1.598-5.228,1.598
				C377.036,1031.319,374.012,1028.043,374.012,1023.76z"/>
			<path d="M390.749,1029.428c-0.294-0.209-0.504-0.566-0.504-0.986c0-0.672,0.546-1.195,1.218-1.195
				c0.357,0,0.588,0.104,0.756,0.23c1.218,0.965,2.521,1.512,4.115,1.512s2.604-0.756,2.604-1.848v-0.043
				c0-1.049-0.588-1.617-3.316-2.246c-3.128-0.756-4.892-1.68-4.892-4.389v-0.041c0-2.521,2.1-4.264,5.018-4.264
				c1.848,0,3.338,0.482,4.661,1.363c0.294,0.168,0.566,0.525,0.566,1.029c0,0.672-0.546,1.197-1.218,1.197
				c-0.252,0-0.462-0.063-0.672-0.189c-1.134-0.732-2.226-1.111-3.38-1.111c-1.512,0-2.394,0.775-2.394,1.742v0.041
				c0,1.135,0.672,1.639,3.506,2.311c3.106,0.756,4.702,1.869,4.702,4.305v0.043c0,2.75-2.162,4.387-5.248,4.387
				C394.276,1031.278,392.387,1030.647,390.749,1029.428z"/>
		</g>
	</g>
	<g id="sass_for_web_designers">
		<path fill="#ED79A0" d="M556.57,1042.321c1.207,8.754-4.912,16.826-13.665,18.031l-113.923,15.703
			c-8.754,1.207-16.828-4.91-18.035-13.664l-24.43-177.219c-1.207-8.754,4.912-16.828,13.665-18.035l113.924-15.699
			c8.754-1.207,16.826,4.906,18.033,13.66L556.57,1042.321z"/>
		
			<rect x="407.044" y="878.664" transform="matrix(0.9906 -0.1366 0.1366 0.9906 -122.5848 71.6268)" fill="none" width="106.994" height="100.469"/>
		<g enable-background="new    ">
			<path fill="#FFFFFF" d="M404.009,899.932c-0.319-0.168-0.577-0.492-0.634-0.908c-0.092-0.666,0.377-1.262,1.043-1.354
				c0.354-0.049,0.597,0.023,0.78,0.127c1.338,0.789,2.702,1.152,4.282,0.936c1.58-0.219,2.477-1.104,2.326-2.186l-0.006-0.043
				c-0.144-1.039-0.804-1.521-3.593-1.771c-3.202-0.32-5.076-0.996-5.445-3.68l-0.006-0.041c-0.345-2.494,1.498-4.51,4.39-4.906
				c1.829-0.252,3.372,0.021,4.804,0.715c0.313,0.125,0.633,0.441,0.702,0.941c0.092,0.664-0.378,1.262-1.043,1.354
				c-0.25,0.033-0.468,0-0.691-0.096c-1.224-0.574-2.355-0.801-3.501-0.643c-1.497,0.205-2.265,1.096-2.133,2.053l0.006,0.041
				c0.154,1.125,0.889,1.531,3.789,1.811c3.181,0.324,4.914,1.209,5.246,3.621l0.006,0.043c0.376,2.725-1.542,4.641-4.601,5.063
				C407.756,901.282,405.797,900.915,404.009,899.932z"/>
			<path fill="#FFFFFF" d="M416.692,898.139l3.743-12.807c0.202-0.686,0.668-1.152,1.396-1.254l0.125-0.016
				c0.729-0.102,1.282,0.225,1.662,0.83l7.07,11.316c0.131,0.174,0.197,0.355,0.221,0.521c0.095,0.686-0.352,1.299-1.037,1.393
				c-0.604,0.084-1.068-0.213-1.371-0.723l-1.563-2.563l-7.07,0.977l-0.84,2.977c-0.138,0.549-0.533,0.9-1.074,0.977
				c-0.665,0.092-1.257-0.357-1.35-1.021C416.58,898.559,416.617,898.364,416.692,898.139z M425.65,892.708l-3.369-5.533
				l-1.747,6.24L425.65,892.708z"/>
			<path fill="#FFFFFF" d="M433.07,895.924c-0.32-0.168-0.577-0.494-0.635-0.91c-0.093-0.664,0.377-1.258,1.043-1.35
				c0.354-0.049,0.597,0.021,0.78,0.125c1.338,0.789,2.701,1.152,4.282,0.936c1.581-0.219,2.477-1.104,2.327-2.186l-0.006-0.043
				c-0.145-1.039-0.804-1.521-3.595-1.771c-3.201-0.32-5.074-0.994-5.444-3.68l-0.006-0.041c-0.345-2.496,1.497-4.508,4.389-4.908
				c1.83-0.252,3.373,0.023,4.804,0.715c0.314,0.129,0.635,0.443,0.702,0.943c0.092,0.664-0.377,1.26-1.043,1.354
				c-0.249,0.033-0.466,0-0.69-0.098c-1.224-0.572-2.356-0.799-3.5-0.641c-1.498,0.207-2.266,1.096-2.134,2.053l0.006,0.041
				c0.154,1.125,0.89,1.531,3.788,1.811c3.183,0.324,4.914,1.209,5.247,3.621l0.006,0.041c0.375,2.727-1.543,4.645-4.6,5.064
				C436.816,897.274,434.858,896.909,433.07,895.924z"/>
			<path fill="#FFFFFF" d="M446.176,894.118c-0.318-0.168-0.576-0.492-0.634-0.908c-0.092-0.666,0.377-1.26,1.043-1.352
				c0.354-0.051,0.597,0.021,0.78,0.127c1.338,0.787,2.702,1.15,4.283,0.934c1.58-0.217,2.476-1.104,2.325-2.186l-0.006-0.043
				c-0.144-1.039-0.803-1.521-3.593-1.771c-3.202-0.322-5.075-0.996-5.445-3.68l-0.006-0.039c-0.344-2.496,1.497-4.51,4.389-4.908
				c1.83-0.252,3.373,0.021,4.805,0.715c0.313,0.125,0.633,0.441,0.702,0.941c0.092,0.666-0.378,1.26-1.044,1.352
				c-0.248,0.035-0.466,0.002-0.69-0.096c-1.224-0.572-2.356-0.797-3.5-0.641c-1.498,0.205-2.266,1.098-2.134,2.055l0.006,0.041
				c0.155,1.123,0.89,1.531,3.789,1.809c3.182,0.324,4.914,1.209,5.247,3.621l0.006,0.043c0.376,2.725-1.543,4.643-4.601,5.063
				C449.923,895.465,447.965,895.1,446.176,894.118z"/>
		</g>
		<g enable-background="new    ">
			<path fill="#FFFFFF" d="M405.73,911.883c-0.049-0.35,0.197-0.674,0.53-0.719l6.865-0.947c0.318-0.045,0.606,0.174,0.65,0.49
				c0.043,0.316-0.173,0.623-0.49,0.666l-6.231,0.859l0.547,3.965l5.519-0.762c0.317-0.045,0.605,0.176,0.649,0.492
				c0.043,0.318-0.176,0.605-0.492,0.648l-5.519,0.762l0.59,4.281c0.05,0.348-0.197,0.674-0.547,0.721
				c-0.333,0.047-0.657-0.199-0.706-0.549L405.73,911.883z"/>
			<path fill="#FFFFFF" d="M416.08,915.499l-0.004-0.033c-0.422-3.059,1.508-6.055,4.886-6.521c3.377-0.465,6.009,1.869,6.431,4.93
				l0.006,0.031c0.422,3.061-1.508,6.059-4.886,6.523S416.502,918.557,416.08,915.499z M426.101,914.116l-0.004-0.031
				c-0.348-2.521-2.472-4.328-5.008-3.979c-2.537,0.35-4.064,2.629-3.718,5.146l0.005,0.033c0.348,2.521,2.471,4.328,5.008,3.979
				C424.921,918.917,426.449,916.635,426.101,914.116z"/>
			<path fill="#FFFFFF" d="M429.361,908.625c-0.049-0.35,0.197-0.674,0.53-0.719l4.154-0.572c1.364-0.188,2.515,0.072,3.31,0.674
				c0.612,0.465,1.036,1.197,1.157,2.07l0.004,0.031c0.253,1.822-0.839,3.057-2.521,3.627l3.248,3.172
				c0.146,0.125,0.245,0.256,0.27,0.432c0.046,0.332-0.23,0.662-0.549,0.705c-0.254,0.035-0.464-0.082-0.633-0.252l-3.684-3.627
				l-3.188,0.439l0.52,3.758c0.048,0.348-0.198,0.672-0.548,0.721c-0.334,0.045-0.657-0.201-0.706-0.549L429.361,908.625z
				 M434.716,913.008c1.665-0.229,2.736-1.25,2.539-2.678l-0.004-0.031c-0.188-1.363-1.349-2.043-3.141-1.797l-3.425,0.473
				l0.62,4.504L434.716,913.008z"/>
		</g>
		<g enable-background="new    ">
			<path fill="#FFFFFF" d="M407.962,932.983c-0.045-0.092-0.091-0.182-0.104-0.275c-0.046-0.334,0.214-0.676,0.563-0.725
				c0.317-0.043,0.588,0.158,0.723,0.434l4.275,8.395l1.682-9.248c0.057-0.299,0.219-0.529,0.552-0.576l0.08-0.012
				c0.315-0.043,0.551,0.135,0.686,0.406l4.121,8.447l1.855-9.271c0.057-0.299,0.233-0.533,0.535-0.574
				c0.333-0.045,0.676,0.213,0.721,0.531c0.013,0.094-0.021,0.213-0.038,0.311l-2.191,10.354c-0.067,0.332-0.259,0.586-0.576,0.629
				l-0.095,0.016c-0.317,0.043-0.57-0.148-0.725-0.451l-4.063-8.133l-1.693,8.926c-0.066,0.334-0.259,0.586-0.575,0.631
				l-0.096,0.014c-0.316,0.043-0.566-0.133-0.725-0.451L407.962,932.983z"/>
			<path fill="#FFFFFF" d="M427.405,940.11l-1.355-9.83c-0.049-0.352,0.197-0.674,0.531-0.721l6.896-0.951
				c0.317-0.043,0.606,0.176,0.65,0.49c0.043,0.316-0.176,0.607-0.492,0.65l-6.264,0.863l0.521,3.789l5.551-0.766
				c0.316-0.043,0.607,0.191,0.648,0.494c0.044,0.316-0.175,0.604-0.492,0.648l-5.55,0.766l0.536,3.885l6.343-0.875
				c0.316-0.043,0.605,0.176,0.649,0.492c0.043,0.318-0.176,0.605-0.492,0.648l-6.977,0.963
				C427.778,940.704,427.453,940.458,427.405,940.11z"/>
			<path fill="#FFFFFF" d="M436.669,928.815c-0.049-0.35,0.197-0.676,0.531-0.721l4.104-0.564c1.271-0.176,2.318,0.051,3.037,0.582
				c0.526,0.412,0.86,0.965,0.959,1.678l0.004,0.031c0.199,1.441-0.586,2.311-1.404,2.813c1.369,0.213,2.537,0.828,2.748,2.352
				l0.005,0.031c0.262,1.902-1.186,3.248-3.61,3.584l-4.313,0.594c-0.334,0.047-0.658-0.199-0.706-0.549L436.669,928.815z
				 M441.782,932.502c1.506-0.207,2.459-1.033,2.278-2.334l-0.004-0.031c-0.15-1.094-1.121-1.688-2.707-1.469l-3.378,0.465
				l0.527,3.822L441.782,932.502z M442.919,937.467c1.683-0.23,2.625-1.121,2.454-2.357l-0.005-0.029
				c-0.166-1.207-1.276-1.764-3.211-1.496l-3.504,0.482l0.54,3.916L442.919,937.467z"/>
		</g>
		<g enable-background="new    ">
			<path fill="#FFFFFF" d="M411.467,953.487c-0.048-0.35,0.198-0.672,0.531-0.721l3.234-0.443c3.487-0.482,6.229,1.58,6.659,4.703
				l0.005,0.029c0.431,3.125-1.646,5.885-5.135,6.363l-3.233,0.447c-0.333,0.045-0.658-0.201-0.706-0.551L411.467,953.487z
				 M416.604,962.26c2.808-0.387,4.337-2.535,3.997-4.992l-0.005-0.031c-0.338-2.457-2.396-4.146-5.204-3.758l-2.6,0.357
				l1.211,8.783L416.604,962.26z"/>
			<path fill="#FFFFFF" d="M425.217,961.608l-1.354-9.83c-0.05-0.35,0.196-0.674,0.53-0.721l6.896-0.949
				c0.316-0.043,0.605,0.176,0.65,0.49c0.043,0.316-0.177,0.605-0.492,0.65l-6.265,0.863l0.522,3.789l5.55-0.766
				c0.317-0.045,0.608,0.191,0.649,0.492c0.044,0.316-0.176,0.605-0.492,0.648l-5.55,0.766l0.536,3.885l6.343-0.875
				c0.315-0.043,0.604,0.176,0.648,0.494c0.044,0.316-0.175,0.605-0.491,0.648l-6.978,0.961
				C425.59,962.204,425.265,961.958,425.217,961.608z"/>
			<path fill="#FFFFFF" d="M435.344,959.5c-0.156-0.076-0.274-0.236-0.304-0.443c-0.048-0.35,0.185-0.654,0.518-0.699
				c0.158-0.023,0.312,0.02,0.4,0.09c1.169,0.744,2.274,1.025,3.687,0.832c1.489-0.205,2.363-1.133,2.213-2.229l-0.004-0.033
				c-0.144-1.027-0.778-1.539-3.178-1.709c-2.629-0.203-3.916-0.865-4.168-2.688l-0.004-0.033c-0.241-1.744,1.12-3.24,3.229-3.529
				c1.458-0.201,2.57,0.016,3.687,0.605c0.139,0.076,0.307,0.23,0.339,0.469c0.046,0.334-0.187,0.641-0.52,0.688
				c-0.144,0.02-0.258,0.002-0.38-0.063c-1.029-0.553-1.974-0.713-3.004-0.57c-1.442,0.199-2.252,1.119-2.114,2.117l0.004,0.031
				c0.145,1.047,0.796,1.555,3.31,1.74c2.549,0.199,3.814,0.943,4.049,2.643l0.005,0.031c0.263,1.902-1.152,3.359-3.356,3.662
				C438.134,960.635,436.716,960.315,435.344,959.5z"/>
			<path fill="#FFFFFF" d="M444.725,948.821c-0.048-0.35,0.197-0.674,0.53-0.721c0.349-0.049,0.674,0.197,0.722,0.547l1.379,9.988
				c0.048,0.35-0.198,0.676-0.548,0.723c-0.333,0.047-0.656-0.199-0.706-0.549L444.725,948.821z"/>
			<path fill="#FFFFFF" d="M449.428,953.292l-0.005-0.031c-0.42-3.045,1.444-6.047,4.774-6.506c1.681-0.23,2.836,0.063,3.953,0.664
				c0.157,0.092,0.293,0.252,0.323,0.475c0.048,0.35-0.197,0.674-0.53,0.721c-0.144,0.02-0.278-0.025-0.418-0.105
				c-0.877-0.492-1.821-0.781-3.218-0.59c-2.457,0.34-3.932,2.658-3.59,5.131l0.004,0.033c0.365,2.646,2.334,4.381,5.029,4.008
				c1.269-0.174,2.374-0.828,3.049-1.551l-0.38-2.758l-2.98,0.408c-0.302,0.043-0.591-0.178-0.632-0.479
				c-0.044-0.316,0.175-0.605,0.478-0.646l3.565-0.49c0.335-0.047,0.658,0.197,0.707,0.549l0.466,3.377
				c0.041,0.301-0.063,0.59-0.322,0.818c-0.912,0.887-2.193,1.678-3.842,1.902C452.371,958.706,449.864,956.463,449.428,953.292z"/>
			<path fill="#FFFFFF" d="M461.654,946.5c-0.047-0.334,0.199-0.658,0.533-0.705l0.174-0.021c0.285-0.039,0.479,0.078,0.685,0.275
				l7.924,7.664l-1.153-8.371c-0.047-0.332,0.185-0.652,0.532-0.703c0.333-0.045,0.643,0.203,0.688,0.535l1.382,10.021
				c0.046,0.334-0.157,0.621-0.49,0.666l-0.063,0.01c-0.271,0.037-0.482-0.096-0.703-0.291l-8.095-7.854l1.186,8.596
				c0.046,0.334-0.186,0.654-0.534,0.703c-0.333,0.047-0.642-0.201-0.688-0.535L461.654,946.5z"/>
			<path fill="#FFFFFF" d="M475.539,954.667l-1.355-9.83c-0.049-0.348,0.197-0.672,0.531-0.719l6.896-0.951
				c0.316-0.043,0.605,0.176,0.649,0.492c0.043,0.316-0.176,0.605-0.491,0.65l-6.265,0.863l0.522,3.789l5.55-0.766
				c0.316-0.043,0.607,0.189,0.648,0.492c0.044,0.314-0.175,0.604-0.491,0.648l-5.551,0.766l0.536,3.885l6.343-0.875
				c0.316-0.043,0.605,0.176,0.649,0.494c0.044,0.314-0.175,0.604-0.492,0.646l-6.977,0.963
				C475.912,955.262,475.587,955.016,475.539,954.667z"/>
			<path fill="#FFFFFF" d="M484.803,943.375c-0.049-0.35,0.197-0.674,0.531-0.721l4.153-0.572c1.364-0.188,2.515,0.074,3.309,0.674
				c0.613,0.465,1.038,1.197,1.158,2.07l0.004,0.033c0.252,1.822-0.839,3.057-2.521,3.627l3.247,3.17
				c0.146,0.125,0.245,0.258,0.271,0.432c0.046,0.334-0.231,0.662-0.549,0.707c-0.254,0.035-0.465-0.082-0.633-0.252l-3.684-3.629
				l-3.188,0.439l0.519,3.758c0.048,0.35-0.198,0.674-0.547,0.721c-0.334,0.047-0.658-0.199-0.706-0.547L484.803,943.375z
				 M490.157,947.756c1.665-0.229,2.735-1.25,2.539-2.676l-0.004-0.031c-0.188-1.365-1.35-2.045-3.142-1.799l-3.425,0.473
				l0.621,4.506L490.157,947.756z"/>
			<path fill="#FFFFFF" d="M497.125,950.981c-0.155-0.074-0.273-0.234-0.304-0.441c-0.048-0.35,0.185-0.656,0.518-0.701
				c0.159-0.021,0.312,0.021,0.4,0.09c1.169,0.744,2.273,1.027,3.686,0.832c1.49-0.205,2.364-1.133,2.213-2.227l-0.004-0.033
				c-0.143-1.029-0.778-1.541-3.177-1.711c-2.629-0.203-3.916-0.865-4.168-2.688l-0.004-0.033c-0.241-1.744,1.12-3.238,3.229-3.529
				c1.459-0.201,2.571,0.016,3.688,0.605c0.14,0.078,0.307,0.23,0.339,0.471c0.046,0.332-0.187,0.639-0.519,0.686
				c-0.144,0.021-0.26,0.002-0.381-0.063c-1.029-0.553-1.974-0.713-3.004-0.57c-1.441,0.199-2.253,1.119-2.115,2.117l0.006,0.031
				c0.144,1.047,0.795,1.557,3.309,1.74c2.549,0.199,3.815,0.945,4.049,2.643l0.005,0.031c0.263,1.902-1.152,3.359-3.356,3.662
				C499.915,952.116,498.497,951.793,497.125,950.981z"/>
		</g>
	</g>
	<g id="dont_make_me_think">
		<path fill="#EFEFEF" d="M577.764,1071.811c-2.906,8.346-12.027,12.754-20.373,9.846l-100.942-35.166
			c-8.345-2.906-12.753-12.027-9.847-20.373l48.83-140.16c2.907-8.346,12.028-12.754,20.373-9.846l100.943,35.166
			c8.345,2.904,12.753,12.027,9.846,20.373L577.764,1071.811z"/>
		
			<rect x="494.991" y="908.117" transform="matrix(0.9443 0.329 -0.329 0.9443 337.1202 -130.0504)" fill="none" width="115.66" height="45.899"/>
		<g enable-background="new    ">
			<path d="M547.657,906.696c0.159-0.457,0.663-0.701,1.1-0.549l4.238,1.477c4.571,1.592,6.637,5.83,5.211,9.924l-0.015,0.041
				c-1.427,4.094-5.692,6.172-10.265,4.58l-4.237-1.477c-0.438-0.152-0.681-0.658-0.521-1.113L547.657,906.696z M548.456,920.651
				c3.678,1.279,6.896-0.395,8.018-3.615l0.016-0.041c1.122-3.221-0.345-6.574-4.021-7.855l-3.407-1.188l-4.011,11.512
				L548.456,920.651z"/>
			<path d="M561,918.614l0.015-0.041c1.397-4.012,5.634-6.473,10.06-4.932c4.425,1.543,6.188,6.049,4.791,10.059l-0.014,0.041
				c-1.397,4.012-5.635,6.473-10.061,4.93C561.365,927.129,559.604,922.624,561,918.614z M574.132,923.188l0.015-0.041
				c1.15-3.305-0.317-6.844-3.644-8.002c-3.324-1.158-6.619,0.676-7.77,3.979l-0.015,0.043c-1.15,3.303,0.318,6.844,3.644,8.002
				S572.98,926.493,574.132,923.188z"/>
			<path d="M581.59,918.424c0.152-0.438,0.656-0.68,1.094-0.527l0.229,0.078c0.374,0.133,0.537,0.396,0.665,0.77l4.906,14.338
				l3.821-10.973c0.152-0.436,0.637-0.688,1.094-0.527c0.437,0.152,0.658,0.65,0.508,1.086l-4.575,13.131
				c-0.152,0.438-0.58,0.662-1.017,0.51l-0.084-0.027c-0.353-0.123-0.528-0.42-0.678-0.797l-5-14.672l-3.924,11.26
				c-0.152,0.438-0.635,0.688-1.092,0.529c-0.438-0.152-0.659-0.65-0.507-1.088L581.59,918.424z"/>
			<path d="M596.161,927.018c0.983-0.076,1.517-0.473,1.757-1.299c-0.4-0.254-0.658-0.717-0.47-1.258l0.116-0.334
				c0.188-0.539,0.755-0.832,1.295-0.643c0.604,0.209,0.852,0.834,0.619,1.498l-0.138,0.395c-0.44,1.268-0.972,1.922-1.616,2.234
				c-0.596,0.303-1.349,0.391-1.681,0.273c-0.271-0.094-0.378-0.316-0.292-0.564C595.818,927.133,595.973,927.024,596.161,927.018z"
				/>
			<path d="M606.667,928.024l-4.218-1.471c-0.415-0.145-0.652-0.6-0.508-1.016s0.621-0.646,1.035-0.502l10.1,3.52
				c0.415,0.145,0.646,0.621,0.501,1.037c-0.146,0.414-0.614,0.623-1.03,0.479l-4.218-1.471l-4.286,12.303
				c-0.159,0.457-0.664,0.701-1.121,0.541c-0.457-0.158-0.701-0.664-0.542-1.121L606.667,928.024z"/>
		</g>
		<g enable-background="new    ">
			<path d="M507.073,918.934c0.151-0.438,0.655-0.68,1.093-0.527l0.188,0.064c0.354,0.123,0.537,0.396,0.617,0.705l2.474,9.621
				l7.916-6.002c0.26-0.213,0.588-0.285,0.92-0.168l0.188,0.064c0.438,0.15,0.681,0.654,0.528,1.092l-4.555,13.07
				c-0.158,0.455-0.663,0.699-1.1,0.547c-0.458-0.158-0.693-0.684-0.542-1.119l3.779-10.848l-7.036,5.215
				c-0.281,0.205-0.54,0.277-0.831,0.178c-0.291-0.102-0.468-0.326-0.562-0.662l-2.26-8.43l-3.777,10.846
				c-0.16,0.459-0.637,0.688-1.094,0.529c-0.437-0.152-0.666-0.629-0.508-1.086L507.073,918.934z"/>
			<path d="M519.782,937.622l10.396-10.848c0.367-0.385,0.773-0.547,1.292-0.365l0.083,0.029c0.498,0.174,0.737,0.561,0.766,1.08
				l1.412,14.939c0.012,0.168,0.002,0.328-0.041,0.451c-0.152,0.438-0.629,0.668-1.065,0.516c-0.396-0.139-0.571-0.502-0.601-0.885
				l-0.352-3.873l-7.979-2.781l-2.696,2.857c-0.271,0.303-0.611,0.418-0.986,0.287c-0.416-0.146-0.631-0.596-0.487-1.01
				C519.57,937.897,519.641,937.758,519.782,937.622z M531.551,936.944l-0.754-8.604l-5.937,6.273L531.551,936.944z"/>
			<path d="M541.4,930.872c0.158-0.457,0.662-0.703,1.101-0.551c0.456,0.16,0.7,0.664,0.541,1.121l-2.772,7.959l11.252-5.609
				c0.244-0.102,0.476-0.162,0.744-0.068c0.438,0.152,0.652,0.672,0.509,1.086c-0.08,0.23-0.249,0.381-0.474,0.488l-6.934,3.316
				l3.152,8.74c0.079,0.238,0.104,0.434,0.018,0.682c-0.152,0.438-0.663,0.701-1.12,0.543c-0.312-0.109-0.461-0.35-0.535-0.607
				l-3.069-8.641l-4.231,2.043l-1.101,3.158c-0.159,0.457-0.663,0.701-1.12,0.543c-0.438-0.152-0.681-0.656-0.521-1.113
				L541.4,930.872z"/>
			<path d="M551.709,949.026l4.488-12.885c0.158-0.455,0.663-0.699,1.101-0.549l9.038,3.15c0.415,0.145,0.632,0.592,0.487,1.008
				c-0.146,0.416-0.593,0.633-1.009,0.488l-8.209-2.859l-1.729,4.965l7.272,2.533c0.414,0.146,0.625,0.615,0.486,1.01
				c-0.145,0.416-0.593,0.631-1.009,0.486l-7.272-2.533l-1.772,5.092l8.312,2.895c0.416,0.146,0.633,0.594,0.487,1.01
				c-0.145,0.416-0.593,0.633-1.008,0.486l-9.142-3.186C551.793,949.987,551.55,949.481,551.709,949.026z"/>
			<path d="M576.377,943.081c0.152-0.438,0.656-0.68,1.093-0.527l0.188,0.064c0.354,0.123,0.538,0.396,0.617,0.705l2.473,9.621
				l7.916-6.002c0.26-0.213,0.588-0.285,0.921-0.168l0.188,0.064c0.436,0.15,0.68,0.654,0.526,1.092l-4.553,13.068
				c-0.16,0.457-0.664,0.701-1.1,0.549c-0.458-0.16-0.694-0.684-0.542-1.121l3.777-10.846l-7.036,5.215
				c-0.279,0.205-0.539,0.279-0.83,0.178s-0.469-0.328-0.562-0.662l-2.259-8.43l-3.779,10.846c-0.159,0.457-0.635,0.688-1.092,0.527
				c-0.438-0.15-0.667-0.627-0.507-1.086L576.377,943.081z"/>
			<path d="M589.893,962.329l4.488-12.883c0.159-0.457,0.663-0.701,1.1-0.549l9.039,3.148c0.416,0.145,0.632,0.594,0.486,1.008
				c-0.145,0.416-0.593,0.633-1.008,0.488l-8.207-2.859l-1.73,4.967l7.271,2.533c0.416,0.145,0.625,0.613,0.488,1.008
				c-0.146,0.416-0.594,0.633-1.01,0.488l-7.271-2.535l-1.773,5.092l8.312,2.896c0.416,0.145,0.632,0.592,0.487,1.008
				c-0.146,0.416-0.594,0.633-1.008,0.488l-9.144-3.186C589.977,963.29,589.732,962.784,589.893,962.329z"/>
		</g>
		<g enable-background="new    ">
			<path fill="#DD4444" d="M528.141,957.211l-3.531-1.229c-0.665-0.232-0.997-0.953-0.772-1.6c0.226-0.645,0.933-1.002,1.599-0.77
				l9.66,3.365c0.646,0.225,0.976,0.945,0.751,1.59s-0.932,1.004-1.575,0.779l-3.554-1.238l-3.836,11.012
				c-0.246,0.707-1.023,1.066-1.729,0.82c-0.707-0.246-1.094-1.012-0.848-1.719L528.141,957.211z"/>
			<path fill="#DD4444" d="M538.449,959.454c0.246-0.707,1.002-1.074,1.729-0.82c0.707,0.246,1.072,1.004,0.826,1.711l-1.701,4.883
				l6.94,2.418l1.701-4.883c0.245-0.707,1.003-1.072,1.709-0.828c0.728,0.254,1.093,1.012,0.847,1.719l-4.257,12.217
				c-0.246,0.705-1.002,1.072-1.729,0.818c-0.707-0.246-1.072-1.004-0.826-1.709l1.73-4.967l-6.94-2.418l-1.729,4.967
				c-0.246,0.705-1.002,1.072-1.709,0.826c-0.729-0.254-1.093-1.012-0.848-1.717L538.449,959.454z"/>
			<path fill="#DD4444" d="M554.383,965.002c0.246-0.707,1.003-1.072,1.729-0.818c0.707,0.246,1.071,1.004,0.825,1.711
				l-4.257,12.217c-0.245,0.705-1.002,1.07-1.709,0.826c-0.727-0.254-1.093-1.012-0.847-1.719L554.383,965.002z"/>
			<path fill="#DD4444" d="M560.809,967.29c0.246-0.707,1.01-1.094,1.736-0.84l0.271,0.094c0.623,0.217,0.867,0.652,1.068,1.213
				l3.993,11.945l3.113-8.936c0.239-0.686,0.995-1.053,1.681-0.813c0.707,0.246,1.072,1.002,0.833,1.688l-4.257,12.219
				c-0.246,0.705-0.982,1.078-1.688,0.832l-0.104-0.035c-0.603-0.211-0.868-0.652-1.062-1.232l-4.107-12.289l-3.214,9.227
				c-0.238,0.686-0.995,1.051-1.682,0.813c-0.706-0.246-1.07-1.004-0.833-1.688L560.809,967.29z"/>
			<path fill="#DD4444" d="M577.234,972.965c0.246-0.707,1.003-1.074,1.729-0.818c0.706,0.244,1.071,1.002,0.825,1.709l-2.143,6.148
				l9.314-4.535c0.399-0.211,0.77-0.27,1.227-0.109c0.707,0.246,0.989,0.975,0.771,1.6c-0.138,0.395-0.405,0.625-0.79,0.795
				l-6.049,2.787l2.783,7.795c0.112,0.342,0.172,0.643,0.034,1.037c-0.246,0.707-0.996,1.051-1.724,0.799
				c-0.499-0.174-0.724-0.533-0.87-0.979l-2.598-7.592l-3.165,1.459l-1.05,3.014c-0.246,0.705-1.002,1.072-1.708,0.826
				c-0.729-0.254-1.093-1.012-0.847-1.717L577.234,972.965z"/>
			<path fill="#DD4444" d="M589.688,988.977c0.853,0.297,1.259,1.137,0.977,1.947l-0.072,0.207c-0.281,0.813-1.123,1.217-1.975,0.92
				c-0.831-0.289-1.258-1.137-0.977-1.945l0.072-0.209C587.995,989.086,588.855,988.688,589.688,988.977z M591.955,977.721
				c0.132-0.514,0.561-0.807,1.038-0.641l1.496,0.521c0.478,0.166,0.651,0.67,0.437,1.152l-3.681,8.225
				c-0.201,0.443-0.613,0.625-1.029,0.48s-0.604-0.537-0.487-1.01L591.955,977.721z"/>
		</g>
	</g>
</g>
<g id="shadow" display="none">
	<defs>
		<path id="SVGID_1_" d="M2042.379,75.137H693.947v618.91h-57.153c-11.483,0-20.794,9.316-20.794,20.795v396.387
			c0,11.484,9.311,20.799,20.794,20.799h1371.103c11.481,0,20.795-9.316,20.795-20.799V789.291h13.688V75.137z"/>
	</defs>
	<clipPath id="SVGID_2_" display="inline">
		<use xlink:href="#SVGID_1_"  overflow="visible"/>
	</clipPath>
	<path id="shadow-2_1_" display="inline" clip-path="url(#SVGID_2_)" fill-opacity="0.4" d="M2007.898,694.047H1867.17
		c-11.374-16.561-23.998-31.807-37.857-45.67c-34.403-34.414-76.27-60.328-124.427-77.021
		c-65.12-22.576-123.463-22.023-145.757-20.721c-2.77-9.787-6.214-19.293-10.257-28.475c9.028-5.867,23.681-13.445,43.21-17.123
		c46.411-8.741,97.411,7.438,151.587,48.08c35.884,26.918,68.068,40.434,96.128,40.434c11.149,0,21.65-2.137,31.469-6.412
		c52.345-22.799,60.813-97.292,61.146-100.45c1.047-9.871-6.098-18.705-15.966-19.773c-9.868-1.07-18.741,6.075-19.829,15.94
		c-1.744,15.794-12.294,59.398-39.805,71.312c-27.117,11.742-64.748-9.75-91.539-29.848c-34.539-25.91-69.021-43.29-102.487-51.655
		c-27.534-6.882-54.415-7.726-79.901-2.507c-22.137,4.533-39.392,12.925-51.223,20.291c-3.963-6.058-8.216-11.9-12.741-17.521
		c4.418-8.357,18.63-32.794,43.614-53.562c39.593-32.908,87.216-41.793,141.546-26.409c50.427,14.28,93.076,10.368,126.771-11.631
		c28.213-18.418,43.998-45.8,52.621-67.57l20.994,16.47l-0.016,0.021l3.395,2.661l0.018-0.021l35.503,27.853l16.854-21.483
		l-4.41-3.46l4.787-6.102l-1.254-0.985l0.09-0.116l-48.629-38.135l-3.104,3.957l45.36,35.573l-1.773,2.261l-54.768-42.962
		c1.139-3.727,1.754-7.681,1.754-11.78c0-22.252-18.038-40.291-40.291-40.291c-7.533,0-14.582,2.073-20.611,5.672l-4.92-3.859
		l-1.766,2.248l-6.293-4.937l-4.896,6.242l-6.104-4.79c-1.246-0.979-3.056-0.761-4.032,0.487c-0.981,1.25-0.763,3.056,0.485,4.037
		l6.104,4.789l-4.418,5.631l6.294,4.937l-2.229,2.84l4.427,3.472c-1.507,4.228-2.332,8.777-2.332,13.522
		c0,17.079,10.632,31.665,25.634,37.529c-7.018,12.96-17.28,26.438-32.15,36.146c-24.59,16.055-57.316,18.453-97.279,7.14
		c-83.469-23.641-141.541,5.639-175.561,34.358c-22.16,18.711-36.994,39.441-45.354,53.112
		c-38.711-34.14-89.536-54.863-145.209-54.863c-58.232,0-111.163,22.67-150.476,59.656c-6.06-1.705-36.872-11.663-51.479-41.244
		c-14.173-28.703-10.14-68.056,11.997-116.966c31.145-68.821,13.769-107.486,0.64-124.409
		c-18.446-23.775-49.979-34.362-84.347-28.329c-31.298,5.497-69.245,26.519-93.029,68.877l-0.757-13.852
		c-0.183-3.309-3.019-5.838-6.319-5.664c-3.309,0.181-5.844,3.01-5.664,6.319l1.998,36.524c-0.848,2.292-1.671,4.616-2.439,7.004
		c-2.045,6.338-0.375,12.973,3.787,17.587l2.304,42.13l-39.047,15.231l5.802,14.875c-14.796,2.938-25.985,16.017-25.985,31.663
		c0,1.281,0.083,2.542,0.229,3.784c-11.825,7.801-35.414,25.526-43.033,47.118c-5.218,14.786-2.412,31.593,7.699,46.108
		c8.687,12.477,21.982,22.394,39.522,29.476c18.856,7.611,42.259,11.68,69.556,12.088c62.809,0.938,127.359,20.561,155.066,30.059
		c-2.763,6.898-5.188,13.963-7.254,21.188c-21.803-7.264-52.157-16.043-86.428-22.137c-39.861-7.086-76.771-9.023-109.704-5.758
		c-42.39,4.203-78.391,17.068-107.001,38.238c-39.761,29.424-64.854,74.131-75.128,133.549H636.794
		c-0.006,0-0.013,0.002-0.021,0.002H216.794c-11.483,0-20.794,9.313-20.794,20.793v396.387c0,11.484,9.311,20.799,20.794,20.799
		h1371.103c0.009,0,0.015-0.002,0.021-0.002h419.979c11.483,0,20.795-9.313,20.795-20.797V714.842
		C2028.691,703.362,2019.381,694.047,2007.898,694.047z M944.455,338.205l10.844,27.799l-0.021,0.009
		c0.066,0.167,0.146,0.328,0.219,0.495l0.465,1.193l0.056-0.021c1.561,3.437,3.422,6.62,5.558,9.525
		c-3.896,3.361-8.958,5.403-14.492,5.414c2.106-5.01,1.946-10.904-0.979-15.978c-4.349-7.535-13.323-10.737-21.271-8.088
		C925.671,347.954,933.961,339.421,944.455,338.205z M989.261,462.913c-56.428-0.842-74.795-18.563-80.073-26.139
		c-3.949-5.678-4.291-10.728-3.293-13.56c3.752-10.629,21.356-24.731,33.017-31.635c2.598,0.676,5.317,1.037,8.126,1.037
		c8.109,0,15.525-3.016,21.204-7.973c13.983,12.848,34.288,17.135,52.98,9.844c25.95-10.121,39.078-38.748,29.259-65.606
		l-0.322,0.126l-20.367-52.213l-44.041,17.179l-1.729-31.646c7.978,0.449,15.564-4.467,18.135-12.426
		c15.4-47.736,50.481-69.942,78.18-74.807c20.986-3.686,39.559,1.898,49.676,14.939c14.096,18.165,12.319,49.239-4.994,87.499
		c-26.922,59.488-30.689,109.382-11.209,148.29c15.029,30.012,40.354,45.818,57.775,53.578c-4.1,5.497-7.949,11.19-11.529,17.067
		C1133.119,486.901,1061.396,463.989,989.261,462.913z M1811.561,694.049l-157.344,261.619V694.047v-10.545
		c0-12.799-10.375-23.176-23.175-23.176h-69.292c1.162-5.02,2.135-10.109,2.945-15.254c-0.813,5.146-1.797,10.232-2.959,15.254
		h-20.584h-45.265h-311.18h-32.376h-18.542c-0.761-3.287-1.453-6.604-2.063-9.941c0.609,3.34,1.291,6.656,2.053,9.941h-35.152
		c-12.8,0-23.175,10.377-23.175,23.176v6.771v3.773v269.275L898.01,694.047h-86.521h-16.617
		c9.238-46.852,29.228-81.854,59.894-104.566c80.569-59.686,216.52-23.439,274.747-3.621c-0.909,8.111-1.393,16.357-1.393,24.719
		c0,0.068,0.003,0.139,0.003,0.207c-31.234-10.477-82.303-22.402-123.017-6.916c-23.591,8.975-40.704,25.592-50.864,49.395
		c-5.462,12.801-8.404,26.146-8.814,39.592l0.664-0.014c5.021-12.361,51.861-114.494,205.535-47.531
		c0-97.689,87.355-176.887,195.115-176.887c101.379,0,184.688,70.096,194.201,159.741c13.375-3.578,26.144-5.375,38.277-5.797
		l-0.037-0.016c0,0,87.77-8.775,162.551,71.699c-8.424-22.863-22.036-41.627-40.746-56.064
		c-42.381-32.707-100.09-34.09-133.631-31.426c-0.121-6.805-0.553-13.531-1.28-20.174c22.526-0.818,73.262,0.092,128.301,19.434
		c52.104,18.309,94.873,47.824,128.036,88.23h-10.854V694.049z"/>
</g>
<path id="shadow-2" fill-opacity="0.4" d="M2007.898,694.047H1867.17c-11.374-16.561-23.998-31.807-37.857-45.67
	c-34.403-34.414-76.27-60.328-124.427-77.021c-65.12-22.576-123.463-22.023-145.757-20.721c-2.77-9.787-6.214-19.293-10.257-28.475
	c9.028-5.867,23.681-13.445,43.21-17.123c46.411-8.741,97.411,7.438,151.587,48.08c35.884,26.918,68.068,40.434,96.128,40.434
	c11.149,0,21.65-2.137,31.469-6.412c52.345-22.799,60.813-97.292,61.146-100.45c1.047-9.871-6.098-18.705-15.966-19.773
	c-9.868-1.07-18.741,6.075-19.829,15.94c-1.744,15.794-12.294,59.398-39.805,71.312c-27.117,11.742-64.748-9.75-91.539-29.848
	c-34.539-25.91-69.021-43.29-102.487-51.655c-27.534-6.882-54.415-7.726-79.901-2.507c-22.137,4.533-39.392,12.925-51.223,20.291
	c-3.963-6.058-8.216-11.9-12.741-17.521c4.418-8.357,18.63-32.794,43.614-53.562c39.593-32.908,87.216-41.793,141.546-26.409
	c50.427,14.28,93.076,10.368,126.771-11.631c28.213-18.418,43.998-45.8,52.621-67.57l20.994,16.47l-0.016,0.021l3.395,2.661
	l0.018-0.021l35.503,27.853l16.854-21.483l-4.41-3.46l4.787-6.102l-1.254-0.985l0.09-0.116l-48.629-38.135l-3.104,3.957
	l45.36,35.573l-1.773,2.261l-54.768-42.962c1.139-3.727,1.754-7.681,1.754-11.78c0-22.252-18.038-40.291-40.291-40.291
	c-7.533,0-14.582,2.073-20.611,5.672l-4.92-3.859l-1.766,2.248l-6.293-4.937l-4.896,6.242l-6.104-4.79
	c-1.246-0.979-3.056-0.761-4.032,0.487c-0.981,1.25-0.763,3.056,0.485,4.037l6.104,4.789l-4.418,5.631l6.294,4.937l-2.229,2.84
	l4.427,3.472c-1.507,4.228-2.332,8.777-2.332,13.522c0,17.079,10.632,31.665,25.634,37.529c-7.018,12.96-17.28,26.438-32.15,36.146
	c-24.59,16.055-57.316,18.453-97.279,7.14c-83.469-23.641-141.541,5.639-175.561,34.358c-22.16,18.711-36.994,39.441-45.354,53.112
	c-38.711-34.14-89.536-54.863-145.209-54.863c-58.232,0-111.163,22.67-150.476,59.656c-6.06-1.705-36.872-11.663-51.479-41.244
	c-14.173-28.703-10.14-68.056,11.997-116.966c31.145-68.821,13.769-107.486,0.64-124.409
	c-18.446-23.775-49.979-34.362-84.347-28.329c-31.298,5.497-69.245,26.519-93.029,68.877l-0.757-13.852
	c-0.183-3.309-3.019-5.838-6.319-5.664c-3.309,0.181-5.844,3.01-5.664,6.319l1.998,36.524c-0.848,2.292-1.671,4.616-2.439,7.004
	c-2.045,6.338-0.375,12.973,3.787,17.587l2.304,42.13l-39.047,15.231l5.802,14.875c-14.796,2.938-25.985,16.017-25.985,31.663
	c0,1.281,0.083,2.542,0.229,3.784c-11.825,7.801-35.414,25.526-43.033,47.118c-5.218,14.786-2.412,31.593,7.699,46.108
	c8.687,12.477,21.982,22.394,39.522,29.476c18.856,7.611,42.259,11.68,69.556,12.088c62.809,0.938,127.359,20.561,155.066,30.059
	c-2.763,6.898-5.188,13.963-7.254,21.188c-21.803-7.264-52.157-16.043-86.428-22.137c-39.861-7.086-76.771-9.023-109.704-5.758
	c-42.39,4.203-78.391,17.068-107.001,38.238c-39.761,29.424-64.854,74.131-75.128,133.549H636.794c-0.006,0-0.013,0.002-0.021,0.002
	H216.794c-11.483,0-20.794,9.313-20.794,20.793v396.387c0,11.484,9.311,20.799,20.794,20.799h1371.103
	c0.009,0,0.015-0.002,0.021-0.002h419.979c11.483,0,20.795-9.313,20.795-20.797V714.842
	C2028.691,703.362,2019.381,694.047,2007.898,694.047z M944.455,338.205l10.844,27.799l-0.021,0.009
	c0.066,0.167,0.146,0.328,0.219,0.495l0.465,1.193l0.056-0.021c1.561,3.437,3.422,6.62,5.558,9.525
	c-3.896,3.361-8.958,5.403-14.492,5.414c2.106-5.01,1.946-10.904-0.979-15.978c-4.349-7.535-13.323-10.737-21.271-8.088
	C925.671,347.954,933.961,339.421,944.455,338.205z M989.261,462.913c-56.428-0.842-74.795-18.563-80.073-26.139
	c-3.949-5.678-4.291-10.728-3.293-13.56c3.752-10.629,21.356-24.731,33.017-31.635c2.598,0.676,5.317,1.037,8.126,1.037
	c8.109,0,15.525-3.016,21.204-7.973c13.983,12.848,34.288,17.135,52.98,9.844c25.95-10.121,39.078-38.748,29.259-65.606
	l-0.322,0.126l-20.367-52.213l-44.041,17.179l-1.729-31.646c7.978,0.449,15.564-4.467,18.135-12.426
	c15.4-47.736,50.481-69.942,78.18-74.807c20.986-3.686,39.559,1.898,49.676,14.939c14.096,18.165,12.319,49.239-4.994,87.499
	c-26.922,59.488-30.689,109.382-11.209,148.29c15.029,30.012,40.354,45.818,57.775,53.578c-4.1,5.497-7.949,11.19-11.529,17.067
	C1133.119,486.901,1061.396,463.989,989.261,462.913z M1811.561,694.049l-157.344,261.619V694.047v-10.545
	c0-12.799-10.375-23.176-23.175-23.176h-69.292c1.162-5.02,2.135-10.109,2.945-15.254c-0.813,5.146-1.797,10.232-2.959,15.254
	h-20.584h-45.265h-311.18h-32.376h-18.542c-0.761-3.287-1.453-6.604-2.063-9.941c0.609,3.34,1.291,6.656,2.053,9.941h-35.152
	c-12.8,0-23.175,10.377-23.175,23.176v6.771v3.773v269.275L898.01,694.047h-86.521h-16.617
	c9.238-46.852,29.228-81.854,59.894-104.566c80.569-59.686,216.52-23.439,274.747-3.621c-0.909,8.111-1.393,16.357-1.393,24.719
	c0,0.068,0.003,0.139,0.003,0.207c-31.234-10.477-82.303-22.402-123.017-6.916c-23.591,8.975-40.704,25.592-50.864,49.395
	c-5.462,12.801-8.404,26.146-8.814,39.592l0.664-0.014c5.021-12.361,51.861-114.494,205.535-47.531
	c0-97.689,87.355-176.887,195.115-176.887c101.379,0,184.688,70.096,194.201,159.741c13.375-3.578,26.144-5.375,38.277-5.797
	l-0.037-0.016c0,0,87.77-8.775,162.551,71.699c-8.424-22.863-22.036-41.627-40.746-56.064
	c-42.381-32.707-100.09-34.09-133.631-31.426c-0.121-6.805-0.553-13.531-1.28-20.174c22.526-0.818,73.262,0.092,128.301,19.434
	c52.104,18.309,94.873,47.824,128.036,88.23h-10.854V694.049z"/>
</svg>
