<?xml version="1.0" encoding="utf-8"?>
<!-- Generator: Adobe Illustrator 16.0.0, SVG Export Plug-In . SVG Version: 6.00 Build 0)  -->
<!DOCTYPE svg PUBLIC "-//W3C//DTD SVG 1.1//EN" "http://www.w3.org/Graphics/SVG/1.1/DTD/svg11.dtd">
<svg version="1.1" id="Layer_1" xmlns="http://www.w3.org/2000/svg" xmlns:xlink="http://www.w3.org/1999/xlink" x="0px" y="0px"
	 width="604.483px" height="1741.172px" viewBox="746.001 1335.51 604.483 1741.172"
	 enable-background="new 746.001 1335.51 604.483 1741.172" xml:space="preserve">
<path fill="#005F15" d="M1065.026,1997.013c0,0,45.508-54.398,108.487-44.832l-50.016,54.688L1065.026,1997.013z"/>
<path id="head" fill="#F3C38A" d="M811.612,1716.613c0,0-35.998-82.497-15-182.991c21-100.494,59.998-212.99,301.483-196.49
	c241.486,16.5,259.486,274.486,250.486,322.484s-25.498,163.492-209.988,259.487L1160,1980.5c0,0-34,30-52,26l-27.5-68
	C1080.5,1938.5,900.555,1879.226,811.612,1716.613z"/>
<g id="eyes">
	<g>
		<g id="right_eye_21_">
			<path id="right_eye_23_" fill="#8CCA91" d="M913.5,1710.5c0,0,69.5-3.5,107,3.5c0,0,9.5-109.5-58.5-108.5
				S913.5,1710.5,913.5,1710.5z"/>
			<g>
				<g>
					<g>
						<g>
							<defs>
								<path id="SVGID_1_" d="M913.5,1710.5c0,0,69.5-3.5,107,3.5c0,0,9.5-109.5-58.5-108.5S913.5,1710.5,913.5,1710.5z"/>
							</defs>
							<clipPath id="SVGID_2_">
								<use xlink:href="#SVGID_1_"  overflow="visible"/>
							</clipPath>
							
								<ellipse id="right_eyeball_7_" clip-path="url(#SVGID_2_)" fill="#8CCA91" cx="976.708" cy="1678.5" rx="31.375" ry="44.167"/>
						</g>
					</g>
				</g>
			</g>
		</g>
		<g id="left_eye_21_">
			<path id="left_eye_23_" fill="#8CCA91" d="M811.854,1712.774l52.896-7.024l-0.77-6.745L864,1699c0,0-14-137-68.5-82
				c-1.652,1.668-3.186,3.322-4.615,4.963c2.574,36.307,10.447,65.143,15.713,81.045l0,0l0.021,0.053
				c1.287,3.883,2.418,7,3.274,9.255c0.011,0.005,0.017,0.009,0.023,0.015l0.238,0.672l0.69-0.092
				c0.093,0.052,0.155,0.09,0.155,0.09L811.854,1712.774z"/>
			<g>
				<g>
					<g>
						<g>
							<defs>
								<path id="SVGID_3_" d="M793.299,1668.94l15.759,50.973l6.52-1.884l0.009,0.019c0,0,132.723-36.681,69.399-81.224
									c-1.919-1.353-3.805-2.588-5.662-3.723c-35.362,8.601-62.476,21.177-77.274,29.026v-0.001l-0.049,0.025
									c-3.612,1.916-6.498,3.554-8.574,4.775c-0.004,0.011-0.008,0.017-0.011,0.025l-0.625,0.348l0.208,0.667
									c-0.04,0.099-0.065,0.165-0.065,0.165L793.299,1668.94z"/>
							</defs>
							<clipPath id="SVGID_4_">
								<use xlink:href="#SVGID_3_"  overflow="visible"/>
							</clipPath>
							
								<ellipse id="left_eyeball_7_" transform="matrix(0.0559 0.9984 -0.9984 0.0559 2459.468 758.7776)" clip-path="url(#SVGID_4_)" fill="#8CCA91" cx="828.508" cy="1679.904" rx="42.667" ry="25.355"/>
						</g>
					</g>
				</g>
			</g>
		</g>
	</g>
	<g>
		<g id="right_eye_18_">
			<path id="right_eye_20_" fill="#FFFFFF" d="M913.5,1710.5c0,0,69.5-3.5,107,3.5c0,0,9.5-109.5-58.5-108.5
				S913.5,1710.5,913.5,1710.5z"/>
			<g>
				<g>
					<g>
						<g>
							<defs>
								<path id="SVGID_5_" d="M913.5,1710.5c0,0,69.5-3.5,107,3.5c0,0,9.5-109.5-58.5-108.5S913.5,1710.5,913.5,1710.5z"/>
							</defs>
							<clipPath id="SVGID_6_">
								<use xlink:href="#SVGID_5_"  overflow="visible"/>
							</clipPath>
							
								<ellipse id="right_eyeball_6_" clip-path="url(#SVGID_6_)" fill="#333333" cx="971.708" cy="1678.5" rx="31.375" ry="44.167"/>
						</g>
					</g>
				</g>
			</g>
		</g>
		<g id="left_eye_18_">
			<path id="left_eye_20_" fill="#FFFFFF" d="M811.854,1712.774l52.896-7.024l-0.77-6.745L864,1699c0,0-14-137-68.5-82
				c-1.652,1.668-3.186,3.322-4.615,4.963c2.574,36.307,10.447,65.143,15.713,81.045l0,0l0.021,0.053
				c1.287,3.883,2.418,7,3.274,9.255c0.011,0.005,0.017,0.009,0.023,0.015l0.238,0.672l0.69-0.092
				c0.093,0.052,0.155,0.09,0.155,0.09L811.854,1712.774z"/>
			<path id="left_eyeball_6_" fill="#333333" d="M830.192,1722.271c-12.123,1.594-24.153-16.08-26.87-39.479
				c-2.716-23.398,4.908-43.659,17.031-45.255c12.123-1.594,24.154,16.08,26.871,39.479
				C849.939,1700.414,842.315,1720.675,830.192,1722.271z"/>
		</g>
	</g>
</g>
<path id="right_foot" fill="#F3C38A" d="M1165,2713c0,0,1,53,0,57c0,0-27.111,46,0.443,69c0,0,10.565,58,7.063,87
	c0,0,40.494,10,67.494,0c0,0,23-138,11-213C1251,2713,1196,2695,1165,2713z"/>
<path id="left_foot" fill="#F3C38A" d="M1141.667,2721.667c0,0-2.18-0.952-5.623-2.272c-0.277-7.548-0.725-14.319-1.377-20.061
	c0,0-60.059-5.125-73.666,5.666c0,0,4,26.654,4,47.827c0,0-26,44.618-9,64.896c0,0,12,14.277,18,17.527c0,0,5.33,43.089,4.33,91.423
	c0,0,9.684,2.636,26.479,1.396c8.668,0.571,20.41,0.819,28.521-1.067C1133.333,2927,1151.334,2757,1141.667,2721.667z"/>
<g id="chaddi_2_">
	<path id="chaddi" fill="#8CCA91" d="M1019.297,2475.661c0,0-16.91,173.672-24.77,220.339c0,0,35.471,29.334,112.805,20.667v6.666
		c0,0,120.639,21.334,242.986-19.333c0,0,1.682-253.334-5.652-282.667C1344.667,2421.333,1036.596,2453.989,1019.297,2475.661z"/>
	<g>
		<g>
			<g>
				<g>
					<defs>
						<path id="SVGID_7_" d="M1019.297,2475.661c0,0-16.91,173.672-24.77,220.339c0,0,35.471,29.334,112.805,20.667v6.666
							c0,0,120.639,21.334,242.986-19.333c0,0,1.682-253.334-5.652-282.667C1344.667,2421.333,1036.596,2453.989,1019.297,2475.661z
							"/>
					</defs>
					<clipPath id="SVGID_8_">
						<use xlink:href="#SVGID_7_"  overflow="visible"/>
					</clipPath>
					
						<path opacity="0.2" clip-path="url(#SVGID_8_)" fill="#8CCA91" stroke="#000000" stroke-width="6" stroke-linecap="round" stroke-miterlimit="10" enable-background="new    " d="
						M1104.5,2720c0,0,6.832-129.334,4.832-193.334"/>
				</g>
			</g>
		</g>
	</g>
</g>
<g id="socks">
	<path id="left_sock" fill="#BBBBBB" d="M1070.5,2919.5c0,0,35.5,7.5,68-2.5l-2.5,11.482c0,0,4.539,4.518,8.52,12.518
		c0,0,1.48,8-8.52,15c0,0-3,4.5,1.5,7c0,0,9.166,6.001,5.5,10.334c0,0-10,12.334-8.834,17.667c1.168,5.333-0.832,9.333-0.832,9.333
		l-65.5,2.833c0,0,2.332-9.5,1.5-14.5c0,0-3.668-7.666-2.834-12.333s5.668-7.333,5.668-7.333s3.334-3.834-3.834-9.834
		c-7.166-6,0-13.167,1-13.5s8.334-5.166-1.5-10.333C1058.002,2930.167,1070.5,2919.5,1070.5,2919.5z"/>
	<path id="right_sock" fill="#BBBBBB" d="M1160.667,2920.167c0,0,52.5,10.833,89.834,0c0,0,1,6.834-3,11.834
		c0,0,0.332,9.166,8.5,13.833c0,0,9,3.833-5.166,20.833c0,0-2.5,5.5,2,10.167c0,0,5.834,6.667-7,16.667c0,0-29.168,12-73.334,3.5
		l-5.834-4c0,0-8.166-7.168-5-11.334c0,0,9-12.166,3.668-14.333c0,0-10.334-6.333-7.5-13c0,0,0.666-3.834,5-10.167
		c0,0,3.332-5.945-3.668-13.723C1159.167,2930.444,1155.167,2922.833,1160.667,2920.167z"/>
</g>
<path id="shirt" fill="#56AD48" d="M1067,1995c0,0,25.363,8.438,57.332-8.333c0,0,28.668-12.667,43.334-35.667
	c0,0,147.918,20.6,165.918,238.089c0,0,13.969,89.995,16.734,235.488c0,0-120.82,59.423-335.32,50.923
	c0,0-21.896-175.416-20.396-293.91C996.102,2063.094,1067,1995,1067,1995z"/>
<g id="shoes">
	<path id="left_shoe" fill="#666666" d="M1066.5,2997c0,0-42.5,5-46.5,31s1,42,40.5,38c0,0,69.5-4,86.5-13
		c0,0,8.555-56.48-12.473-58.49L1066.5,2997z"/>
	<g>
		<g>
			<g>
				<g>
					<defs>
						<path id="SVGID_9_" d="M1066.5,2997c0,0-42.5,5-46.5,31s1,42,40.5,38c0,0,69.5-4,86.5-13c0,0,8.555-56.48-12.473-58.49
							L1066.5,2997z"/>
					</defs>
					<clipPath id="SVGID_10_">
						<use xlink:href="#SVGID_9_"  overflow="visible"/>
					</clipPath>
					<path id="right_shoe_1_" opacity="0.2" clip-path="url(#SVGID_10_)" enable-background="new    " d="M1167,2995.51
						c0,0-76.018,15.992-52.51,64.991c0,0,53.51,25.501,124.01,0c0,0,17.5-24.001,0-68.501C1238.5,2992,1189,2999.02,1167,2995.51z"
						/>
				</g>
			</g>
		</g>
	</g>
	<path id="right_shoe" fill="#666666" d="M1175,2994.51c0,0-76.018,15.992-52.51,64.991c0,0,53.51,25.501,124.01,0
		c0,0,17.5-24.001,0-68.501C1246.5,2991,1197,2998.02,1175,2994.51z"/>
</g>
<path id="lathi" fill="#A98C00" d="M994.528,2448c0,0-5.474,36,0,46c0,0,7.473,29-10.527,60c0,0-14.875,40.093,19.396,73.381
	c0,0,13.938,21.293,7.271,132.626c0,0-1.332,100.007-3.332,134.673c0,0,0.666,21.002,2.666,30.67c0,0,4,26.666-3.666,57.666
	c0,0-20.668,70.666,16.666,93.666c0,0,15-12.332,11.668-45.666c0,0-0.367-32.002,0.482-61.334c0,0,6.85-81.004,2.518-126.338
	c0,0-5.668-88,4.332-109c0,0,20-52.998,2-85.666c0,0-12-15.668-3-43.334c0,0,14.668-37.344,3-75.344c0,0-6.332-42.006-1-64.673
	c0,0,16.334-32.666-15.332-36c-31.668-3.334-33.139,18-33.139,18"/>
<g id="whiskers">
	<path id="daadi" fill="#AAAAAA" d="M842.333,1850.968c0,0-0.137,252,125.932,472c0,0,90.068-240,116.068-462l-191-41.5
		L842.333,1850.968z"/>
	<g id="mooch_shadow">
		<g>
			<g>
				<g>
					<defs>
						<path id="SVGID_11_" d="M842.333,1850.968c0,0-0.137,252,125.932,472c0,0,90.068-240,116.068-462l-191-41.5L842.333,1850.968z
							"/>
					</defs>
					<clipPath id="SVGID_12_">
						<use xlink:href="#SVGID_11_"  overflow="visible"/>
					</clipPath>
					<path id="mooch_1_" clip-path="url(#SVGID_12_)" fill="#888888" d="M896.907,1763.855c0,0,158.756-27.299,220.094,121.727
						c0,0-113.656,45.74-220.094-47.215c0,0-49.914,64.921-135.906,44.265C761,1882.632,768.819,1759.429,896.907,1763.855z"/>
				</g>
			</g>
		</g>
	</g>
	<path id="mooch" fill="#AAAAAA" d="M896.667,1768.667c0,0,176-24.667,244,110c0,0-126,41.333-244-42.667
		c0,0-55.334,58.667-150.666,40C746,1876,754.667,1764.667,896.667,1768.667z"/>
</g>
<path id="nose" fill="#F3C38A" d="M915,1714.5c0,0-127.932-42.5-124.965,42.5c2.965,85,159.465,11.5,160.465,10"/>
<path id="hand" fill="#F3C38A" d="M1145.999,2223.998c0,0-4,41.334-4,58.667c0,0-107.332,50.666-144.666,59.333
	c0,0-59.334,26.666-46.668,57.999c0,0-20.633,55.151,20.334,52.339c0,0,16,15.333,33.334,3.333c0,0,9.332,12,26.332,7.667
	c0,0,24.834-7.835,10-25.335c0,0-5.332-4.668-14.5,1.666c0,0,17.209-10.917,22.209-27.167c0,0,71.625-26.5,147.625-58.5
	c0,0,26-16,28-42l3.5-85C1227.5,2227,1178.999,2235.996,1145.999,2223.998z"/>
<g id="fingers">
	<g>
		<g>
			<g>
				<defs>
					<path id="SVGID_13_" d="M1145.999,2223.998c0,0-4,41.334-4,58.667c0,0-107.332,50.666-144.666,59.333
						c0,0-59.334,26.666-46.668,57.999c0,0-20.633,55.151,20.334,52.339c0,0,16,15.333,33.334,3.333c0,0,9.332,12,26.332,7.667
						c0,0,24.834-7.835,10-25.335c0,0-5.332-4.668-14.5,1.666c0,0,17.209-10.917,22.209-27.167c0,0,71.625-26.5,147.625-58.5
						c0,0,26-16,28-42l3.5-85C1227.5,2227,1178.999,2235.996,1145.999,2223.998z"/>
				</defs>
				<clipPath id="SVGID_14_">
					<use xlink:href="#SVGID_13_"  overflow="visible"/>
				</clipPath>
				
					<path clip-path="url(#SVGID_14_)" fill="none" stroke="#000000" stroke-width="6" stroke-linecap="round" stroke-miterlimit="10" stroke-opacity="0.2" d="
					M1004.333,2455.669c0,0-16.082-19.419-1.332-47.419"/>
			</g>
		</g>
	</g>
	<g>
		<g>
			<g>
				<defs>
					<path id="SVGID_15_" d="M1145.999,2223.998c0,0-4,41.334-4,58.667c0,0-107.332,50.666-144.666,59.333
						c0,0-59.334,26.666-46.668,57.999c0,0-20.633,55.151,20.334,52.339c0,0,16,15.333,33.334,3.333c0,0,9.332,12,26.332,7.667
						c0,0,24.834-7.835,10-25.335c0,0-5.332-4.668-14.5,1.666c0,0,17.209-10.917,22.209-27.167c0,0,71.625-26.5,147.625-58.5
						c0,0,26-16,28-42l3.5-85C1227.5,2227,1178.999,2235.996,1145.999,2223.998z"/>
				</defs>
				<clipPath id="SVGID_16_">
					<use xlink:href="#SVGID_15_"  overflow="visible"/>
				</clipPath>
				
					<path clip-path="url(#SVGID_16_)" fill="none" stroke="#000000" stroke-width="6" stroke-linecap="round" stroke-miterlimit="10" stroke-opacity="0.2" d="
					M976.75,2401.25c0,0-16.5,23.172-5.75,51.086"/>
			</g>
		</g>
	</g>
</g>
<g id="third_eye_x3C_Group_x3E_">
	<path id="third_eye" fill="#FFFFFF" d="M845.333,1548.333c0,0,25,6,79,0c0,0,2.484-113.333-51.09-92
		C873.243,1456.333,839.667,1470.333,845.333,1548.333z"/>
	<g>
		<g>
			<g>
				<g>
					<defs>
						<path id="SVGID_17_" d="M845.333,1548.333c0,0,25,6,79,0c0,0,2.484-113.333-51.09-92
							C873.243,1456.333,839.667,1470.333,845.333,1548.333z"/>
					</defs>
					<clipPath id="SVGID_18_">
						<use xlink:href="#SVGID_17_"  overflow="visible"/>
					</clipPath>
					<ellipse id="third_eyeball" clip-path="url(#SVGID_18_)" fill="#333333" cx="883.708" cy="1519.5" rx="25.293" ry="44.167"/>
				</g>
			</g>
		</g>
	</g>
</g>
</svg>
