<?xml version="1.0" encoding="utf-8"?>
<!-- Generator: Adobe Illustrator 16.0.0, SVG Export Plug-In . SVG Version: 6.00 Build 0)  -->
<!DOCTYPE svg PUBLIC "-//W3C//DTD SVG 1.1//EN" "http://www.w3.org/Graphics/SVG/1.1/DTD/svg11.dtd">
<svg version="1.1" id="Layer_1" xmlns="http://www.w3.org/2000/svg" xmlns:xlink="http://www.w3.org/1999/xlink" x="0px" y="0px"
	 width="132.623px" height="158.667px" viewBox="0 0 132.623 158.667" enable-background="new 0 0 132.623 158.667"
	 xml:space="preserve">
<path fill="#F3C38A" d="M111.471,99.289c9.349-6.85,14.751-15.51,14.099-24.557c-0.865-11.975-12.122-21.759-28.479-26.774
	c12.57-10.405,18.919-22.527,15.396-32.456c-5.726-16.135-35.333-20.357-66.127-9.43C15.563,17-4.76,38.94,0.966,55.076
	c1.837,5.179,6.145,9.123,12.151,11.74c-3.943,5.079-5.99,10.678-5.574,16.436c0.599,8.304,6.193,15.555,15.021,20.894
	c-4.724,4.495-7.607,9.8-8.023,15.624c-1.36,19.006,23.96,36.303,56.554,38.636c32.594,2.331,60.118-11.186,61.478-30.19
	C133.366,117.104,125.033,106.583,111.471,99.289z"/>
<g>
	<defs>
		<path id="SVGID_1_" d="M111.471,99.289c9.349-6.85,14.751-15.51,14.099-24.557c-0.865-11.975-12.122-21.759-28.479-26.774
			c12.57-10.405,18.919-22.527,15.396-32.456c-5.726-16.135-35.333-20.357-66.127-9.43C15.563,17-4.76,38.94,0.966,55.076
			c1.837,5.179,6.145,9.123,12.151,11.74c-3.943,5.079-5.99,10.678-5.574,16.436c0.599,8.304,6.193,15.555,15.021,20.894
			c-4.724,4.495-7.607,9.8-8.023,15.624c-1.36,19.006,23.96,36.303,56.554,38.636c32.594,2.331,60.118-11.186,61.478-30.19
			C133.366,117.104,125.033,106.583,111.471,99.289z"/>
	</defs>
	<clipPath id="SVGID_2_">
		<use xlink:href="#SVGID_1_"  overflow="visible"/>
	</clipPath>
	
		<path clip-path="url(#SVGID_2_)" fill="none" stroke="#000000" stroke-width="6" stroke-linecap="round" stroke-miterlimit="10" stroke-opacity="0.2" d="
		M13.973,67.033c0,0,50.25,5.75,82.5-18.75"/>
	
		<path clip-path="url(#SVGID_2_)" fill="none" stroke="#000000" stroke-width="6" stroke-linecap="round" stroke-miterlimit="10" stroke-opacity="0.2" d="
		M23.723,104.158c0,0,46.5,15.375,86-3.875"/>
</g>
</svg>
